<?xml version="1.0" encoding="iso-8859-1"?>
<!-- Generator: Adobe Illustrator 16.0.0, SVG Export Plug-In . SVG Version: 6.00 Build 0)  -->
<!DOCTYPE svg PUBLIC "-//W3C//DTD SVG 1.1//EN" "http://www.w3.org/Graphics/SVG/1.1/DTD/svg11.dtd">
<svg version="1.1" id="Layer_1" xmlns="http://www.w3.org/2000/svg" xmlns:xlink="http://www.w3.org/1999/xlink" x="0px" y="0px"
	 width="600px" height="600px" viewBox="0 0 600 600" style="enable-background:new 0 0 600 600;" xml:space="preserve">
<g style="opacity:0.3;">
	<path style="fill:#FFFFFF;" d="M301.99,81.164c12.775,2.862,19.797,11.376,26.252,21.356
		c63.984,98.91,128.262,197.656,192.457,296.448c19.455,29.938,38.945,59.852,58.35,89.814c7.275,11.233,2.344,23.808-10.926,28.354
		c-1.422,0.486-2.781,1.128-4.17,1.699c-177.785,0-355.566,0-533.348,0c-6.864-3.471-11.128-8.819-13.193-15.757
		c0-2.626,0-5.253,0-7.878c1.417-2.873,2.562-5.897,4.29-8.599c83.338-130.238,166.74-260.44,250.057-390.69
		c3.255-5.089,7.527-8.934,13.09-11.558c2.757-1.3,5.767-2.142,8.661-3.19C296.336,81.164,299.164,81.164,301.99,81.164
		 M302.212,79.164h-0.222h-8.481h-0.351l-0.33,0.12c-0.88,0.319-1.797,0.627-2.684,0.925c-2.038,0.685-4.146,1.393-6.149,2.337
		c-5.841,2.756-10.395,6.775-13.922,12.289c-47.56,74.352-95.944,149.932-142.736,223.024
		C91.56,373.744,55.782,429.631,20.017,485.524c-1.254,1.962-2.207,4.052-3.127,6.074c-0.41,0.9-0.834,1.831-1.271,2.718
		l-0.207,0.418v0.467v7.878v0.291l0.083,0.279c2.276,7.646,7.057,13.355,14.208,16.972l0.425,0.215h0.477h533.348h0.396l0.365-0.15
		c0.444-0.183,0.885-0.372,1.326-0.562c0.938-0.404,1.825-0.785,2.73-1.095c7.284-2.496,12.477-7.283,14.62-13.481
		c1.998-5.775,1.052-12.115-2.663-17.852c-13.59-20.985-27.45-42.297-40.854-62.907c-5.833-8.969-11.667-17.938-17.497-26.91
		c-14.045-21.614-28.094-43.227-42.144-64.839c-49.323-75.877-100.327-154.338-150.311-231.606
		c-5.878-9.088-13.335-19.049-27.494-22.222L302.212,79.164L302.212,79.164z"/>
</g>
<path style="fill:#ED1C24;stroke:#000000;stroke-width:2;stroke-miterlimit:10;" d="M17.412,503.079c0-2.626,0-5.253,0-7.878
	c1.417-2.873,2.562-5.897,4.29-8.599c83.338-130.238,166.74-260.44,250.057-390.69c3.255-5.089,7.527-8.934,13.09-11.558
	c2.757-1.3,5.767-2.142,8.661-3.19c2.827,0,5.654,0,8.481,0c12.775,2.862,19.797,11.376,26.252,21.356
	c63.984,98.91,128.262,197.656,192.457,296.448c19.455,29.938,38.945,59.852,58.35,89.814c7.275,11.233,2.344,23.808-10.926,28.354
	c-1.422,0.486-2.781,1.128-4.17,1.699c-177.785,0-355.566,0-533.348,0C23.741,515.365,19.477,510.017,17.412,503.079z"/>
<path style="fill-rule:evenodd;clip-rule:evenodd;fill:#FFFFFF;" d="M298.396,155.66c66.18,103.2,131.87,205.636,198.237,309.128
	c-131.123,0-261.259,0-392.014,0C169.053,361.998,233.519,259.157,298.396,155.66z"/>
<path style="fill:none;stroke:#000000;stroke-width:1.5;stroke-miterlimit:10;" d="M298.396,155.66
	c-64.877,103.497-129.343,206.338-193.777,309.128c130.755,0,260.891,0,392.014,0C430.266,361.296,364.576,258.86,298.396,155.66z"
	/>
<g>
	<path style="fill-rule:evenodd;clip-rule:evenodd;fill:#FFFFFF;" d="M214.12,384.162c-0.779,11.92,1.641,22.285,8.251,31.63
		c9.465,13.383,22.873,21.468,37.497,27.634c12.978,5.472,26.303,10.122,39.517,15.021c1.031,0.384,2.484,0.108,3.592-0.282
		c5.586-1.961,11.089-4.16,16.682-6.098c15.643-5.412,31.225-11.025,44.636-21.045c11.469-8.572,20.462-19.011,22.731-33.863
		c2.497-16.354-0.985-31.946-6.113-47.304c-5.114-15.315-4.443-29.968,4.6-43.78c2.074-3.173,1.705-5.985-1.336-8.472
		c-3.105-2.539-6.305-5.03-9.023-7.951c-2.417-2.6-4.498-2.444-7.645-1.357c-6.916,2.39-13.951,5.117-21.135,5.901
		c-15.078,1.65-30.189,1.685-43.855-6.866c-0.942-0.59-2.926,0.053-4.246,0.574c-3.856,1.522-7.475,4.053-11.449,4.803
		c-18.265,3.446-36.377,4.05-53.711-4.59c-1.396-0.696-4.126-0.202-5.477,0.783c-3.613,2.633-6.757,5.901-10.194,8.79
		c-3.037,2.551-3.189,5.386-1.153,8.513c8.8,13.506,9.5,27.809,4.735,42.885C217.349,360.709,213.447,372.348,214.12,384.162z"/>
	<path style="fill-rule:evenodd;clip-rule:evenodd;" d="M214.12,384.162c-0.672-11.814,3.229-23.453,6.903-35.076
		c4.765-15.076,4.065-29.379-4.735-42.885c-2.037-3.127-1.884-5.962,1.153-8.513c3.438-2.889,6.581-6.157,10.194-8.79
		c1.351-0.984,4.08-1.479,5.477-0.783c17.334,8.641,35.447,8.036,53.711,4.59c3.974-0.75,7.592-3.28,11.449-4.803
		c1.32-0.521,3.304-1.164,4.246-0.574c13.666,8.551,28.777,8.516,43.855,6.866c7.184-0.784,14.219-3.511,21.135-5.901
		c3.146-1.087,5.228-1.243,7.645,1.357c2.719,2.921,5.918,5.412,9.023,7.951c3.041,2.487,3.41,5.299,1.336,8.472
		c-9.043,13.812-9.714,28.465-4.6,43.78c5.128,15.357,8.61,30.949,6.113,47.304c-2.27,14.853-11.263,25.291-22.731,33.863
		c-13.411,10.02-28.993,15.633-44.636,21.045c-5.593,1.938-11.096,4.137-16.682,6.098c-1.107,0.391-2.561,0.666-3.592,0.282
		c-13.214-4.898-26.539-9.549-39.517-15.021c-14.625-6.166-28.032-14.251-37.497-27.634
		C215.761,406.447,213.341,396.082,214.12,384.162z M273.136,405.102c1.816-0.622,2.45-0.771,3.021-1.045
		c5.919-2.845,11.957-5.479,17.702-8.643c4.875-2.686,9.188-2.698,14.015,0.176c5.492,3.271,11.305,6.018,17.076,8.792
		c1.146,0.552,3.1,0.721,3.991,0.091c0.702-0.496,0.688-2.574,0.398-3.811c-1.319-5.617-2.722-11.221-4.348-16.754
		c-0.981-3.351-0.53-5.865,2.497-7.936c5.293-3.616,10.507-7.352,15.637-11.195c1.243-0.928,2.034-2.462,3.033-3.716
		c-1.516-0.698-2.983-1.839-4.557-2.015c-7.016-0.789-14.057-1.407-21.102-1.873c-4.176-0.274-6.756-2.416-8.613-5.955
		c-2.604-4.968-5.277-9.9-8.068-14.765c-2.338-4.073-3.535-4.11-5.84-0.15c-2.82,4.847-5.495,9.782-8.099,14.749
		c-1.938,3.696-4.589,5.898-8.994,6.146c-7.047,0.397-14.086,1.072-21.098,1.886c-1.53,0.178-2.934,1.433-4.396,2.191
		c0.955,1.134,1.736,2.504,2.896,3.361c5.03,3.711,10.062,7.44,15.306,10.83c3.881,2.511,4.099,5.506,2.795,9.518
		c-1.73,5.328-3.083,10.791-4.33,16.256C271.802,402.358,272.728,403.746,273.136,405.102z"/>
	<path style="fill-rule:evenodd;clip-rule:evenodd;fill:#FFFFFF;" d="M273.136,405.102c-0.408-1.355-1.333-2.743-1.078-3.861
		c1.247-5.465,2.6-10.928,4.33-16.256c1.303-4.012,1.086-7.007-2.795-9.518c-5.244-3.39-10.276-7.119-15.306-10.83
		c-1.16-0.857-1.94-2.228-2.896-3.361c1.462-0.759,2.867-2.014,4.396-2.191c7.012-0.813,14.051-1.488,21.098-1.886
		c4.405-0.247,7.056-2.449,8.994-6.146c2.604-4.967,5.278-9.902,8.099-14.749c2.305-3.96,3.502-3.923,5.84,0.15
		c2.791,4.864,5.465,9.797,8.068,14.765c1.857,3.539,4.438,5.681,8.613,5.955c7.045,0.466,14.086,1.084,21.102,1.873
		c1.573,0.176,3.041,1.316,4.557,2.015c-0.999,1.254-1.79,2.788-3.033,3.716c-5.13,3.844-10.344,7.579-15.637,11.195
		c-3.027,2.07-3.479,4.585-2.497,7.936c1.626,5.533,3.028,11.137,4.348,16.754c0.289,1.236,0.304,3.314-0.398,3.811
		c-0.892,0.63-2.845,0.461-3.991-0.091c-5.771-2.774-11.584-5.521-17.076-8.792c-4.826-2.874-9.14-2.861-14.015-0.176
		c-5.745,3.164-11.783,5.798-17.702,8.643C275.585,404.331,274.952,404.479,273.136,405.102z"/>
</g>
</svg>
