<?xml version="1.0" encoding="iso-8859-1"?>
<!-- Generator: Adobe Illustrator 16.0.0, SVG Export Plug-In . SVG Version: 6.00 Build 0)  -->
<!DOCTYPE svg PUBLIC "-//W3C//DTD SVG 1.1//EN" "http://www.w3.org/Graphics/SVG/1.1/DTD/svg11.dtd">
<svg version="1.1" id="Layer_1" xmlns="http://www.w3.org/2000/svg" xmlns:xlink="http://www.w3.org/1999/xlink" x="0px" y="0px"
	 width="600px" height="600px" viewBox="0 0 600 600" style="enable-background:new 0 0 600 600;" xml:space="preserve">
<g style="opacity:0.3;">
	<path style="fill:#FFFFFF;" d="M301.99,81.164c12.775,2.862,19.797,11.376,26.252,21.356
		c63.984,98.91,128.262,197.656,192.457,296.448c19.455,29.938,38.945,59.852,58.35,89.814c7.275,11.233,2.344,23.808-10.926,28.354
		c-1.422,0.486-2.781,1.128-4.17,1.699c-177.785,0-355.566,0-533.348,0c-6.864-3.471-11.128-8.819-13.193-15.757
		c0-2.626,0-5.253,0-7.878c1.417-2.873,2.562-5.897,4.29-8.599c83.338-130.238,166.74-260.44,250.057-390.69
		c3.255-5.089,7.527-8.934,13.09-11.558c2.757-1.3,5.767-2.142,8.661-3.19C296.336,81.164,299.164,81.164,301.99,81.164
		 M302.212,79.164h-0.222h-8.481h-0.351l-0.33,0.12c-0.88,0.319-1.797,0.627-2.684,0.925c-2.038,0.685-4.146,1.393-6.149,2.337
		c-5.841,2.756-10.395,6.775-13.922,12.289c-47.56,74.352-95.944,149.932-142.736,223.024
		C91.56,373.744,55.782,429.631,20.017,485.524c-1.254,1.962-2.207,4.052-3.127,6.074c-0.41,0.9-0.834,1.831-1.271,2.718
		l-0.207,0.418v0.467v7.878v0.291l0.083,0.279c2.276,7.646,7.057,13.355,14.208,16.972l0.425,0.215h0.477h533.348h0.396l0.365-0.15
		c0.444-0.183,0.885-0.372,1.326-0.562c0.938-0.404,1.825-0.785,2.73-1.095c7.284-2.496,12.477-7.283,14.62-13.481
		c1.998-5.775,1.052-12.115-2.663-17.852c-13.59-20.985-27.45-42.297-40.854-62.907c-5.833-8.969-11.667-17.938-17.497-26.91
		c-14.045-21.614-28.094-43.227-42.144-64.839c-49.323-75.877-100.327-154.338-150.311-231.606
		c-5.878-9.088-13.335-19.049-27.494-22.222L302.212,79.164L302.212,79.164z"/>
</g>
<path style="fill:#ED1C24;stroke:#000000;stroke-width:2;stroke-miterlimit:10;" d="M17.412,503.079c0-2.626,0-5.253,0-7.878
	c1.417-2.873,2.562-5.897,4.29-8.599c83.338-130.238,166.74-260.44,250.057-390.69c3.255-5.089,7.527-8.934,13.09-11.558
	c2.757-1.3,5.767-2.142,8.661-3.19c2.827,0,5.654,0,8.481,0c12.775,2.862,19.797,11.376,26.252,21.356
	c63.984,98.91,128.262,197.656,192.457,296.448c19.455,29.938,38.945,59.852,58.35,89.814c7.275,11.233,2.344,23.808-10.926,28.354
	c-1.422,0.486-2.781,1.128-4.17,1.699c-177.785,0-355.566,0-533.348,0C23.741,515.365,19.477,510.017,17.412,503.079z"/>
<path style="fill-rule:evenodd;clip-rule:evenodd;fill:#FFFFFF;" d="M298.396,155.66c66.18,103.2,131.87,205.636,198.237,309.128
	c-131.123,0-261.259,0-392.014,0C169.053,361.998,233.519,259.157,298.396,155.66z"/>
<path style="fill:none;stroke:#000000;stroke-width:1.5;stroke-miterlimit:10;" d="M298.396,155.66
	c-64.877,103.497-129.343,206.338-193.777,309.128c130.755,0,260.891,0,392.014,0C430.266,361.296,364.576,258.86,298.396,155.66z"
	/>
<g>
	<path d="M273.728,226.058c4.499-3.855,8.999-7.711,13.499-11.567c1.708-1.067,3.432-2.103,5.118-3.207
		c6.77-4.44,13.524-8.906,20.293-13.349c0.458-0.299,0.987-0.494,1.097-0.547c-4.698,6.815-9.717,13.724-14.332,20.895
		c-4.186,6.509-7.362,13.538-8.63,21.271c-1.211,7.396,0.166,13.998,6.08,19.167c3.539,3.093,7.833,4.413,12.296,5.332
		c13.54,2.786,25.391,8.782,35.021,18.774c7.183,7.451,12.74,15.989,15.743,25.984c3.715,12.356,4.486,25.005,3.227,37.79
		c-2.172,22.093-10.303,41.938-22.861,60.086c-6.485,9.369-14.223,17.65-22.343,25.597c-0.41,0.402-0.664,0.966-0.989,1.455
		c-3.142,2.691-6.284,5.384-9.426,8.076c-0.427,0.173-0.901,0.276-1.274,0.531c-6.808,4.688-13.59,9.414-20.413,14.08
		c-2.229,1.523-4.563,2.895-6.85,4.335c-0.036-0.518,0.145-0.768,0.339-1.004c6.321-7.691,12.351-15.586,17.145-24.352
		c3.264-5.972,5.884-12.177,6.634-19.013c0.633-5.769-0.709-10.936-4.707-15.344c-3.748-4.133-8.671-5.906-13.809-7.41
		c-4.491-1.316-9.142-2.347-13.36-4.289c-22.272-10.257-35.524-27.567-39.13-51.876c-3.035-20.448-0.868-40.466,6.654-59.741
		c6.933-17.762,17.516-33.216,30.793-46.863C271.023,229.349,272.337,227.666,273.728,226.058z"/>
	<path style="fill-rule:evenodd;clip-rule:evenodd;fill:#FFFFFF;" d="M267.775,293.971c17.915-17.845,49.057-14.001,65.099,5.19
		c15.3,18.308,14.813,46.818-4.675,64.457c-18.755,16.977-50.097,15.84-67.763-6.212
		C248.167,342.089,245.566,310.072,267.775,293.971z"/>
</g>
</svg>
