<?xml version="1.0" encoding="iso-8859-1"?>
<!-- Generator: Adobe Illustrator 16.0.0, SVG Export Plug-In . SVG Version: 6.00 Build 0)  -->
<!DOCTYPE svg PUBLIC "-//W3C//DTD SVG 1.1//EN" "http://www.w3.org/Graphics/SVG/1.1/DTD/svg11.dtd">
<svg version="1.1" id="Layer_1" xmlns="http://www.w3.org/2000/svg" xmlns:xlink="http://www.w3.org/1999/xlink" x="0px" y="0px"
	 width="600px" height="600px" viewBox="0 0 600 600" style="enable-background:new 0 0 600 600;" xml:space="preserve">
<g style="opacity:0.3;">
	<path style="fill:#FFFFFF;" d="M302.059,81.164c12.775,2.862,19.797,11.376,26.252,21.356
		c63.984,98.91,128.262,197.656,192.457,296.448c19.455,29.938,38.945,59.852,58.35,89.814c7.275,11.233,2.344,23.808-10.926,28.354
		c-1.422,0.486-2.781,1.128-4.17,1.699c-177.785,0-355.566,0-533.348,0c-6.864-3.471-11.128-8.819-13.193-15.757
		c0-2.626,0-5.253,0-7.878c1.417-2.873,2.562-5.897,4.29-8.599c83.338-130.238,166.74-260.44,250.057-390.69
		c3.255-5.089,7.527-8.934,13.09-11.558c2.757-1.3,5.767-2.142,8.661-3.19C296.405,81.164,299.232,81.164,302.059,81.164
		 M302.28,79.164h-0.222h-8.481h-0.351l-0.33,0.12c-0.88,0.319-1.797,0.627-2.684,0.925c-2.038,0.685-4.146,1.393-6.149,2.337
		c-5.841,2.756-10.395,6.775-13.922,12.289c-47.56,74.352-95.944,149.932-142.736,223.024
		c-35.777,55.886-71.555,111.772-107.32,167.666c-1.254,1.962-2.207,4.052-3.127,6.074c-0.41,0.9-0.834,1.831-1.271,2.718
		l-0.207,0.418v0.467v7.878v0.291l0.083,0.279c2.276,7.646,7.057,13.355,14.208,16.972l0.425,0.215h0.477h533.348h0.396l0.365-0.15
		c0.444-0.183,0.885-0.372,1.326-0.562c0.938-0.404,1.825-0.785,2.73-1.095c7.284-2.496,12.477-7.283,14.62-13.481
		c1.998-5.775,1.052-12.115-2.663-17.852c-13.59-20.985-27.45-42.297-40.854-62.907c-5.833-8.969-11.667-17.938-17.497-26.91
		c-14.045-21.614-28.094-43.227-42.144-64.839c-49.323-75.877-100.327-154.338-150.311-231.606
		c-5.878-9.088-13.335-19.049-27.494-22.222L302.28,79.164L302.28,79.164z"/>
</g>
<path style="fill:#237ABF;stroke:#000000;stroke-width:2;stroke-miterlimit:10;" d="M17.48,503.079c0-2.626,0-5.253,0-7.878
	c1.417-2.873,2.562-5.897,4.29-8.599c83.338-130.238,166.74-260.44,250.057-390.69c3.255-5.089,7.527-8.934,13.09-11.558
	c2.757-1.3,5.767-2.142,8.661-3.19c2.827,0,5.654,0,8.481,0c12.775,2.862,19.797,11.376,26.252,21.356
	c63.984,98.91,128.262,197.656,192.457,296.448c19.455,29.938,38.945,59.852,58.35,89.814c7.275,11.233,2.344,23.808-10.926,28.354
	c-1.422,0.486-2.781,1.128-4.17,1.699c-177.785,0-355.566,0-533.348,0C23.809,515.365,19.545,510.017,17.48,503.079z"/>
<path style="fill-rule:evenodd;clip-rule:evenodd;fill:#FFFFFF;" d="M298.464,155.66c66.18,103.2,131.87,205.636,198.237,309.128
	c-131.123,0-261.259,0-392.014,0C169.122,361.998,233.587,259.157,298.464,155.66z"/>
<path style="fill:none;stroke:#000000;stroke-width:1.5;stroke-miterlimit:10;" d="M298.464,155.66
	c-64.877,103.497-129.343,206.338-193.777,309.128c130.755,0,260.891,0,392.014,0C430.334,361.296,364.645,258.86,298.464,155.66z"
	/>
<path style="fill:none;stroke:#A7A9AC;stroke-width:11;stroke-miterlimit:10;" d="M210.36,382.419l92.156-0.013l92.157-0.011
	c0,0,0.566-0.113,1.212-0.275c0.649-0.161,1.378-0.373,1.701-0.571c20.171-12.32,15.809-27.799,9.951-37.604
	c-7.985-10.974-21.014-11.322-20.97-12.427c0.777-19.929-8.906-27.953-18.842-31.06c-9.935-3.104-20.123-1.29-20.352-1.542
	c-26.598-29.408-53.2-29.114-73.418-19.155c-20.219,9.96-34.055,29.585-35.123,38.842c-0.056,0.491-2.771,0.679-5.919,0.839
	c-3.149,0.158-6.731,0.288-8.526,0.664c-14.259,2.987-24.06,10.211-29.736,18.798c-5.677,8.585-7.23,18.538-4.997,26.986
	c0.697,2.639,2.418,6.921,5.1,10.464c2.682,3.546,6.326,6.352,10.873,6.04c0.381-0.027,1.564-0.021,2.652-0.01
	C209.368,382.399,210.36,382.419,210.36,382.419z"/>
<rect x="242.278" y="367.805" style="fill:#FFFFFF;" width="107.129" height="21.578"/>
<polygon style="fill:#999999;stroke:#D1D3D4;stroke-miterlimit:10;" points="273.162,365.847 315.991,365.847 292.316,389.754 
	316.684,390.284 241.404,457.334 269.082,399.353 240.912,398.861 "/>
<polygon style="fill:#999999;stroke:#D1D3D4;stroke-miterlimit:10;" points="323.138,390.994 344.876,390.994 332.859,403.129 
	345.228,403.398 307.018,437.431 321.066,408.002 306.768,407.752 "/>
<rect x="287.445" y="264.672" style="fill:#FFFFFF;" width="27.971" height="18.042"/>
<path style="fill-rule:evenodd;clip-rule:evenodd;" d="M300.265,228.537c16.739-0.023,28.077,12.532,25.899,29.747
	c-3.142,24.816-7.003,49.542-10.477,74.319c-2.425,17.301-4.909,34.6-6.925,51.952c-0.484,4.171-1.739,5.506-5.832,5.593
	c-11.593,0.242-11.3,0.356-12.772-10.734c-4.483-33.78-9.22-67.525-13.84-101.288c-0.994-7.269-2.065-14.531-2.826-21.826
	C271.849,240.529,283.471,228.56,300.265,228.537z"/>
<path style="fill-rule:evenodd;clip-rule:evenodd;" d="M299.904,455.465c-12.388,0.025-22.342-9.64-22.629-21.976
	c-0.283-12.176,10.262-22.893,22.549-22.916c12.04-0.021,22.371,10.114,22.613,22.186
	C322.686,445.221,312.544,455.442,299.904,455.465z"/>
</svg>
