<?xml version="1.0" encoding="iso-8859-1"?>
<!-- Generator: Adobe Illustrator 16.0.0, SVG Export Plug-In . SVG Version: 6.00 Build 0)  -->
<!DOCTYPE svg PUBLIC "-//W3C//DTD SVG 1.1//EN" "http://www.w3.org/Graphics/SVG/1.1/DTD/svg11.dtd">
<svg version="1.1" id="Layer_1" xmlns="http://www.w3.org/2000/svg" xmlns:xlink="http://www.w3.org/1999/xlink" x="0px" y="0px"
	 width="600px" height="600px" viewBox="0 0 600 600" style="enable-background:new 0 0 600 600;" xml:space="preserve">
<g style="opacity:0.3;">
	<path style="fill:#FFFFFF;" d="M301.99,81.164c12.775,2.862,19.797,11.376,26.252,21.356
		c63.984,98.91,128.262,197.656,192.457,296.448c19.455,29.938,38.945,59.852,58.35,89.814c7.275,11.233,2.344,23.808-10.926,28.354
		c-1.422,0.486-2.781,1.128-4.17,1.699c-177.785,0-355.566,0-533.348,0c-6.864-3.471-11.128-8.819-13.193-15.757
		c0-2.626,0-5.253,0-7.878c1.417-2.873,2.562-5.897,4.29-8.599c83.338-130.238,166.74-260.44,250.057-390.69
		c3.255-5.089,7.527-8.934,13.09-11.558c2.757-1.3,5.767-2.142,8.661-3.19C296.336,81.164,299.164,81.164,301.99,81.164
		 M302.212,79.164h-0.222h-8.481h-0.351l-0.33,0.12c-0.88,0.319-1.797,0.627-2.684,0.925c-2.038,0.685-4.146,1.393-6.149,2.337
		c-5.841,2.756-10.395,6.775-13.922,12.289c-47.56,74.352-95.944,149.932-142.736,223.024
		C91.56,373.744,55.782,429.631,20.017,485.524c-1.254,1.962-2.207,4.052-3.127,6.074c-0.41,0.9-0.834,1.831-1.271,2.718
		l-0.207,0.418v0.467v7.878v0.291l0.083,0.279c2.276,7.646,7.057,13.355,14.208,16.972l0.425,0.215h0.477h533.348h0.396l0.365-0.15
		c0.444-0.183,0.885-0.372,1.326-0.562c0.938-0.404,1.825-0.785,2.73-1.095c7.284-2.496,12.477-7.283,14.62-13.481
		c1.998-5.775,1.052-12.115-2.663-17.852c-13.59-20.985-27.45-42.297-40.854-62.907c-5.833-8.969-11.667-17.938-17.497-26.91
		c-14.045-21.614-28.094-43.227-42.144-64.839c-49.323-75.877-100.327-154.338-150.311-231.606
		c-5.878-9.088-13.335-19.049-27.494-22.222L302.212,79.164L302.212,79.164z"/>
</g>
<path style="fill:#ED1C24;stroke:#000000;stroke-width:2;stroke-miterlimit:10;" d="M17.412,503.079c0-2.626,0-5.253,0-7.878
	c1.417-2.873,2.562-5.897,4.29-8.599c83.338-130.238,166.74-260.44,250.057-390.69c3.255-5.089,7.527-8.934,13.09-11.558
	c2.757-1.3,5.767-2.142,8.661-3.19c2.827,0,5.654,0,8.481,0c12.775,2.862,19.797,11.376,26.252,21.356
	c63.984,98.91,128.262,197.656,192.457,296.448c19.455,29.938,38.945,59.852,58.35,89.814c7.275,11.233,2.344,23.808-10.926,28.354
	c-1.422,0.486-2.781,1.128-4.17,1.699c-177.785,0-355.566,0-533.348,0C23.741,515.365,19.477,510.017,17.412,503.079z"/>
<path style="fill-rule:evenodd;clip-rule:evenodd;fill:#FFFFFF;" d="M298.396,155.66c66.18,103.2,131.87,205.636,198.237,309.128
	c-131.123,0-261.259,0-392.014,0C169.053,361.998,233.519,259.157,298.396,155.66z"/>
<path style="fill:none;stroke:#000000;stroke-width:1.5;stroke-miterlimit:10;" d="M298.396,155.66
	c-64.877,103.497-129.343,206.338-193.777,309.128c130.755,0,260.891,0,392.014,0C430.266,361.296,364.576,258.86,298.396,155.66z"
	/>
<g>
	<path style="fill:#FFFFFF;" d="M393.417,335.065c-0.21-0.017-0.421-0.034-0.633-0.052c0.156-2.9,0.443-5.804,0.435-8.705
		c-0.01-2.759-0.009-5.593-0.641-8.245c-0.336-1.413-1.887-3.326-3.107-3.501c-1.073-0.154-2.862,1.566-3.59,2.874
		c-0.994,1.789-1.152,4.021-1.893,5.977c-3.828,10.104-10.394,18.489-17.106,26.748c-1.567,1.929-3.59,3.495-5.459,5.167
		c-1.972,1.765-4.593,3.394-6.598,1.204c-1.128-1.23-0.588-4.224-0.36-6.376c0.13-1.221,1.271-2.299,1.738-3.523
		c0.938-2.447,2.284-4.908,2.476-7.439c0.769-10.104,1.493-20.233,1.576-30.358c0.059-7.239-0.771-14.504-1.598-21.712
		c-0.155-1.357-2.005-3.125-3.398-3.505c-0.818-0.223-2.876,1.716-3.33,3.041c-0.929,2.714-0.732,5.83-1.753,8.493
		c-2.334,6.093-4.557,12.355-7.9,17.899c-2.74,4.547-6.906,8.284-10.71,12.113c-1.336,1.345-3.715,2.896-5.178,2.539
		c-1.582-0.385-3.175-2.705-3.797-4.514c-0.639-1.859-0.386-4.169-0.033-6.195c0.742-4.267,1.757-8.488,2.754-12.706
		c0.512-2.162,0.787-4.551,1.926-6.363c4.368-6.951,3.364-14.47,2.729-21.951c-0.102-1.189-1.101-2.337-1.794-3.436
		c-1.33-2.107-2.81-4.122-4.099-6.253c-2.374-3.93-4.463-8.051-7.084-11.803c-0.855-1.223-3.284-2.438-4.479-2.054
		c-1.48,0.476-2.971,2.453-3.458,4.081c-0.579,1.932-0.128,4.184-0.065,6.295c0.275,9.335-3.562,17.078-9.584,23.807
		c-3.688,4.122-6.682,3.507-9.078-1.362c-0.582-1.183-1.143-2.397-1.893-3.472c-4.463-6.394-3.61-13.627-1.829-20.227
		c2.146-7.954,6.594-15.275,8.877-23.207c1.634-5.673,1.5-11.892,1.769-17.884c0.048-1.087-1.657-3.023-2.756-3.184
		c-1.208-0.177-2.851,1.031-3.921,2.041c-0.781,0.737-0.916,2.143-1.385,3.23c-2.494,5.779-4.383,11.936-7.662,17.23
		c-4.205,6.79-9.53,12.886-14.378,19.277c-3.571,4.709-8.044,8.988-10.517,14.214c-3.736,7.896-1.608,16.559,1.954,23.746
		c3.905,7.879,5.388,15.879,5.95,24.295c0.119,1.791-0.851,3.656-1.319,5.487c-2.074-0.561-4.798-0.472-6.119-1.788
		c-9.82-9.784-20.804-18.883-21.724-34.429c-0.114-1.93-2.322-5.209-3.658-5.26c-2.197-0.083-4.658,1.721-6.642,3.215
		c-0.995,0.749-1.51,2.528-1.683,3.911c-1.312,10.568-3.649,21.094-1.367,31.836c1.089,5.126,1.275,10.54,3.032,15.404
		c2.432,6.733,6.016,13.044,8.95,19.607c0.402,0.898,0.189,2.359-0.306,3.244c-0.221,0.396-2.086,0.376-2.785-0.088
		c-3.062-2.028-6.525-3.819-8.828-6.552c-6.93-8.224-13.362-16.866-20.06-25.287c-0.824-1.035-2.078-1.729-3.132-2.58
		c-0.92,1.18-2.432,2.27-2.634,3.562c-0.38,2.429-0.369,5.053,0.137,7.457c1.029,4.896,2.59,9.677,3.763,14.546
		c2.772,11.51,5.467,23.036,8.146,34.567c0.925,3.982,1.911,7.681,4.943,10.938c3.805,4.09,6.759,8.979,10.025,13.562
		c5.515,7.739,11.42,15.083,18.706,21.311c6.986,5.972,13.835,12.139,20.357,18.61c5.007,4.969,10.121,8.272,17.599,9.177
		c13.425,1.621,26.593,0.973,39.81-1.066c1.492-0.229,3.269-0.742,4.262-1.761c7.42-7.603,14.663-15.375,21.989-23.07
		c2.994-3.146,5.789-6.555,9.131-9.282c11.13-9.089,19.383-20.2,24.717-33.521c0.483-1.207,1.266-2.291,1.842-3.465
		c1.494-3.038,3.178-6.01,4.361-9.166c1.381-3.684,2.319-7.534,3.434-11.315c0.632-2.146,1.586-4.267,1.787-6.455
		C392.109,353.472,392.722,344.265,393.417,335.065z"/>
	<path style="fill-rule:evenodd;clip-rule:evenodd;" d="M393.417,335.065c-0.695,9.199-1.308,18.406-2.149,27.592
		c-0.201,2.188-1.155,4.31-1.787,6.455c-1.114,3.781-2.053,7.632-3.434,11.315c-1.184,3.156-2.867,6.128-4.361,9.166
		c-0.576,1.174-1.358,2.258-1.842,3.465c-5.334,13.32-13.587,24.432-24.717,33.521c-3.342,2.728-6.137,6.137-9.131,9.282
		c-7.326,7.695-14.569,15.468-21.989,23.07c-0.993,1.019-2.77,1.531-4.262,1.761c-13.217,2.039-26.385,2.688-39.81,1.066
		c-7.479-0.904-12.592-4.208-17.599-9.177c-6.521-6.472-13.371-12.639-20.357-18.61c-7.286-6.228-13.19-13.571-18.706-21.311
		c-3.266-4.583-6.22-9.472-10.025-13.562c-3.032-3.258-4.018-6.956-4.943-10.938c-2.679-11.531-5.374-23.058-8.146-34.567
		c-1.173-4.869-2.734-9.65-3.763-14.546c-0.506-2.404-0.517-5.028-0.137-7.457c0.202-1.293,1.714-2.383,2.634-3.562
		c1.054,0.851,2.308,1.545,3.132,2.58c6.697,8.421,13.129,17.063,20.06,25.287c2.303,2.732,5.767,4.523,8.828,6.552
		c0.699,0.464,2.564,0.483,2.785,0.088c0.495-0.885,0.708-2.346,0.306-3.244c-2.934-6.563-6.518-12.874-8.95-19.607
		c-1.757-4.864-1.943-10.278-3.032-15.404c-2.282-10.742,0.055-21.268,1.367-31.836c0.172-1.383,0.688-3.163,1.683-3.911
		c1.984-1.494,4.445-3.298,6.642-3.215c1.336,0.051,3.543,3.33,3.658,5.26c0.92,15.546,11.904,24.645,21.724,34.429
		c1.321,1.316,4.044,1.228,6.119,1.788c0.469-1.831,1.438-3.696,1.319-5.487c-0.562-8.416-2.045-16.416-5.95-24.295
		c-3.562-7.188-5.69-15.851-1.954-23.746c2.473-5.227,6.946-9.505,10.517-14.214c4.848-6.391,10.173-12.487,14.378-19.277
		c3.279-5.294,5.168-11.451,7.662-17.23c0.469-1.087,0.604-2.493,1.385-3.23c1.07-1.01,2.713-2.217,3.921-2.041
		c1.099,0.161,2.804,2.097,2.756,3.184c-0.269,5.992-0.135,12.211-1.769,17.884c-2.283,7.932-6.73,15.253-8.877,23.207
		c-1.781,6.599-2.634,13.833,1.829,20.227c0.75,1.075,1.311,2.29,1.893,3.472c2.396,4.869,5.39,5.484,9.078,1.362
		c6.022-6.729,9.859-14.472,9.584-23.807c-0.062-2.111-0.514-4.363,0.065-6.295c0.487-1.628,1.978-3.605,3.458-4.081
		c1.194-0.384,3.623,0.831,4.479,2.054c2.621,3.752,4.71,7.873,7.084,11.803c1.289,2.131,2.769,4.146,4.099,6.253
		c0.693,1.099,1.692,2.246,1.794,3.436c0.635,7.481,1.639,15-2.729,21.951c-1.139,1.812-1.414,4.201-1.926,6.363
		c-0.997,4.218-2.012,8.439-2.754,12.706c-0.353,2.026-0.605,4.336,0.033,6.195c0.622,1.809,2.215,4.129,3.797,4.514
		c1.463,0.356,3.842-1.194,5.178-2.539c3.804-3.829,7.97-7.566,10.71-12.113c3.344-5.544,5.566-11.806,7.9-17.899
		c1.021-2.663,0.824-5.779,1.753-8.493c0.454-1.325,2.512-3.264,3.33-3.041c1.394,0.381,3.243,2.148,3.398,3.505
		c0.827,7.208,1.656,14.473,1.598,21.712c-0.083,10.125-0.808,20.255-1.576,30.358c-0.191,2.531-1.538,4.992-2.476,7.439
		c-0.468,1.225-1.608,2.303-1.738,3.523c-0.228,2.152-0.768,5.146,0.36,6.376c2.005,2.189,4.626,0.561,6.598-1.204
		c1.869-1.672,3.892-3.238,5.459-5.167c6.713-8.259,13.278-16.644,17.106-26.748c0.74-1.956,0.898-4.188,1.893-5.977
		c0.728-1.308,2.517-3.028,3.59-2.874c1.221,0.175,2.771,2.088,3.107,3.501c0.632,2.652,0.631,5.486,0.641,8.245
		c0.009,2.901-0.278,5.805-0.435,8.705C392.996,335.031,393.207,335.049,393.417,335.065z"/>
</g>
</svg>
