<?xml version="1.0" encoding="iso-8859-1"?>
<!-- Generator: Adobe Illustrator 16.0.0, SVG Export Plug-In . SVG Version: 6.00 Build 0)  -->
<!DOCTYPE svg PUBLIC "-//W3C//DTD SVG 1.1//EN" "http://www.w3.org/Graphics/SVG/1.1/DTD/svg11.dtd">
<svg version="1.1" id="Layer_1" xmlns="http://www.w3.org/2000/svg" xmlns:xlink="http://www.w3.org/1999/xlink" x="0px" y="0px"
	 width="600px" height="600px" viewBox="0 0 600 600" style="enable-background:new 0 0 600 600;" xml:space="preserve">
<g style="opacity:0.3;">
	<path style="fill:#FFFFFF;" d="M301.99,81.164c12.775,2.862,19.797,11.376,26.252,21.356
		c63.984,98.91,128.262,197.656,192.457,296.448c19.455,29.938,38.945,59.852,58.35,89.814c7.275,11.233,2.344,23.808-10.926,28.354
		c-1.422,0.486-2.781,1.128-4.17,1.699c-177.785,0-355.566,0-533.348,0c-6.864-3.471-11.128-8.819-13.193-15.757
		c0-2.626,0-5.253,0-7.878c1.417-2.873,2.562-5.897,4.29-8.599c83.338-130.238,166.74-260.44,250.057-390.69
		c3.255-5.089,7.527-8.934,13.09-11.558c2.757-1.3,5.767-2.142,8.661-3.19C296.336,81.164,299.164,81.164,301.99,81.164
		 M302.212,79.164h-0.222h-8.481h-0.351l-0.33,0.12c-0.88,0.319-1.797,0.627-2.684,0.925c-2.038,0.685-4.146,1.393-6.149,2.337
		c-5.841,2.756-10.395,6.775-13.922,12.289c-47.56,74.352-95.944,149.932-142.736,223.024
		C91.56,373.744,55.782,429.631,20.017,485.524c-1.254,1.962-2.207,4.052-3.127,6.074c-0.41,0.9-0.834,1.831-1.271,2.718
		l-0.207,0.418v0.467v7.878v0.291l0.083,0.279c2.276,7.646,7.057,13.355,14.208,16.972l0.425,0.215h0.477h533.348h0.396l0.365-0.15
		c0.444-0.183,0.885-0.372,1.326-0.562c0.938-0.404,1.825-0.785,2.73-1.095c7.284-2.496,12.477-7.283,14.62-13.481
		c1.998-5.775,1.052-12.115-2.663-17.852c-13.59-20.985-27.45-42.297-40.854-62.907c-5.833-8.969-11.667-17.938-17.497-26.91
		c-14.045-21.614-28.094-43.227-42.144-64.839c-49.323-75.877-100.327-154.338-150.311-231.606
		c-5.878-9.088-13.335-19.049-27.494-22.222L302.212,79.164L302.212,79.164z"/>
</g>
<path style="fill:#ED1C24;stroke:#000000;stroke-width:2;stroke-miterlimit:10;" d="M17.412,503.079c0-2.626,0-5.253,0-7.878
	c1.417-2.873,2.562-5.897,4.29-8.599c83.338-130.238,166.74-260.44,250.057-390.69c3.255-5.089,7.527-8.934,13.09-11.558
	c2.757-1.3,5.767-2.142,8.661-3.19c2.827,0,5.654,0,8.481,0c12.775,2.862,19.797,11.376,26.252,21.356
	c63.984,98.91,128.262,197.656,192.457,296.448c19.455,29.938,38.945,59.852,58.35,89.814c7.275,11.233,2.344,23.808-10.926,28.354
	c-1.422,0.486-2.781,1.128-4.17,1.699c-177.785,0-355.566,0-533.348,0C23.741,515.365,19.477,510.017,17.412,503.079z"/>
<path style="fill-rule:evenodd;clip-rule:evenodd;fill:#FFFFFF;" d="M298.396,155.66c66.18,103.2,131.87,205.636,198.237,309.128
	c-131.123,0-261.259,0-392.014,0C169.053,361.998,233.519,259.157,298.396,155.66z"/>
<path style="fill:none;stroke:#000000;stroke-width:1.5;stroke-miterlimit:10;" d="M298.396,155.66
	c-64.877,103.497-129.343,206.338-193.777,309.128c130.755,0,260.891,0,392.014,0C430.266,361.296,364.576,258.86,298.396,155.66z"
	/>
<g id="layer1" inkscape:label="ImageIcon" inkscape:groupmode="layer">
	<g id="layer1-0" transform="translate(-768.48479,-309.46092)" inkscape:label="Prohibit">
	</g>
	<g id="layer2" transform="translate(-768.48479,-309.46092)" inkscape:label="Man">
	</g>
	<g id="layer1-3" transform="translate(-2309.8128,499.39656)" inkscape:label="Prohibit" style="display:none;">
		<path id="path6220" inkscape:connector-curvature="0" style="display:inline;fill:#ED2224;stroke:#E31E26;stroke-width:25;" d="
			M1449.59,116.023l157.301,186.514L1449.59,116.023z"/>
		
			<ellipse id="path6217" style="display:inline;opacity:0.98;fill:none;stroke:#E51E25;stroke-width:20;stroke-linecap:square;stroke-linejoin:bevel;enable-background:new    ;" cx="1523.184" cy="210.966" rx="120.785" ry="118.538"/>
	</g>
	<g id="layer1-1" transform="translate(-769.3654,-308.85071)" inkscape:label="Prohibit" style="display:none;">
		<path id="path6220-2" inkscape:connector-curvature="0" style="display:inline;fill:#ED2224;stroke:#E31E26;stroke-width:25;" d="
			M1449.59,116.024l157.301,186.514L1449.59,116.024z"/>
		
			<ellipse id="path6217-1" style="display:inline;opacity:0.98;fill:none;stroke:#E51E25;stroke-width:20;stroke-linecap:square;stroke-linejoin:bevel;enable-background:new    ;" cx="1523.184" cy="210.966" rx="120.785" ry="118.538"/>
	</g>
</g>
<g id="g19817" transform="matrix(1.1092408,0,0,1.1059522,-4.1260868,-1.8554763)">
	
		<path id="path19807" inkscape:connector-curvature="0" style="fill:#989898;stroke:#FFFFFF;stroke-width:0.0178;stroke-linecap:round;stroke-linejoin:round;" d="
		M220.668,414.364c-3.722-1.681-7.12-6.772-7.125-10.675c-0.007-4.231,8.369-12.457,17.519-17.22
		c5.95-3.091,9.338-4.151,15.86-4.959c5.13-0.637,14.272-3.043,23.984-6.31c8.628-2.907,19-6.057,23.042-7
		c12.777-2.985,15.918-5.338,24.032-17.988c7.31-11.385,9.491-11.647,32.844-3.928c19.369,6.397,24.313,9.382,23.158,13.971
		c-1.114,4.43-16.29,15.806-38.359,28.752c-33.342,19.553-45.892,23.112-68.513,19.398c-13.373-2.193-19.483-1.546-28.478,3.018
		C230.662,415.467,225.122,416.377,220.668,414.364z"/>
	
		<path id="path19815" sodipodi:nodetypes="cscscsssscscssssscc" inkscape:connector-curvature="0" style="fill:#989898;stroke:#FFFFFF;stroke-width:0.0089;stroke-linecap:round;stroke-linejoin:round;" d="
		M283.323,285.492c4.014-2.356,6.277-7.028,5.099-10.535c-0.698-2.079-2.419-3.444-5.109-4.047c-1.1-0.248-3.66-1.206-5.685-2.129
		c-4.449-2.027-5.41-3.431-5.447-7.947c-0.024-2.72,0.252-3.541,3.049-9.072c4.734-9.356,4.39-11.223-3.592-19.564
		c-4.1-4.286-4.631-5.044-4.631-6.61c0-2.43,0.994-4.144,3.931-6.786c5.572-5.008,15.229-7.637,19.906-5.418
		c0.922,0.44,3.084,2.312,4.799,4.164c3.552,3.838,4.217,5.634,4.207,11.315c-0.015,5.933-1.348,10.707-6.146,21.969
		c-2.268,5.326-2.24,9.969,0.078,12.72c0.736,0.88,2.403,1.897,4.158,2.536c3.868,1.409,5.84,3.6,5.84,6.485
		c0,4.783-4.788,10.586-11.458,13.887l-3.717,1.837L283.323,285.492z"/>
	
		<path id="path19805" sodipodi:nodetypes="csssssssscssscccsscsssscsscs" inkscape:connector-curvature="0" style="fill:#010101;" d="
		M265.806,361.263c-1.226-0.2-3.031-0.725-4.011-1.173c-0.982-0.437-5.596-2.061-10.254-3.606
		c-7.882-2.606-25.801-9.159-29.872-10.918c-0.982-0.428-5.356-2.004-9.723-3.501c-10.496-3.612-12.908-5.133-16.366-10.326
		c-4.384-6.582-5.829-12.731-5.397-22.971c0.318-7.472,0.763-9.499,3.238-14.697c3.488-7.32,9.876-15.438,14.287-18.158
		c4.469-2.755,9.711-4.478,11.056-3.637c0.613,0.384,2.922,1.01,5.131,1.385c7.707,1.317,21.893,4.242,27.647,5.695
		c3.187,0.807,8.003,1.864,10.7,2.353c2.698,0.488,5.521,1.225,6.274,1.635c0.754,0.411,3.059,1.038,5.121,1.391l12.77,1.694
		l3.843,3.418c11.25,10.015,12.079,36.077,1.822,57.321C286.28,359.172,278.505,363.343,265.806,361.263z M275.049,355.867
		c11.589-1.936,21.264-29.319,17.498-49.509c-0.94-5.032-1.77-6.84-4.502-9.796c-3.238-3.514-3.558-3.647-9.893-3.958
		c-5.718-0.282-6.946-0.054-9.67,1.81c-7.554,5.152-13.283,19.28-14.04,34.609c-0.584,11.856,1.117,18.322,6.076,23.095
		c3.063,2.946,4.924,3.749,9.747,4.2C270.999,356.387,273.154,356.182,275.049,355.867z"/>
</g>
</svg>
