<?xml version="1.0" encoding="iso-8859-1"?>
<!-- Generator: Adobe Illustrator 16.0.0, SVG Export Plug-In . SVG Version: 6.00 Build 0)  -->
<!DOCTYPE svg PUBLIC "-//W3C//DTD SVG 1.1//EN" "http://www.w3.org/Graphics/SVG/1.1/DTD/svg11.dtd">
<svg version="1.1" id="Layer_1" xmlns="http://www.w3.org/2000/svg" xmlns:xlink="http://www.w3.org/1999/xlink" x="0px" y="0px"
	 width="600px" height="600px" viewBox="0 0 600 600" style="enable-background:new 0 0 600 600;" xml:space="preserve">
<g style="opacity:0.3;">
	<path style="fill:#FFFFFF;" d="M302.059,81.164c12.775,2.862,19.797,11.376,26.252,21.356
		c63.984,98.91,128.262,197.656,192.457,296.448c19.455,29.938,38.945,59.852,58.35,89.814c7.275,11.233,2.344,23.808-10.926,28.354
		c-1.422,0.486-2.781,1.128-4.17,1.699c-177.785,0-355.566,0-533.348,0c-6.864-3.471-11.128-8.819-13.193-15.757
		c0-2.626,0-5.253,0-7.878c1.417-2.873,2.562-5.897,4.29-8.599c83.338-130.238,166.74-260.44,250.057-390.69
		c3.255-5.089,7.527-8.934,13.09-11.558c2.757-1.3,5.767-2.142,8.661-3.19C296.405,81.164,299.232,81.164,302.059,81.164
		 M302.28,79.164h-0.222h-8.481h-0.351l-0.33,0.12c-0.88,0.319-1.797,0.627-2.684,0.925c-2.038,0.685-4.146,1.393-6.149,2.337
		c-5.841,2.756-10.395,6.775-13.922,12.289c-47.56,74.352-95.944,149.932-142.736,223.024
		c-35.777,55.886-71.555,111.772-107.32,167.666c-1.254,1.962-2.207,4.052-3.127,6.074c-0.41,0.9-0.834,1.831-1.271,2.718
		l-0.207,0.418v0.467v7.878v0.291l0.083,0.279c2.276,7.646,7.057,13.355,14.208,16.972l0.425,0.215h0.477h533.348h0.396l0.365-0.15
		c0.444-0.183,0.885-0.372,1.326-0.562c0.938-0.404,1.825-0.785,2.73-1.095c7.284-2.496,12.477-7.283,14.62-13.481
		c1.998-5.775,1.052-12.115-2.663-17.852c-13.59-20.985-27.45-42.297-40.854-62.907c-5.833-8.969-11.667-17.938-17.497-26.91
		c-14.045-21.614-28.094-43.227-42.144-64.839c-49.323-75.877-100.327-154.338-150.311-231.606
		c-5.878-9.088-13.335-19.049-27.494-22.222L302.28,79.164L302.28,79.164z"/>
</g>
<path style="fill:#237ABF;stroke:#000000;stroke-width:2;stroke-miterlimit:10;" d="M17.48,503.079c0-2.626,0-5.253,0-7.878
	c1.417-2.873,2.562-5.897,4.29-8.599c83.338-130.238,166.74-260.44,250.057-390.69c3.255-5.089,7.527-8.934,13.09-11.558
	c2.757-1.3,5.767-2.142,8.661-3.19c2.827,0,5.654,0,8.481,0c12.775,2.862,19.797,11.376,26.252,21.356
	c63.984,98.91,128.262,197.656,192.457,296.448c19.455,29.938,38.945,59.852,58.35,89.814c7.275,11.233,2.344,23.808-10.926,28.354
	c-1.422,0.486-2.781,1.128-4.17,1.699c-177.785,0-355.566,0-533.348,0C23.809,515.365,19.545,510.017,17.48,503.079z"/>
<path style="fill-rule:evenodd;clip-rule:evenodd;fill:#FFFFFF;" d="M298.464,155.66c66.18,103.2,131.87,205.636,198.237,309.128
	c-131.123,0-261.259,0-392.014,0C169.122,361.998,233.587,259.157,298.464,155.66z"/>
<path style="fill:none;stroke:#000000;stroke-width:1.5;stroke-miterlimit:10;" d="M298.464,155.66
	c-64.877,103.497-129.343,206.338-193.777,309.128c130.755,0,260.891,0,392.014,0C430.334,361.296,364.645,258.86,298.464,155.66z"
	/>
<g>
	<path style="fill-rule:evenodd;clip-rule:evenodd;fill:#FFFFFF;" d="M373.919,393.078c0.222-0.031,0.445-0.063,0.667-0.096
		c-0.73-3.678-1.03-7.512-2.29-10.999c-2.068-5.724-4.85-11.183-7.176-16.821c-4.1-9.941-8.438-19.812-11.874-29.985
		c-0.897-2.654,1.168-6.307,1.87-9.502c2.96,0.762,6.88,0.579,8.714,2.446c8.595,8.734,20.104,10.93,30.877,14.745
		c4.714,1.669,10.078-1.16,11.077-5.169c1.001-4.008-1.353-6.974-7.622-7.422c-11.958-0.854-19.836-7.719-26.157-16.792
		c-7.066-10.144-13.169-20.931-24.12-27.798c-4.146-2.601-3.275-6.884-0.825-10.532c5.58-8.304,5.197-13.213-1.796-20.226
		c-5.861-5.879-10.933-6.841-16.158-3.06c-7.706,5.572-9.012,10.349-5.041,18.492c0.558,1.137,1.337,2.194,1.709,3.383
		c1.33,4.267,0.55,8.024-3.772,9.981c-6.57,2.975-11.185,7.726-15.806,13.282c-10.855,13.039-15.164,29.271-23.209,43.616
		c-2.785,4.967-6.281,10.241-10.835,13.359c-9.587,6.569-21.212,7.518-32.513,8.125c-8.504,0.458-11.639-4.69-8.563-12.717
		c2.156-5.621-0.031-10.85-5.986-14.313c-4.004-2.326-9.791-1.354-12.852,2.162c-3.295,3.787-2.819,10.287,1.083,14.81
		c5.131,5.945,4.883,12.079-1.735,16.638c-12.458,8.583-20.153,21.364-29.818,32.408c-2.242,2.562-3.432,5.896-0.063,7.885
		c2.867,1.689,6.023,0.791,8.333-2.563c3.666-5.327,7.902-10.259,11.816-15.418c2.822-3.723,6.791-6.92,10.913-4.714
		c2.273,1.216,2.882,6.363,3.379,9.859c0.555,3.899-0.604,8.122,0.324,11.87c1.165,4.702,2.459,10.663,5.855,13.29
		c11.557,8.939,18.589,20.9,25.327,33.268c2.996,5.497,6.77,7.688,12.28,6.458c1.743-0.391,4.364-1.548,4.607-2.754
		c0.3-1.487-1.002-4.139-2.403-4.995c-10.2-6.247-12.476-18.22-19.532-26.732c-1.756-2.118-1.252-6.108-1.787-9.241
		c3.224,1.162,7.512,1.395,9.483,3.652c7.308,8.37,14.377,17.063,20.497,26.322c3.826,5.787,8.506,8.112,14.812,7.744
		c1.977-0.119,3.855-1.926,5.778-2.957c-1.374-1.505-2.642-3.128-4.142-4.491c-4.338-3.943-10.138-7.004-12.895-11.822
		c-6.811-11.905-15.143-22.444-25.249-31.431c-7.259-6.458-8.841-14.398-9.131-23.218c-0.157-4.756,2.199-8.208,6.438-9.558
		c12.64-4.025,25.386-7.719,38.158-11.314c3.469-0.978,6.23-1.91,7.527-5.887c2.166-6.646,4.482-13.333,7.688-19.509
		c1.976-3.808,5.262-7.344,8.782-9.838c4.037-2.86,7.246-0.73,7.523,4.326c0.451,8.27,0.627,16.555,1.119,24.822
		c0.291,4.85,1.756,9.75,1.336,14.506c-1.931,21.884-4.375,43.647-15.818,63.281c-1.667,2.858-1.913,8.764-0.073,10.993
		c4.019,4.868,9.633,8.529,14.983,12.106c1.327,0.888,4.124-0.419,6.248-0.714c-0.412-1.759-0.356-3.845-1.315-5.223
		c-6.481-9.303-6.156-14.476-0.731-24.322c4.278-7.768,7.348-16.264,10.349-24.656c2.776-7.77,4.634-15.864,7.118-23.745
		c1.39-4.407,5.733-5.84,8.137-2.676c1.924,2.528,3.901,5.584,4.303,8.61c2.24,16.921,4.173,33.888,5.847,50.874
		c0.579,5.855,1.425,11.945,7.303,13.908c6.894,2.304,14.374,1.313,20.705-2.687c3.458-2.186,2.62-5.335-1.298-6.768
		c-1.171-0.428-2.459-0.544-3.692-0.802c-6.491-1.358-8.639-3.719-8.399-10.335C372.609,415.355,373.331,404.219,373.919,393.078z
		 M292.218,242.237c-0.076,3.981,2.075,4.87,5.474,4.812c3.297-0.056,6.038-0.121,6.115-4.708
		c0.229-13.711,0.688-27.418,1.191-41.122c0.197-5.347-3.568-5.121-6.957-5.103c-3.312,0.019-7.162-0.486-6.964,5 M305.133,259.882
		c0.024-5.332-1.916-7.465-6.869-7.556c-5.365-0.099-7.326,1.948-7.277,7.597c0.045,5.308,2.052,7.413,7.056,7.397
		C303.004,267.306,305.107,265.098,305.133,259.882z"/>
	<path style="fill-rule:evenodd;clip-rule:evenodd;" d="M373.919,393.078c-0.588,11.141-1.31,22.277-1.713,33.423
		c-0.239,6.616,1.908,8.977,8.399,10.335c1.233,0.258,2.521,0.374,3.692,0.802c3.918,1.433,4.756,4.582,1.298,6.768
		c-6.331,4-13.812,4.99-20.705,2.687c-5.878-1.963-6.724-8.053-7.303-13.908c-1.674-16.986-3.606-33.953-5.847-50.874
		c-0.401-3.026-2.379-6.082-4.303-8.61c-2.403-3.164-6.747-1.731-8.137,2.676c-2.484,7.881-4.342,15.976-7.118,23.745
		c-3.001,8.393-6.07,16.889-10.349,24.656c-5.425,9.847-5.75,15.02,0.731,24.322c0.959,1.378,0.903,3.464,1.315,5.223
		c-2.124,0.295-4.921,1.602-6.248,0.714c-5.351-3.577-10.965-7.238-14.983-12.106c-1.84-2.229-1.594-8.135,0.073-10.993
		c11.443-19.634,13.888-41.397,15.818-63.281c0.42-4.756-1.045-9.656-1.336-14.506c-0.492-8.268-0.668-16.553-1.119-24.822
		c-0.277-5.057-3.486-7.187-7.523-4.326c-3.521,2.494-6.807,6.03-8.782,9.838c-3.205,6.176-5.521,12.863-7.688,19.509
		c-1.297,3.977-4.059,4.909-7.527,5.887c-12.771,3.596-25.518,7.289-38.158,11.314c-4.239,1.35-6.595,4.802-6.438,9.558
		c0.291,8.819,1.872,16.76,9.131,23.218c10.106,8.986,18.438,19.525,25.249,31.431c2.757,4.818,8.557,7.879,12.895,11.822
		c1.5,1.363,2.768,2.986,4.142,4.491c-1.923,1.031-3.802,2.838-5.778,2.957c-6.307,0.368-10.986-1.957-14.812-7.744
		c-6.12-9.259-13.188-17.952-20.497-26.322c-1.971-2.258-6.259-2.49-9.483-3.652c0.535,3.133,0.031,7.123,1.787,9.241
		c7.056,8.513,9.332,20.485,19.532,26.732c1.401,0.856,2.704,3.508,2.403,4.995c-0.244,1.206-2.865,2.363-4.607,2.754
		c-5.51,1.23-9.284-0.961-12.28-6.458c-6.738-12.367-13.771-24.328-25.327-33.268c-3.396-2.627-4.691-8.588-5.855-13.29
		c-0.928-3.748,0.23-7.971-0.324-11.87c-0.498-3.496-1.106-8.644-3.379-9.859c-4.123-2.206-8.091,0.991-10.913,4.714
		c-3.915,5.159-8.15,10.091-11.816,15.418c-2.31,3.354-5.465,4.253-8.333,2.563c-3.369-1.988-2.179-5.323,0.063-7.885
		c9.665-11.044,17.361-23.825,29.818-32.408c6.618-4.559,6.866-10.692,1.735-16.638c-3.903-4.522-4.378-11.022-1.083-14.81
		c3.061-3.516,8.848-4.488,12.852-2.162c5.955,3.464,8.142,8.692,5.986,14.313c-3.075,8.026,0.059,13.175,8.563,12.717
		c11.301-0.607,22.926-1.556,32.513-8.125c4.554-3.118,8.05-8.393,10.835-13.359c8.045-14.345,12.354-30.577,23.209-43.616
		c4.621-5.556,9.235-10.307,15.806-13.282c4.322-1.957,5.103-5.714,3.772-9.981c-0.372-1.189-1.151-2.246-1.709-3.383
		c-3.971-8.143-2.665-12.92,5.041-18.492c5.226-3.781,10.297-2.82,16.158,3.06c6.993,7.013,7.376,11.922,1.796,20.226
		c-2.45,3.648-3.321,7.932,0.825,10.532c10.951,6.867,17.054,17.655,24.12,27.798c6.321,9.073,14.199,15.938,26.157,16.792
		c6.27,0.448,8.623,3.414,7.622,7.422c-0.999,4.009-6.363,6.838-11.077,5.169c-10.773-3.815-22.282-6.011-30.877-14.745
		c-1.834-1.867-5.754-1.685-8.714-2.446c-0.702,3.195-2.768,6.848-1.87,9.502c3.436,10.173,7.774,20.044,11.874,29.985
		c2.326,5.639,5.107,11.098,7.176,16.821c1.26,3.487,1.56,7.321,2.29,10.999C374.364,393.015,374.141,393.047,373.919,393.078z"/>
	<path style="fill-rule:evenodd;clip-rule:evenodd;" d="M291.077,201.116c-0.198-5.486,3.651-4.981,6.964-5
		c3.389-0.018,7.154-0.244,6.957,5.103c-0.504,13.704-0.963,27.411-1.191,41.122c-0.077,4.587-2.818,4.652-6.115,4.708
		c-3.398,0.058-5.55-0.831-5.474-4.812L291.077,201.116z"/>
	<path style="fill-rule:evenodd;clip-rule:evenodd;" d="M305.133,259.882c-0.025,5.215-2.129,7.424-7.091,7.438
		c-5.004,0.016-7.011-2.089-7.056-7.397c-0.049-5.649,1.912-7.696,7.277-7.597C303.217,252.417,305.157,254.551,305.133,259.882z"/>
</g>
</svg>
