<?xml version="1.0" encoding="iso-8859-1"?>
<!-- Generator: Adobe Illustrator 16.0.0, SVG Export Plug-In . SVG Version: 6.00 Build 0)  -->
<!DOCTYPE svg PUBLIC "-//W3C//DTD SVG 1.1//EN" "http://www.w3.org/Graphics/SVG/1.1/DTD/svg11.dtd">
<svg version="1.1" id="Layer_1" xmlns="http://www.w3.org/2000/svg" xmlns:xlink="http://www.w3.org/1999/xlink" x="0px" y="0px"
	 width="600px" height="600px" viewBox="0 0 600 600" style="enable-background:new 0 0 600 600;" xml:space="preserve">
<g style="opacity:0.3;">
	<path style="fill:#FFFFFF;" d="M301.99,81.164c12.775,2.862,19.797,11.376,26.252,21.356
		c63.984,98.91,128.262,197.656,192.457,296.448c19.455,29.938,38.945,59.852,58.35,89.814c7.275,11.233,2.344,23.808-10.926,28.354
		c-1.422,0.486-2.781,1.128-4.17,1.699c-177.785,0-355.566,0-533.348,0c-6.864-3.471-11.128-8.819-13.193-15.757
		c0-2.626,0-5.253,0-7.878c1.417-2.873,2.562-5.897,4.29-8.599c83.338-130.238,166.74-260.44,250.057-390.69
		c3.255-5.089,7.527-8.934,13.09-11.558c2.757-1.3,5.767-2.142,8.661-3.19C296.336,81.164,299.164,81.164,301.99,81.164
		 M302.212,79.164h-0.222h-8.481h-0.351l-0.33,0.12c-0.88,0.319-1.797,0.627-2.684,0.925c-2.038,0.685-4.146,1.393-6.149,2.337
		c-5.841,2.756-10.395,6.775-13.922,12.289c-47.56,74.352-95.944,149.932-142.736,223.024
		C91.56,373.744,55.782,429.631,20.017,485.524c-1.254,1.962-2.207,4.052-3.127,6.074c-0.41,0.9-0.834,1.831-1.271,2.718
		l-0.207,0.418v0.467v7.878v0.291l0.083,0.279c2.276,7.646,7.057,13.355,14.208,16.972l0.425,0.215h0.477h533.348h0.396l0.365-0.15
		c0.444-0.183,0.885-0.372,1.326-0.562c0.938-0.404,1.825-0.785,2.73-1.095c7.284-2.496,12.477-7.283,14.62-13.481
		c1.998-5.775,1.052-12.115-2.663-17.852c-13.59-20.985-27.45-42.297-40.854-62.907c-5.833-8.969-11.667-17.938-17.497-26.91
		c-14.045-21.614-28.094-43.227-42.144-64.839c-49.323-75.877-100.327-154.338-150.311-231.606
		c-5.878-9.088-13.335-19.049-27.494-22.222L302.212,79.164L302.212,79.164z"/>
</g>
<path style="fill:#ED1C24;stroke:#000000;stroke-width:2;stroke-miterlimit:10;" d="M17.412,503.079c0-2.626,0-5.253,0-7.878
	c1.417-2.873,2.562-5.897,4.29-8.599c83.338-130.238,166.74-260.44,250.057-390.69c3.255-5.089,7.527-8.934,13.09-11.558
	c2.757-1.3,5.767-2.142,8.661-3.19c2.827,0,5.654,0,8.481,0c12.775,2.862,19.797,11.376,26.252,21.356
	c63.984,98.91,128.262,197.656,192.457,296.448c19.455,29.938,38.945,59.852,58.35,89.814c7.275,11.233,2.344,23.808-10.926,28.354
	c-1.422,0.486-2.781,1.128-4.17,1.699c-177.785,0-355.566,0-533.348,0C23.741,515.365,19.477,510.017,17.412,503.079z"/>
<path style="fill-rule:evenodd;clip-rule:evenodd;fill:#FFFFFF;" d="M298.396,155.66c66.18,103.2,131.87,205.636,198.237,309.128
	c-131.123,0-261.259,0-392.014,0C169.053,361.998,233.519,259.157,298.396,155.66z"/>
<path style="fill:none;stroke:#000000;stroke-width:1.5;stroke-miterlimit:10;" d="M298.396,155.66
	c-64.877,103.497-129.343,206.338-193.777,309.128c130.755,0,260.891,0,392.014,0C430.266,361.296,364.576,258.86,298.396,155.66z"
	/>
<g>
	<path style="fill-rule:evenodd;clip-rule:evenodd;fill:#FFFFFF;" d="M369.832,416.081c-13.521-14.547-26.995-29.14-40.624-43.586
		c-1.147-1.216-3.687-2.477-4.95-2.011c-9.55,3.518-18.5,1.762-25.848-4.351c-7.548-6.279-13.835-14.062-20.813-21.048
		c-1.667-1.668-3.708-3.396-5.889-4.043c-6.905-2.045-12.594-5.697-17.083-11.268c-5.7-7.074-9.054-15.309-9.947-24.184
		c-0.927-9.209-0.894-18.538-0.848-27.811c0.015-3.135-0.771-4.637-3.804-5.271c-2.909-0.607-5.744-1.569-8.167-2.25
		 M350.645,265.816c-2.413,0.191-4.578,0.419-6.748,0.522c-3.638,0.172-7.352,0.726-10.891,0.187
		c-1.675-0.256-3.021-2.67-4.517-4.107c1.509-1.427,2.798-3.282,4.571-4.198c4.471-2.311,8.818-0.681,13.162,0.968
		c1.026,0.39,2.597-0.161,3.685-0.727c0.331-0.173,0.257-2.383-0.264-2.74c-4.683-3.212-3.26-5.644,0.743-7.975
		c0.662-0.386,1.312-0.981,1.677-1.64c0.482-0.874,0.679-1.905,0.997-2.868c-1.119-0.246-2.24-0.683-3.359-0.678
		c-0.894,0.005-1.887,0.389-2.659,0.882c-3.697,2.354-6.038,1.909-6.921-2.829c-0.163-0.874-1.496-1.893-2.456-2.111
		c-0.544-0.124-1.678,1.12-2.097,1.969c-0.536,1.092-0.868,2.407-0.858,3.623c0.035,4.771-2.95,7.498-6.585,9.582
		c-1.144,0.655-3.348,0.812-4.275,0.125c-0.978-0.723-1.505-2.777-1.363-4.16c0.496-4.826,3.078-8.373,7.217-11.008
		c1.005-0.64,1.188-2.568,1.75-3.904c-1.269-0.316-2.779-1.24-3.764-0.846c-4.808,1.92-5.606-0.733-5.545-4.498
		c0.042-2.578-0.327-4.721-4.359-4.875c-0.389,2.154-0.898,4.348-1.157,6.571c-0.322,2.767-1.465,3.836-4.413,3.261
		c-1.57-0.307-3.335,0.382-5.012,0.623c0.941,1.46,1.55,3.479,2.887,4.277c4.04,2.414,5.866,6.032,6.396,10.378
		c0.165,1.359-0.39,3.582-1.336,4.104c-1.203,0.666-3.412,0.513-4.708-0.182c-3.803-2.04-5.914-5.317-6.391-9.801
		c-0.232-2.18-1.513-4.249-2.578-7.051c-1.456,1.584-2.381,2.117-2.432,2.72c-0.515,6.292-3.678,6.106-8.287,3.838
		c-1.369-0.673-3.407,0.013-5.139,0.077c-0.069,0.573-0.139,1.145-0.208,1.718c2.266,1.891,5.63,3.408,6.447,5.794
		c0.631,1.851-1.921,4.79-3.659,8.542c2.439-0.23,4.659,0.092,6.356-0.702c4.913-2.298,9.521-1.746,13.956,0.835
		c2.892,1.684,2.982,3.938,0.104,5.853c-3.893,2.589-8.045,3.292-12.549,1.534c-1.573-0.614-3.318-0.99-4.998-1.043
		c-0.869-0.028-2.02,0.714-2.543,1.458c-0.243,0.348,0.49,1.902,1.143,2.275c5.338,3.046,2.8,5.135-0.73,7.227
		c-0.666,0.396-1.357,0.918-1.754,1.558c-0.611,0.983-0.978,2.119-1.448,3.189c1.273,0.306,2.656,1.084,3.796,0.819
		c2.397-0.556,4.668-1.661,7.246-2.637c1.297,2.717,2.479,5.192,3.658,7.668c0.525-0.007,1.049-0.016,1.572-0.024
		c0.726-1.893,1.39-3.814,2.191-5.674c1.271-2.944,2.137-6.269,4.133-8.62c1.314-1.55,4.31-1.673,6.552-2.435
		c0.453,2.296,1.924,5.052,1.139,6.789c-1.463,3.233-4.281,5.843-6.449,8.775c-0.876,1.186-1.525,2.539-2.278,3.816
		c1.423,0.351,3.078,1.35,4.229,0.939c4.553-1.63,4.943,0.767,5.316,4.334c0.166,1.588,1.997,3.002,3.072,4.496
		c0.758-1.482,1.883-2.893,2.194-4.464c0.614-3.104,0.603-6.254,5.397-4.491c1.303,0.48,3.127-0.458,4.712-0.744
		c-0.85-1.365-1.392-3.182-2.607-4.007c-3.706-2.518-6.559-5.522-6.845-10.145c-0.104-1.692,0.182-4.26,1.243-4.941
		c1.138-0.729,3.685-0.192,5.115,0.646c4.274,2.504,5.757,6.749,6.43,11.475c0.171,1.203,1.558,2.233,2.387,3.342
		c0.934-0.92,2.577-1.765,2.683-2.771c0.533-5.071,3.098-4.104,6.157-2.448c0.816,0.442,1.775,0.871,2.667,0.867
		c1.246-0.005,2.49-0.421,3.735-0.661c-0.456-1.224-0.573-2.806-1.426-3.611c-4.921-4.654-4.975-4.588-1.373-9.724
		C350.533,267.913,350.46,267.53,350.645,265.816z M251.069,282.743c1.224,10.061,2.036,19.126,3.496,28.087
		c1.528,9.377,6.625,16.604,14.968,21.331c7.908,4.479,14.645,10.241,20.529,17.199c6.045,7.149,13.766,11.949,22.947,14.216
		c5.896,1.457,7.163,0.348,6.354-5.618c-0.104-0.777-0.21-1.585-0.501-2.303c-4.388-10.81-10.456-20.646-21.669-25.04
		c-11.962-4.688-20.385-12.168-24.889-24.16c-0.716-1.905-2.013-3.593-2.736-5.497C266.432,292.694,260.441,287.252,251.069,282.743
		z M371.914,369.84c-3.725-3.308-6.378-5.449-8.784-7.84c-7.503-7.459-14.946-14.98-22.351-22.539
		c-8.348-8.52-16.734-17.007-24.859-25.737c-2.018-2.167-3.219-4.358-6.319-1.655c-3.62,3.155-4.093,5.479-1.175,8.395
		c8.307,8.296,16.704,16.5,25.01,24.797c9.715,9.702,19.379,19.454,29.033,29.217c0.793,0.803,1.334,1.856,2.428,3.414
		c-2.814,0-4.846-0.006-6.876,0.001c-6.282,0.021-7.017,1.055-5.061,7.556c7.609,0,15.323,0.148,23.019-0.154
		c1.204-0.048,3.29-2.114,3.333-3.306c0.291-8.189,0.337-16.405-0.061-24.586c-0.061-1.235-2.72-2.682-4.438-3.286
		c-0.499-0.175-2.614,2.158-2.763,3.48C371.651,361.143,371.914,364.765,371.914,369.84z"/>
	<path style="fill-rule:evenodd;clip-rule:evenodd;" d="M114.25,459.895c0,0,24.104-39.326,52-83.145
		c41.385-68.126,65.26-106.129,65.609-106.49c1.211,0.341,2.525,0.751,3.901,1.153c1.375,0.402,2.811,0.794,4.266,1.098
		c1.516,0.317,2.471,0.851,3.045,1.697c0.574,0.847,0.766,2.006,0.759,3.574c-0.023,4.637-0.042,9.287,0.06,13.93
		s0.325,9.277,0.789,13.881c0.446,4.438,1.508,8.715,3.171,12.768c1.663,4.052,3.927,7.879,6.776,11.416
		c2.244,2.785,4.789,5.091,7.636,6.956c2.846,1.864,5.995,3.289,9.447,4.312c1.091,0.323,2.146,0.917,3.137,1.639
		c0.991,0.721,1.918,1.57,2.752,2.404c3.489,3.493,6.806,7.186,10.193,10.789s6.847,7.119,10.62,10.259
		c3.674,3.056,7.748,5.023,12.098,5.786c4.35,0.764,8.975,0.323,13.75-1.436c0.632-0.232,1.582-0.034,2.519,0.375
		c0.937,0.408,1.858,1.027,2.432,1.636c6.814,7.224,13.59,14.483,20.353,21.755c6.762,7.272,13.511,14.558,20.271,21.831
		c12.092,13.007,15.892,16.95,19.945,21.147c4.055,4.197,8.363,8.647,21.473,22.666H114.25z"/>
	<path style="fill-rule:evenodd;clip-rule:evenodd;" d="M350.645,265.816c-0.185,1.714-0.111,2.096-0.267,2.317
		c-3.602,5.135-3.548,5.07,1.373,9.724c0.853,0.805,0.97,2.388,1.426,3.611c-1.245,0.24-2.489,0.656-3.735,0.661
		c-0.892,0.003-1.851-0.425-2.667-0.867c-3.06-1.656-5.624-2.623-6.157,2.448c-0.105,1.006-1.749,1.851-2.683,2.771
		c-0.829-1.109-2.216-2.139-2.387-3.342c-0.673-4.726-2.155-8.971-6.43-11.475c-1.431-0.838-3.978-1.375-5.115-0.646
		c-1.062,0.681-1.348,3.249-1.243,4.941c0.286,4.623,3.139,7.627,6.845,10.145c1.216,0.826,1.758,2.643,2.607,4.007
		c-1.585,0.286-3.409,1.224-4.712,0.744c-4.795-1.763-4.783,1.387-5.397,4.491c-0.312,1.571-1.437,2.981-2.194,4.464
		c-1.075-1.493-2.906-2.908-3.072-4.496c-0.373-3.567-0.764-5.964-5.316-4.334c-1.15,0.411-2.806-0.588-4.229-0.939
		c0.753-1.277,1.402-2.63,2.278-3.816c2.168-2.933,4.986-5.542,6.449-8.775c0.785-1.737-0.686-4.493-1.139-6.789
		c-2.242,0.762-5.237,0.885-6.552,2.435c-1.996,2.352-2.862,5.676-4.133,8.62c-0.802,1.86-1.466,3.781-2.191,5.674
		c-0.523,0.008-1.047,0.017-1.572,0.024c-1.18-2.476-2.361-4.951-3.658-7.668c-2.578,0.976-4.849,2.081-7.246,2.637
		c-1.14,0.266-2.523-0.513-3.796-0.819c0.471-1.07,0.837-2.206,1.448-3.189c0.397-0.64,1.088-1.163,1.754-1.558
		c3.53-2.092,6.068-4.181,0.73-7.227c-0.652-0.373-1.386-1.927-1.143-2.275c0.523-0.745,1.674-1.486,2.543-1.458
		c1.68,0.053,3.425,0.429,4.998,1.043c4.504,1.759,8.656,1.055,12.549-1.534c2.878-1.915,2.787-4.168-0.104-5.853
		c-4.435-2.581-9.043-3.133-13.956-0.835c-1.697,0.794-3.917,0.472-6.356,0.702c1.738-3.752,4.29-6.692,3.659-8.542
		c-0.816-2.387-4.181-3.903-6.447-5.794c0.07-0.573,0.139-1.146,0.208-1.718c1.731-0.064,3.77-0.75,5.139-0.077
		c4.609,2.268,7.772,2.455,8.287-3.838c0.051-0.604,0.976-1.136,2.432-2.72c1.065,2.802,2.346,4.871,2.578,7.051
		c0.477,4.484,2.588,7.761,6.391,9.801c1.296,0.695,3.505,0.848,4.708,0.182c0.946-0.522,1.501-2.745,1.336-4.104
		c-0.529-4.346-2.355-7.965-6.396-10.378c-1.337-0.798-1.945-2.817-2.887-4.277c1.677-0.241,3.441-0.93,5.012-0.623
		c2.948,0.575,4.091-0.495,4.413-3.261c0.259-2.223,0.769-4.417,1.157-6.571c4.032,0.154,4.401,2.297,4.359,4.875
		c-0.062,3.765,0.737,6.418,5.545,4.498c0.984-0.394,2.495,0.53,3.764,0.846c-0.562,1.336-0.745,3.265-1.75,3.904
		c-4.139,2.635-6.721,6.183-7.217,11.008c-0.142,1.383,0.386,3.437,1.363,4.16c0.928,0.686,3.132,0.53,4.275-0.125
		c3.635-2.083,6.62-4.811,6.585-9.582c-0.01-1.215,0.322-2.531,0.858-3.623c0.419-0.849,1.553-2.093,2.097-1.969
		c0.96,0.218,2.293,1.238,2.456,2.111c0.883,4.738,3.224,5.183,6.921,2.829c0.772-0.493,1.766-0.877,2.659-0.882
		c1.119-0.005,2.24,0.432,3.359,0.678c-0.318,0.963-0.515,1.995-0.997,2.868c-0.365,0.659-1.015,1.254-1.677,1.64
		c-4.003,2.331-5.426,4.763-0.743,7.975c0.521,0.357,0.595,2.567,0.264,2.74c-1.088,0.566-2.658,1.117-3.685,0.727
		c-4.344-1.649-8.691-3.278-13.162-0.968c-1.773,0.916-3.062,2.771-4.571,4.198c1.495,1.437,2.842,3.851,4.517,4.107
		c3.539,0.54,7.253-0.015,10.891-0.187C346.066,266.236,348.231,266.008,350.645,265.816z"/>
	<path style="fill-rule:evenodd;clip-rule:evenodd;" d="M251.069,282.743c9.372,4.509,15.362,9.952,18.5,18.215
		c0.723,1.904,2.02,3.592,2.736,5.497c4.503,11.992,12.926,19.473,24.889,24.16c11.213,4.395,17.281,14.23,21.669,25.04
		c0.291,0.718,0.396,1.525,0.501,2.303c0.809,5.966-0.458,7.075-6.354,5.618c-9.182-2.267-16.902-7.066-22.947-14.216
		c-5.884-6.958-12.622-12.72-20.529-17.199c-8.343-4.728-13.44-11.954-14.968-21.331
		C253.105,301.869,252.293,292.804,251.069,282.743z"/>
	<path style="fill-rule:evenodd;clip-rule:evenodd;" d="M371.914,369.84c0-5.075-0.263-8.697,0.137-12.244
		c0.148-1.322,2.264-3.655,2.763-3.48c1.718,0.604,4.377,2.051,4.438,3.286c0.397,8.181,0.352,16.396,0.061,24.586
		c-0.043,1.191-2.129,3.258-3.333,3.306c-7.695,0.303-15.409,0.154-23.019,0.154c-1.956-6.501-1.222-7.535,5.061-7.556
		c2.03-0.007,4.062-0.001,6.876-0.001c-1.094-1.558-1.635-2.611-2.428-3.414c-9.654-9.763-19.318-19.515-29.033-29.217
		c-8.306-8.297-16.703-16.501-25.01-24.797c-2.918-2.916-2.445-5.239,1.175-8.395c3.101-2.703,4.302-0.512,6.319,1.655
		c8.125,8.73,16.512,17.218,24.859,25.737c7.404,7.559,14.848,15.08,22.351,22.539C365.536,364.391,368.189,366.532,371.914,369.84z
		"/>
</g>
</svg>
