<?xml version="1.0" encoding="iso-8859-1"?>
<!-- Generator: Adobe Illustrator 16.0.0, SVG Export Plug-In . SVG Version: 6.00 Build 0)  -->
<!DOCTYPE svg PUBLIC "-//W3C//DTD SVG 1.1//EN" "http://www.w3.org/Graphics/SVG/1.1/DTD/svg11.dtd">
<svg version="1.1" id="Layer_1" xmlns="http://www.w3.org/2000/svg" xmlns:xlink="http://www.w3.org/1999/xlink" x="0px" y="0px"
	 width="600px" height="600px" viewBox="0 0 600 600" style="enable-background:new 0 0 600 600;" xml:space="preserve">
<g style="opacity:0.3;">
	<path style="fill:#FFFFFF;" d="M302.059,81.164c12.775,2.862,19.797,11.376,26.252,21.356
		c63.984,98.91,128.262,197.656,192.457,296.448c19.455,29.938,38.945,59.852,58.35,89.814c7.275,11.233,2.344,23.808-10.926,28.354
		c-1.422,0.486-2.781,1.128-4.17,1.699c-177.785,0-355.566,0-533.348,0c-6.864-3.471-11.128-8.819-13.193-15.757
		c0-2.626,0-5.253,0-7.878c1.417-2.873,2.562-5.897,4.29-8.599c83.338-130.238,166.74-260.44,250.057-390.69
		c3.255-5.089,7.527-8.934,13.09-11.558c2.757-1.3,5.767-2.142,8.661-3.19C296.405,81.164,299.232,81.164,302.059,81.164
		 M302.28,79.164h-0.222h-8.481h-0.351l-0.33,0.12c-0.88,0.319-1.797,0.627-2.684,0.925c-2.038,0.685-4.146,1.393-6.149,2.337
		c-5.841,2.756-10.395,6.775-13.922,12.289c-47.56,74.352-95.944,149.932-142.736,223.024
		c-35.777,55.886-71.555,111.772-107.32,167.666c-1.254,1.962-2.207,4.052-3.127,6.074c-0.41,0.9-0.834,1.831-1.271,2.718
		l-0.207,0.418v0.467v7.878v0.291l0.083,0.279c2.276,7.646,7.057,13.355,14.208,16.972l0.425,0.215h0.477h533.348h0.396l0.365-0.15
		c0.444-0.183,0.885-0.372,1.326-0.562c0.938-0.404,1.825-0.785,2.73-1.095c7.284-2.496,12.477-7.283,14.62-13.481
		c1.998-5.775,1.052-12.115-2.663-17.852c-13.59-20.985-27.45-42.297-40.854-62.907c-5.833-8.969-11.667-17.938-17.497-26.91
		c-14.045-21.614-28.094-43.227-42.144-64.839c-49.323-75.877-100.327-154.338-150.311-231.606
		c-5.878-9.088-13.335-19.049-27.494-22.222L302.28,79.164L302.28,79.164z"/>
</g>
<path style="fill:#237ABF;stroke:#000000;stroke-width:2;stroke-miterlimit:10;" d="M17.48,503.079c0-2.626,0-5.253,0-7.878
	c1.417-2.873,2.562-5.897,4.29-8.599c83.338-130.238,166.74-260.44,250.057-390.69c3.255-5.089,7.527-8.934,13.09-11.558
	c2.757-1.3,5.767-2.142,8.661-3.19c2.827,0,5.654,0,8.481,0c12.775,2.862,19.797,11.376,26.252,21.356
	c63.984,98.91,128.262,197.656,192.457,296.448c19.455,29.938,38.945,59.852,58.35,89.814c7.275,11.233,2.344,23.808-10.926,28.354
	c-1.422,0.486-2.781,1.128-4.17,1.699c-177.785,0-355.566,0-533.348,0C23.809,515.365,19.545,510.017,17.48,503.079z"/>
<path style="fill-rule:evenodd;clip-rule:evenodd;fill:#FFFFFF;" d="M298.464,155.66c66.18,103.2,131.87,205.636,198.237,309.128
	c-131.123,0-261.259,0-392.014,0C169.122,361.998,233.587,259.157,298.464,155.66z"/>
<path style="fill:none;stroke:#000000;stroke-width:1.5;stroke-miterlimit:10;" d="M298.464,155.66
	c-64.877,103.497-129.343,206.338-193.777,309.128c130.755,0,260.891,0,392.014,0C430.334,361.296,364.645,258.86,298.464,155.66z"
	/>
<path style="fill:none;stroke:#A7A9AC;stroke-width:11;stroke-miterlimit:10;" d="M199.993,407.731l103.344-0.013l103.346-0.013
	c0,0,0.636-0.127,1.359-0.31c0.729-0.181,1.545-0.418,1.907-0.64c22.62-13.817,17.728-31.175,11.159-42.169
	c-8.954-12.306-23.564-12.696-23.516-13.936c0.872-22.348-9.987-31.347-21.129-34.83c-11.142-3.48-22.566-1.447-22.822-1.729
	c-29.827-32.979-59.659-32.649-82.333-21.481c-22.674,11.169-38.189,33.177-39.387,43.557c-0.063,0.551-3.107,0.762-6.639,0.94
	c-3.531,0.178-7.548,0.324-9.562,0.745c-15.99,3.351-26.98,11.45-33.346,21.08c-6.366,9.628-8.108,20.789-5.603,30.263
	c0.782,2.959,2.711,7.761,5.719,11.734c3.007,3.977,7.093,7.123,12.192,6.773c0.428-0.03,1.755-0.023,2.974-0.011
	C198.88,407.711,199.993,407.731,199.993,407.731z"/>
<path style="fill-rule:evenodd;clip-rule:evenodd;" d="M302.265,234.537c16.739-0.023,28.077,12.532,25.899,29.747
	c-3.142,24.816-7.003,49.542-10.477,74.319c-2.425,17.301-4.909,34.6-6.925,51.952c-0.484,4.171-1.739,5.506-5.832,5.593
	c-11.593,0.242-11.3,0.356-12.772-10.734c-4.483-33.78-9.22-67.525-13.839-101.288c-0.995-7.269-2.066-14.531-2.827-21.826
	C273.849,246.529,285.471,234.56,302.265,234.537z"/>
<path style="fill-rule:evenodd;clip-rule:evenodd;" d="M301.904,461.465c-12.388,0.025-22.341-9.64-22.628-21.976
	c-0.283-12.176,10.262-22.893,22.548-22.916c12.04-0.021,22.371,10.114,22.613,22.186
	C324.686,451.221,314.544,461.442,301.904,461.465z"/>
</svg>
