<?xml version="1.0" encoding="iso-8859-1"?>
<!-- Generator: Adobe Illustrator 16.0.0, SVG Export Plug-In . SVG Version: 6.00 Build 0)  -->
<!DOCTYPE svg PUBLIC "-//W3C//DTD SVG 1.1//EN" "http://www.w3.org/Graphics/SVG/1.1/DTD/svg11.dtd">
<svg version="1.1" id="Layer_1" xmlns="http://www.w3.org/2000/svg" xmlns:xlink="http://www.w3.org/1999/xlink" x="0px" y="0px"
	 width="600px" height="600px" viewBox="0 0 600 600" style="enable-background:new 0 0 600 600;" xml:space="preserve">
<g style="opacity:0.3;">
	<path style="fill:#FFFFFF;" d="M301.99,81.164c12.775,2.862,19.797,11.376,26.252,21.356
		c63.984,98.91,128.262,197.656,192.457,296.448c19.455,29.938,38.945,59.852,58.35,89.814c7.275,11.233,2.344,23.808-10.926,28.354
		c-1.422,0.486-2.781,1.128-4.17,1.699c-177.785,0-355.566,0-533.348,0c-6.864-3.471-11.128-8.819-13.193-15.757
		c0-2.626,0-5.253,0-7.878c1.417-2.873,2.562-5.897,4.29-8.599c83.338-130.238,166.74-260.44,250.057-390.69
		c3.255-5.089,7.527-8.934,13.09-11.558c2.757-1.3,5.767-2.142,8.661-3.19C296.336,81.164,299.164,81.164,301.99,81.164
		 M302.212,79.164h-0.222h-8.481h-0.351l-0.33,0.12c-0.88,0.319-1.797,0.627-2.684,0.925c-2.038,0.685-4.146,1.393-6.149,2.337
		c-5.841,2.756-10.395,6.775-13.922,12.289c-47.56,74.352-95.944,149.932-142.736,223.024
		C91.56,373.744,55.782,429.631,20.017,485.524c-1.254,1.962-2.207,4.052-3.127,6.074c-0.41,0.9-0.834,1.831-1.271,2.718
		l-0.207,0.418v0.467v7.878v0.291l0.083,0.279c2.276,7.646,7.057,13.355,14.208,16.972l0.425,0.215h0.477h533.348h0.396l0.365-0.15
		c0.444-0.183,0.885-0.372,1.326-0.562c0.938-0.404,1.825-0.785,2.73-1.095c7.284-2.496,12.477-7.283,14.62-13.481
		c1.998-5.775,1.052-12.115-2.663-17.852c-13.59-20.985-27.45-42.297-40.854-62.907c-5.833-8.969-11.667-17.938-17.497-26.91
		c-14.045-21.614-28.094-43.227-42.144-64.839c-49.323-75.877-100.327-154.338-150.311-231.606
		c-5.878-9.088-13.335-19.049-27.494-22.222L302.212,79.164L302.212,79.164z"/>
</g>
<path style="fill:#ED1C24;stroke:#000000;stroke-width:2;stroke-miterlimit:10;" d="M17.412,503.079c0-2.626,0-5.253,0-7.878
	c1.417-2.873,2.562-5.897,4.29-8.599c83.338-130.238,166.74-260.44,250.057-390.69c3.255-5.089,7.527-8.934,13.09-11.558
	c2.757-1.3,5.767-2.142,8.661-3.19c2.827,0,5.654,0,8.481,0c12.775,2.862,19.797,11.376,26.252,21.356
	c63.984,98.91,128.262,197.656,192.457,296.448c19.455,29.938,38.945,59.852,58.35,89.814c7.275,11.233,2.344,23.808-10.926,28.354
	c-1.422,0.486-2.781,1.128-4.17,1.699c-177.785,0-355.566,0-533.348,0C23.741,515.365,19.477,510.017,17.412,503.079z"/>
<path style="fill-rule:evenodd;clip-rule:evenodd;fill:#FFFFFF;" d="M298.396,155.66c66.18,103.2,131.87,205.636,198.237,309.128
	c-131.123,0-261.259,0-392.014,0C169.053,361.998,233.519,259.157,298.396,155.66z"/>
<path style="fill:none;stroke:#000000;stroke-width:1.5;stroke-miterlimit:10;" d="M298.396,155.66
	c-64.877,103.497-129.343,206.338-193.777,309.128c130.755,0,260.891,0,392.014,0C430.266,361.296,364.576,258.86,298.396,155.66z"
	/>
<g>
	<path style="fill-rule:evenodd;clip-rule:evenodd;" d="M432.322,374.697c-1.186,1.208-2.218,2.576-3.594,3.585
		c-1.865,1.369-4.019,2.433-6.003,3.683c-4.656,2.931-4.573,6.008,0.119,8.889c1.418,0.872,2.751,1.891,3.94,2.993
		c0.423,0.393,0.636,1.428,0.341,1.819c-0.319,0.423-1.416,0.71-2.048,0.581c-2.2-0.444-4.616-0.72-6.462-1.741
		c-5.98-3.312-11.985-2.71-18.082-0.621c-1.855,0.635-3.68,1.47-5.297,2.484c-4.257,2.668-4.399,6.739-0.49,9.71
		c5.878,4.468,15.906,5.491,22.929,2.575c2.394-0.994,5.073-1.494,7.666-2.061c0.583-0.128,1.754,0.274,1.932,0.679
		c0.208,0.474-0.167,1.399-0.645,1.805c-1.31,1.11-2.756,2.114-4.24,3.047c-4.017,2.524-4.165,5.563-0.268,8.246
		c2.677,1.844,5.479,3.545,8.116,5.428c0.8,0.57,1.238,1.531,1.843,2.314c-0.119,0.208-0.237,0.417-0.355,0.626
		c-1.04-0.062-2.175,0.087-3.103-0.229c-2.841-0.972-5.64-2.056-8.389-3.217c-5.432-2.297-8.268-0.982-8.941,4.185
		c-0.189,1.44-0.456,2.888-0.889,4.285c-0.177,0.57-0.891,1.013-1.361,1.513c-0.625-0.469-1.633-0.848-1.809-1.422
		c-0.676-2.209-1.629-4.507-1.49-6.724c0.452-7.223-8.814-14.794-14.241-16.225c-4.099-1.079-7.363,0.559-8.382,4.219
		c-1.415,5.079,1.663,15.89,8.703,19.014c2.184,0.969,3.937,2.761,5.707,4.33c0.553,0.489,0.523,1.485,0.761,2.249
		c-0.894,0.152-1.848,0.554-2.664,0.402c-1.423-0.269-2.798-0.812-4.129-1.359c-5.059-2.081-8.368-0.333-8.694,4.562
		c-0.174,2.599-0.37,5.213-0.864,7.774c-0.193,1-1.232,1.877-1.885,2.81c-0.727-0.959-1.863-1.846-2.097-2.89
		c-0.584-2.622-0.721-5.316-1.106-7.975c-0.697-4.802-3.28-6.056-8.285-4.132c-1.591,0.61-3.229,1.17-4.903,1.553
		c-0.629,0.144-1.737-0.097-2.055-0.506c-0.28-0.36-0.002-1.401,0.437-1.787c1.776-1.563,3.456-3.434,5.628-4.386
		c7.561-3.315,10.24-14.021,8.997-19.321c-0.867-3.688-4.354-5.316-8.616-4.156c-5.636,1.534-14.051,9.196-13.886,15.997
		c0.057,2.381-0.913,4.799-1.598,7.158c-0.145,0.494-1.068,1.046-1.695,1.111c-0.38,0.04-1.151-0.751-1.276-1.257
		c-0.426-1.714-0.704-3.461-0.925-5.206c-0.477-3.769-2.69-5.221-6.79-4.092c-2.224,0.612-4.249,1.761-6.437,2.498
		c-2.214,0.748-4.518,1.287-6.782,1.919c-0.258-0.297-0.515-0.593-0.772-0.889c0.757-0.976,1.326-2.14,2.309-2.886
		c2.434-1.848,5.1-3.459,7.596-5.247c4.201-3.011,4.02-5.952-0.463-8.692c-1.976-1.209-4.185-2.239-4.678-4.755
		c3.25-1.328,6.176-0.243,8.675,1.069c6.682,3.505,13.272,2.637,19.872,0.154c1.791-0.675,3.513-1.765,4.871-2.999
		c3.054-2.775,2.723-6.61-0.958-8.752c-7.467-4.345-15.259-6.311-23.811-1.919c-1.932,0.992-4.464,1.13-6.751,1.513
		c-0.526,0.089-1.498-0.314-1.693-0.71c-0.198-0.398,0.125-1.245,0.545-1.588c1.529-1.246,3.151-2.414,4.817-3.519
		c3.193-2.115,3.564-4.777,0.613-7.144c-1.919-1.537-4.306-2.619-6.31-4.086c-1.726-1.265-3.207-2.785-4.796-4.193
		c0.202-0.317,0.406-0.634,0.61-0.95c1.359,0.168,2.811,0.126,4.061,0.547c2.6,0.875,5.1,1.983,7.627,3.018
		c5.081,2.08,8.111,0.596,8.689-4.233c0.173-1.443,0.353-2.905,0.786-4.298c0.193-0.619,1.027-1.084,1.569-1.618
		c0.546,0.448,1.415,0.82,1.581,1.357c0.654,2.134,1.444,4.309,1.541,6.489c0.341,7.635,5.289,12.543,12.372,15.925
		c5.835,2.783,10.565-0.106,10.464-6.2c-0.074-4.416-1.127-8.74-4.174-12.391c-1.255-1.502-3.096-2.637-4.715-3.896
		c-1.947-1.515-4.008-2.924-5.875-4.511c-0.516-0.438-0.52-1.342-0.758-2.032c0.871-0.182,1.834-0.662,2.594-0.482
		c1.658,0.391,3.23,1.084,4.807,1.714c4.289,1.716,7.213,0.368,7.878-3.769c0.438-2.729,0.509-5.512,1.096-8.211
		c0.265-1.211,1.391-2.275,2.126-3.406c0.712,1.144,1.782,2.226,2.055,3.443c0.499,2.243,0.609,4.562,0.734,6.858
		c0.245,4.514,3.472,7.599,8.609,4.845c1.159-0.621,2.535-1.018,3.87-1.265c0.922-0.171,1.948,0.094,2.926,0.164
		c-0.289,0.896-0.281,2.031-0.925,2.639c-1.529,1.452-3.154,3.027-5.118,3.887c-7.367,3.228-10.271,13.444-9.126,18.839
		c0.802,3.779,4.118,5.625,8.316,4.595c5.648-1.388,14.476-8.975,14.375-15.92c-0.035-2.396,0.854-4.819,1.497-7.193
		c0.145-0.536,1.166-1.37,1.525-1.28c0.681,0.173,1.499,0.839,1.681,1.436c0.469,1.544,0.7,3.156,0.886,4.753
		c0.498,4.272,3.516,5.833,8.09,4.068c2.477-0.956,4.857-2.114,7.371-2.983c1.487-0.512,3.147-0.637,4.73-0.938
		C431.779,374.093,432.051,374.396,432.322,374.697z"/>
</g>
<g>
	<path style="fill-rule:evenodd;clip-rule:evenodd;" d="M267.797,356.178c-0.996,1.156-1.863,2.467-3.02,3.434
		c-1.566,1.311-3.375,2.33-5.043,3.527c-3.914,2.807-3.844,5.754,0.1,8.514c1.191,0.832,2.312,1.809,3.309,2.865
		c0.357,0.379,0.537,1.367,0.287,1.74c-0.266,0.408-1.189,0.68-1.721,0.559c-1.846-0.426-3.877-0.691-5.428-1.668
		c-5.025-3.174-10.07-2.594-15.195-0.596c-1.559,0.609-3.092,1.408-4.449,2.379c-3.576,2.557-3.697,6.455-0.412,9.299
		c4.939,4.279,13.365,5.26,19.268,2.467c2.01-0.949,4.26-1.432,6.439-1.973c0.488-0.125,1.473,0.262,1.623,0.648
		c0.176,0.457-0.141,1.342-0.541,1.732c-1.1,1.061-2.316,2.023-3.562,2.914c-3.375,2.418-3.502,5.328-0.227,7.896
		c2.25,1.766,4.605,3.395,6.82,5.199c0.672,0.547,1.039,1.465,1.549,2.217c-0.098,0.199-0.199,0.4-0.301,0.598
		c-0.871-0.055-1.826,0.086-2.604-0.219c-2.389-0.932-4.74-1.969-7.051-3.08c-4.564-2.197-6.947-0.941-7.514,4.008
		c-0.156,1.379-0.381,2.768-0.746,4.104c-0.148,0.547-0.746,0.971-1.143,1.449c-0.525-0.447-1.373-0.812-1.521-1.363
		c-0.566-2.113-1.365-4.314-1.25-6.436c0.379-6.918-7.408-14.168-11.967-15.539c-3.443-1.035-6.188,0.533-7.043,4.039
		c-1.189,4.865,1.396,15.217,7.312,18.211c1.836,0.928,3.309,2.643,4.795,4.146c0.467,0.469,0.439,1.422,0.641,2.152
		c-0.75,0.146-1.555,0.529-2.242,0.383c-1.191-0.258-2.348-0.773-3.467-1.303c-4.25-1.988-7.029-0.316-7.305,4.371
		c-0.146,2.488-0.312,4.992-0.727,7.445c-0.162,0.959-1.035,1.797-1.584,2.691c-0.609-0.92-1.564-1.768-1.762-2.768
		c-0.488-2.51-0.605-5.092-0.93-7.637c-0.584-4.598-2.754-5.801-6.961-3.957c-1.336,0.584-2.711,1.117-4.121,1.486
		c-0.527,0.139-1.459-0.094-1.725-0.484c-0.236-0.344-0.002-1.342,0.365-1.711c1.494-1.5,2.904-3.287,4.729-4.201
		c6.355-3.176,8.607-13.428,7.561-18.504c-0.729-3.531-3.658-5.092-7.238-3.979c-4.736,1.471-11.807,8.809-11.67,15.318
		c0.049,2.281-0.768,4.598-1.34,6.857c-0.123,0.473-0.898,1.002-1.428,1.062c-0.318,0.039-0.967-0.719-1.07-1.203
		c-0.357-1.643-0.592-3.312-0.777-4.984c-0.398-3.609-2.26-5.002-5.705-3.92c-1.869,0.586-3.572,1.686-5.408,2.395
		c-1.861,0.713-3.797,1.229-5.697,1.834c-0.217-0.283-0.436-0.566-0.652-0.85c0.639-0.934,1.115-2.051,1.943-2.764
		c2.043-1.77,4.283-3.312,6.381-5.023c3.529-2.883,3.377-5.701-0.387-8.326c-1.664-1.156-3.52-2.145-3.932-4.551
		c2.73-1.277,5.188-0.232,7.287,1.021c5.615,3.357,11.152,2.523,16.697,0.146c1.506-0.645,2.953-3.889,4.094-5.07
		c2.566-2.66,2.287-4.129-0.805-6.184c-6.275-4.158-12.822-6.041-20.008-1.838c-1.623,0.953-3.75,1.082-5.672,1.451
		c-0.443,0.082-1.26-0.305-1.422-0.678c-0.168-0.387,0.104-1.195,0.457-1.521c1.285-1.195,2.648-2.312,4.051-3.373
		c2.68-2.023,2.99-4.572,0.512-6.84c-1.613-1.471-3.617-2.51-5.301-3.916c-1.451-1.207-2.695-2.664-4.029-4.012
		c0.17-0.307,0.34-0.607,0.512-0.912c1.143,0.164,2.363,0.121,3.412,0.525c2.184,0.838,4.283,1.898,6.408,2.891
		c4.27,1.99,6.814,0.568,7.303-4.057c0.145-1.383,0.297-2.779,0.66-4.115c0.162-0.594,0.861-1.035,1.316-1.547
		c0.459,0.426,1.189,0.781,1.33,1.297c0.549,2.045,1.213,4.129,1.295,6.219c0.289,7.309,4.443,12.01,10.395,15.248
		c4.902,2.664,8.879-0.102,8.791-5.938c-0.061-4.232-0.945-8.371-3.506-11.867c-1.053-1.439-2.6-2.527-3.961-3.73
		c-1.639-1.453-3.367-2.801-4.936-4.322c-0.434-0.418-0.436-1.281-0.637-1.943c0.73-0.176,1.541-0.635,2.18-0.463
		c1.391,0.373,2.713,1.039,4.037,1.641c3.604,1.643,6.062,0.354,6.621-3.609c0.367-2.611,0.428-5.275,0.92-7.863
		c0.223-1.16,1.168-2.178,1.787-3.262c0.598,1.096,1.496,2.133,1.725,3.297c0.42,2.148,0.514,4.369,0.617,6.57
		c0.205,4.322,2.918,7.273,7.236,4.641c0.973-0.598,2.131-0.977,3.252-1.213c0.773-0.162,1.635,0.09,2.455,0.154
		c-0.242,0.859-0.236,1.947-0.775,2.527c-1.285,1.393-2.65,2.9-4.301,3.725c-6.191,3.09-8.629,12.875-7.668,18.043
		c0.672,3.619,3.461,5.385,6.988,4.396c4.744-1.328,12.16-8.594,12.08-15.246c-0.031-2.295,0.717-4.615,1.254-6.887
		c0.125-0.512,0.98-1.311,1.285-1.225c0.57,0.162,1.258,0.803,1.408,1.375c0.396,1.477,0.59,3.02,0.746,4.549
		c0.42,4.092,2.955,5.586,6.797,3.898c2.082-0.916,4.082-2.023,6.195-2.857c1.25-0.49,2.645-0.611,3.975-0.898
		C267.34,355.598,267.569,355.891,267.797,356.178z"/>
</g>
<g>
	<path style="fill-rule:evenodd;clip-rule:evenodd;fill:#FFFFFF;" d="M356.48,255.863c-0.305-0.383-0.605-0.77-0.91-1.156
		c-1.775,0.383-3.637,0.541-5.299,1.199c-2.818,1.107-5.486,2.586-8.258,3.807c-5.127,2.252-8.508,0.262-9.066-5.195
		c-0.207-2.041-0.465-4.094-0.994-6.066c-0.201-0.766-1.117-1.615-1.881-1.836c-0.404-0.115-1.547,0.951-1.711,1.633
		c-0.717,3.035-1.715,6.129-1.676,9.188c0.111,8.869-9.775,18.559-16.104,20.328c-4.705,1.314-8.418-1.039-9.316-5.865
		c-1.281-6.893,1.969-19.934,10.223-24.059c2.199-1.096,4.021-3.105,5.736-4.963c0.717-0.773,0.709-2.225,1.035-3.367
		c-1.096-0.092-2.248-0.426-3.279-0.207c-1.494,0.314-3.037,0.82-4.334,1.611c-5.758,3.516-9.373-0.422-9.646-6.188
		c-0.139-2.93-0.264-5.891-0.822-8.758c-0.305-1.555-1.508-2.934-2.303-4.395c-0.824,1.443-2.084,2.805-2.381,4.348
		c-0.656,3.451-0.738,7-1.229,10.484c-0.742,5.281-4.02,7.004-8.824,4.812c-1.766-0.803-3.527-1.688-5.385-2.188
		c-0.852-0.227-1.932,0.387-2.906,0.619c0.266,0.881,0.271,2.033,0.85,2.592c2.092,2.027,4.398,3.828,6.582,5.762
		c1.812,1.607,3.875,3.055,5.281,4.977c3.41,4.656,4.592,10.178,4.674,15.82c0.115,7.781-5.186,11.469-11.721,7.914
		c-7.938-4.312-13.48-10.582-13.861-20.332c-0.107-2.785-0.994-5.561-1.727-8.285c-0.186-0.688-1.16-1.164-1.771-1.734
		c-0.605,0.682-1.541,1.275-1.758,2.066c-0.486,1.779-0.688,3.643-0.881,5.486c-0.648,6.166-4.043,8.061-9.734,5.406
		c-2.834-1.32-5.633-2.732-8.547-3.855c-1.398-0.537-3.025-0.48-4.549-0.695c-0.227,0.404-0.455,0.809-0.682,1.211
		c1.777,1.801,3.439,3.744,5.373,5.355c2.244,1.873,4.918,3.256,7.068,5.221c3.307,3.02,2.889,6.418-0.686,9.117
		c-1.869,1.414-3.688,2.904-5.4,4.494c-0.469,0.439-0.83,1.518-0.609,2.029c0.219,0.502,1.309,1.018,1.896,0.906
		c2.564-0.49,5.4-0.666,7.562-1.934c9.582-5.607,18.312-3.094,26.678,2.453c4.123,2.732,4.494,7.631,1.072,11.176
		c-1.521,1.572-3.451,2.965-5.457,3.828c-7.393,3.167-14.777,4.274-22.262-0.197c-2.803-1.676-6.078-3.062-9.721-1.365
		c0.555,3.212,3.027,4.526,5.242,6.069c5.021,3.498,5.223,7.258,0.516,11.1c-2.795,2.281-5.781,4.34-8.508,6.703
		c-1.102,0.949-1.738,2.436-2.586,3.682c0.287,0.379,0.576,0.756,0.865,1.135c2.537-0.809,5.117-1.496,7.6-2.449
		c2.449-0.941,4.719-2.41,7.211-3.188c4.592-1.445,7.072,0.408,7.607,5.225c0.246,2.225,0.559,4.455,1.035,6.643
		c0.139,0.648,1.004,1.658,1.428,1.607c0.705-0.082,1.738-0.787,1.9-1.418c0.766-3.012,1.854-6.102,1.791-9.141
		c-0.184-8.684,9.242-18.467,15.555-20.426c4.779-1.482,8.684,0.596,9.654,5.307c1.393,6.768-1.607,20.436-10.08,24.668
		c-2.434,1.221-4.316,3.605-6.305,5.604c-0.49,0.488-0.805,1.82-0.488,2.281c0.355,0.52,1.596,0.828,2.301,0.645
		c1.877-0.49,3.711-1.203,5.494-1.98c5.607-2.459,8.502-0.855,9.279,5.275c0.436,3.395,0.59,6.832,1.242,10.184
		c0.262,1.332,1.535,2.463,2.346,3.688c0.736-1.191,1.896-2.309,2.115-3.588c0.555-3.27,0.773-6.609,0.967-9.926
		c0.365-6.252,4.072-8.482,9.74-5.826c1.492,0.699,3.033,1.391,4.623,1.734c0.916,0.193,1.986-0.316,2.986-0.51
		c-0.266-0.977-0.23-2.248-0.85-2.871c-1.986-2.006-3.949-4.293-6.395-5.529c-7.889-3.992-11.334-17.795-9.75-24.283
		c1.139-4.67,4.797-6.762,9.389-5.383c6.08,1.826,16.463,11.494,15.955,20.715c-0.154,2.832,0.916,5.766,1.672,8.586
		c0.197,0.734,1.322,1.219,2.023,1.816c0.529-0.641,1.328-1.203,1.525-1.934c0.486-1.783,0.787-3.631,0.996-5.469
		c0.758-6.602,3.932-8.277,10.018-5.346c3.08,1.482,6.217,2.865,9.4,4.107c1.035,0.404,2.309,0.215,3.473,0.293
		c0.133-0.268,0.266-0.533,0.398-0.801c-0.678-0.996-1.168-2.225-2.062-2.951c-2.955-2.406-6.096-4.58-9.096-6.932
		c-4.365-3.428-4.197-7.309,0.301-10.531c1.662-1.189,3.283-2.471,4.752-3.889c0.533-0.52,0.955-1.7,0.723-2.306
		c-0.203-0.516-1.514-1.027-2.166-0.863c-2.904,0.721-5.904,1.361-8.586,2.629c-7.871,3.724-19.104,2.413-25.689-3.287
		c-4.379-3.795-4.221-8.994,0.549-12.4c1.814-1.293,3.855-2.359,5.934-3.172c6.832-2.664,13.557-3.438,20.26,0.795
		c2.068,1.303,4.775,1.654,7.236,2.223c0.709,0.162,1.938-0.203,2.295-0.744c0.33-0.498,0.094-1.818-0.383-2.32
		c-1.332-1.41-2.822-2.707-4.412-3.824c-5.256-3.678-5.35-7.605-0.133-11.348c2.225-1.6,4.635-2.957,6.725-4.701
		C353.996,259.154,355.152,257.406,356.48,255.863z"/>
	<path style="fill-rule:evenodd;clip-rule:evenodd;" d="M356.48,255.863c-1.328,1.543-2.484,3.291-4.025,4.58
		c-2.09,1.744-4.5,3.102-6.725,4.701c-5.217,3.742-5.123,7.67,0.133,11.348c1.59,1.117,3.08,2.414,4.412,3.824
		c0.477,0.502,0.713,1.822,0.383,2.32c-0.357,0.541-1.586,0.906-2.295,0.744c-2.461-0.568-5.168-0.92-7.236-2.223
		c-6.703-4.232-13.428-3.459-20.26-0.795c-2.078,0.812-4.119,1.879-5.934,3.172c-4.77,3.406-4.928,8.605-0.549,12.4
		c6.586,5.7,17.818,7.011,25.689,3.287c2.682-1.268,5.682-1.908,8.586-2.629c0.652-0.164,1.963,0.348,2.166,0.863
		c0.232,0.605-0.189,1.786-0.723,2.306c-1.469,1.418-3.09,2.699-4.752,3.889c-4.498,3.223-4.666,7.104-0.301,10.531
		c3,2.352,6.141,4.525,9.096,6.932c0.895,0.727,1.385,1.955,2.062,2.951c-0.133,0.268-0.266,0.533-0.398,0.801
		c-1.164-0.078-2.438,0.111-3.473-0.293c-3.184-1.242-6.32-2.625-9.4-4.107c-6.086-2.932-9.26-1.256-10.018,5.346
		c-0.209,1.838-0.51,3.686-0.996,5.469c-0.197,0.73-0.996,1.293-1.525,1.934c-0.701-0.598-1.826-1.082-2.023-1.816
		c-0.756-2.82-1.826-5.754-1.672-8.586c0.508-9.221-9.875-18.889-15.955-20.715c-4.592-1.379-8.25,0.713-9.389,5.383
		c-1.584,6.488,1.861,20.291,9.75,24.283c2.445,1.236,4.408,3.523,6.395,5.529c0.619,0.623,0.584,1.895,0.85,2.871
		c-1,0.193-2.07,0.703-2.986,0.51c-1.59-0.344-3.131-1.035-4.623-1.734c-5.668-2.656-9.375-0.426-9.74,5.826
		c-0.193,3.316-0.412,6.656-0.967,9.926c-0.219,1.279-1.379,2.396-2.115,3.588c-0.811-1.225-2.084-2.355-2.346-3.688
		c-0.652-3.352-0.807-6.789-1.242-10.184c-0.777-6.131-3.672-7.734-9.279-5.275c-1.783,0.777-3.617,1.49-5.494,1.98
		c-0.705,0.184-1.945-0.125-2.301-0.645c-0.316-0.461-0.002-1.793,0.488-2.281c1.988-1.998,3.871-4.383,6.305-5.604
		c8.473-4.232,11.473-17.9,10.08-24.668c-0.971-4.711-4.875-6.789-9.654-5.307c-6.312,1.959-15.738,11.742-15.555,20.426
		c0.062,3.039-1.025,6.129-1.791,9.141c-0.162,0.631-1.195,1.336-1.9,1.418c-0.424,0.051-1.289-0.959-1.428-1.607
		c-0.477-2.188-0.789-4.418-1.035-6.643c-0.535-4.816-3.016-6.67-7.607-5.225c-2.492,0.777-4.762,2.246-7.211,3.188
		c-2.482,0.953-5.062,1.641-7.6,2.449c-0.289-0.379-0.578-0.756-0.865-1.135c0.848-1.246,1.484-2.732,2.586-3.682
		c2.727-2.363,5.713-4.422,8.508-6.703c4.707-3.842,4.506-7.602-0.516-11.1c-2.215-1.543-4.688-2.857-5.242-6.069
		c3.643-1.697,6.918-0.311,9.721,1.365c7.484,4.472,14.869,3.364,22.262,0.197c2.006-0.863,3.936-2.256,5.457-3.828
		c3.422-3.545,3.051-8.443-1.072-11.176c-8.365-5.547-17.096-8.061-26.678-2.453c-2.162,1.268-4.998,1.443-7.562,1.934
		c-0.588,0.111-1.678-0.404-1.896-0.906c-0.221-0.512,0.141-1.59,0.609-2.029c1.713-1.59,3.531-3.08,5.4-4.494
		c3.574-2.699,3.992-6.098,0.686-9.117c-2.15-1.965-4.824-3.348-7.068-5.221c-1.934-1.611-3.596-3.555-5.373-5.355
		c0.227-0.402,0.455-0.807,0.682-1.211c1.523,0.215,3.15,0.158,4.549,0.695c2.914,1.123,5.713,2.535,8.547,3.855
		c5.691,2.654,9.086,0.76,9.734-5.406c0.193-1.844,0.395-3.707,0.881-5.486c0.217-0.791,1.152-1.385,1.758-2.066
		c0.611,0.57,1.586,1.047,1.771,1.734c0.732,2.725,1.619,5.5,1.727,8.285c0.381,9.75,5.924,16.02,13.861,20.332
		c6.535,3.555,11.836-0.133,11.721-7.914c-0.082-5.643-1.264-11.164-4.674-15.82c-1.406-1.922-3.469-3.369-5.281-4.977
		c-2.184-1.934-4.49-3.734-6.582-5.762c-0.578-0.559-0.584-1.711-0.85-2.592c0.975-0.232,2.055-0.846,2.906-0.619
		c1.857,0.5,3.619,1.385,5.385,2.188c4.805,2.191,8.082,0.469,8.824-4.812c0.49-3.484,0.572-7.033,1.229-10.484
		c0.297-1.543,1.557-2.904,2.381-4.348c0.795,1.461,1.998,2.84,2.303,4.395c0.559,2.867,0.684,5.828,0.822,8.758
		c0.273,5.766,3.889,9.703,9.646,6.188c1.297-0.791,2.84-1.297,4.334-1.611c1.031-0.219,2.184,0.115,3.279,0.207
		c-0.326,1.143-0.318,2.594-1.035,3.367c-1.715,1.857-3.537,3.867-5.736,4.963c-8.254,4.125-11.504,17.166-10.223,24.059
		c0.898,4.826,4.611,7.18,9.316,5.865c6.328-1.77,16.215-11.459,16.104-20.328c-0.039-3.059,0.959-6.152,1.676-9.188
		c0.164-0.682,1.307-1.748,1.711-1.633c0.764,0.221,1.68,1.07,1.881,1.836c0.529,1.973,0.787,4.025,0.994,6.066
		c0.559,5.457,3.939,7.447,9.066,5.195c2.771-1.221,5.439-2.699,8.258-3.807c1.662-0.658,3.523-0.816,5.299-1.199
		C355.875,255.094,356.176,255.48,356.48,255.863z"/>
</g>
<g>
	<path style="fill-rule:evenodd;clip-rule:evenodd;" d="M321.881,391.889c-0.496,0.58-0.932,1.234-1.508,1.719
		c-0.783,0.654-1.689,1.166-2.523,1.762c-1.955,1.402-1.92,2.875,0.053,4.254c0.594,0.422,1.154,0.908,1.654,1.436
		c0.176,0.189,0.266,0.684,0.141,0.873c-0.133,0.201-0.592,0.34-0.859,0.279c-0.924-0.215-1.938-0.348-2.715-0.838
		c-2.512-1.586-5.035-1.293-7.598-0.297c-0.777,0.305-1.545,0.705-2.223,1.189c-1.791,1.277-1.85,3.229-0.207,4.65
		c2.469,2.139,6.684,2.629,9.633,1.232c1.006-0.477,2.131-0.713,3.221-0.988c0.246-0.061,0.736,0.133,0.812,0.326
		c0.086,0.229-0.072,0.672-0.27,0.865c-0.551,0.531-1.16,1.014-1.783,1.461c-1.688,1.207-1.75,2.664-0.113,3.947
		c1.127,0.881,2.305,1.697,3.41,2.6c0.338,0.271,0.52,0.73,0.775,1.105c-0.051,0.104-0.102,0.201-0.15,0.301
		c-0.438-0.031-0.914,0.043-1.301-0.107c-1.195-0.469-2.373-0.984-3.529-1.543c-2.281-1.1-3.471-0.469-3.754,2.006
		c-0.078,0.688-0.189,1.381-0.375,2.051c-0.072,0.275-0.373,0.484-0.57,0.727c-0.264-0.229-0.686-0.408-0.762-0.684
		c-0.283-1.057-0.684-2.158-0.623-3.219c0.189-3.459-3.703-7.086-5.984-7.77c-1.723-0.516-3.094,0.268-3.52,2.02
		c-0.597,2.434,0.695,7.611,3.654,9.105c0.918,0.465,1.654,1.324,2.396,2.072c0.234,0.236,0.223,0.713,0.32,1.078
		c-0.373,0.072-0.777,0.266-1.121,0.193c-0.596-0.129-1.172-0.391-1.73-0.654c-2.127-0.992-3.516-0.158-3.652,2.188
		c-0.074,1.242-0.158,2.496-0.365,3.721c-0.082,0.482-0.516,0.898-0.792,1.346c-0.305-0.459-0.783-0.885-0.881-1.383
		c-0.246-1.256-0.303-2.545-0.465-3.82c-0.291-2.299-1.379-2.896-3.48-1.977c-0.67,0.291-1.357,0.559-2.062,0.742
		c-0.262,0.07-0.729-0.047-0.861-0.24c-0.117-0.176-0.002-0.674,0.184-0.859c0.746-0.748,1.451-1.641,2.363-2.096
		c3.18-1.59,4.305-6.717,3.781-9.252c-0.365-1.766-1.832-2.549-3.619-1.994c-2.369,0.734-5.904,4.404-5.834,7.662
		c0.023,1.143-0.385,2.299-0.672,3.428c-0.062,0.236-0.451,0.5-0.713,0.533c-0.158,0.018-0.484-0.361-0.537-0.602
		c-0.178-0.82-0.297-1.658-0.387-2.492c-0.201-1.809-1.129-2.5-2.854-1.959c-0.934,0.293-1.785,0.842-2.705,1.195
		c-0.93,0.355-1.896,0.613-2.848,0.918c-0.109-0.141-0.217-0.283-0.324-0.424c0.318-0.469,0.557-1.027,0.969-1.385
		c1.021-0.885,2.143-1.654,3.189-2.514c1.768-1.439,1.689-2.848-0.193-4.158c-0.828-0.58-1.756-1.074-1.965-2.277
		c1.365-0.637,2.596-0.117,3.646,0.51c2.805,1.682,5.574,1.264,8.348,0.074c0.752-0.322,1.475-1.943,2.045-2.535
		c1.285-1.328,1.145-2.066-0.4-3.09c-3.139-2.08-6.412-3.025-10.004-0.92c-0.812,0.473-1.875,0.541-2.838,0.727
		c-0.219,0.039-0.627-0.154-0.709-0.344c-0.086-0.189,0.051-0.594,0.229-0.76c0.641-0.598,1.322-1.156,2.023-1.686
		c1.34-1.014,1.496-2.285,0.258-3.42c-0.807-0.734-1.809-1.254-2.652-1.955c-0.725-0.605-1.346-1.336-2.014-2.006
		c0.086-0.156,0.172-0.307,0.258-0.457c0.57,0.082,1.178,0.061,1.705,0.264c1.092,0.416,2.143,0.949,3.203,1.443
		c2.135,0.996,3.408,0.283,3.65-2.029c0.072-0.691,0.15-1.391,0.33-2.057c0.082-0.297,0.43-0.521,0.658-0.773
		c0.232,0.215,0.598,0.391,0.666,0.648c0.275,1.021,0.605,2.062,0.648,3.105c0.143,3.658,2.223,6.008,5.195,7.627
		c2.453,1.332,4.441-0.051,4.396-2.969c-0.031-2.113-0.473-4.186-1.754-5.934c-0.523-0.717-1.297-1.264-1.98-1.865
		c-0.816-0.727-1.684-1.4-2.467-2.16c-0.217-0.207-0.219-0.641-0.318-0.973c0.365-0.086,0.77-0.316,1.09-0.23
		c0.695,0.188,1.355,0.52,2.018,0.82c1.805,0.82,3.033,0.176,3.312-1.805c0.182-1.307,0.213-2.639,0.459-3.932
		c0.113-0.58,0.586-1.088,0.895-1.629c0.297,0.545,0.749,1.061,0.862,1.646c0.209,1.074,0.255,2.186,0.306,3.281
		c0.104,2.162,1.461,3.641,3.619,2.32c0.486-0.295,1.064-0.484,1.629-0.602c0.387-0.086,0.816,0.043,1.227,0.078
		c-0.123,0.43-0.119,0.971-0.389,1.264c-0.641,0.695-1.324,1.447-2.148,1.859c-3.1,1.547-4.314,6.438-3.836,9.02
		c0.338,1.809,1.73,2.695,3.496,2.201c2.371-0.662,6.08-4.297,6.037-7.623c-0.014-1.148,0.361-2.309,0.627-3.441
		c0.064-0.258,0.49-0.658,0.645-0.615c0.283,0.082,0.627,0.4,0.705,0.688c0.197,0.738,0.291,1.512,0.371,2.273
		c0.209,2.049,1.477,2.797,3.398,1.951c1.043-0.461,2.041-1.016,3.096-1.428c0.629-0.248,1.324-0.305,1.99-0.451
		C321.652,391.602,321.77,391.744,321.881,391.889z"/>
</g>
</svg>
