<?xml version="1.0" encoding="iso-8859-1"?>
<!-- Generator: Adobe Illustrator 16.0.0, SVG Export Plug-In . SVG Version: 6.00 Build 0)  -->
<!DOCTYPE svg PUBLIC "-//W3C//DTD SVG 1.1//EN" "http://www.w3.org/Graphics/SVG/1.1/DTD/svg11.dtd">
<svg version="1.1" id="Layer_1" xmlns="http://www.w3.org/2000/svg" xmlns:xlink="http://www.w3.org/1999/xlink" x="0px" y="0px"
	 width="600px" height="600px" viewBox="0 0 600 600" style="enable-background:new 0 0 600 600;" xml:space="preserve">
<g style="opacity:0.3;">
	<path style="fill:#FFFFFF;" d="M301.99,81.164c12.775,2.862,19.797,11.376,26.252,21.356
		c63.984,98.91,128.262,197.656,192.457,296.448c19.455,29.938,38.945,59.852,58.35,89.814c7.275,11.233,2.344,23.808-10.926,28.354
		c-1.422,0.486-2.781,1.128-4.17,1.699c-177.785,0-355.566,0-533.348,0c-6.864-3.471-11.128-8.819-13.193-15.757
		c0-2.626,0-5.253,0-7.878c1.417-2.873,2.562-5.897,4.29-8.599c83.338-130.238,166.74-260.44,250.057-390.69
		c3.255-5.089,7.527-8.934,13.09-11.558c2.757-1.3,5.767-2.142,8.661-3.19C296.336,81.164,299.164,81.164,301.99,81.164
		 M302.212,79.164h-0.222h-8.481h-0.351l-0.33,0.12c-0.88,0.319-1.797,0.627-2.684,0.925c-2.038,0.685-4.146,1.393-6.149,2.337
		c-5.841,2.756-10.395,6.775-13.922,12.289c-47.56,74.352-95.944,149.932-142.736,223.024
		C91.56,373.744,55.782,429.631,20.017,485.524c-1.254,1.962-2.207,4.052-3.127,6.074c-0.41,0.9-0.834,1.831-1.271,2.718
		l-0.207,0.418v0.467v7.878v0.291l0.083,0.279c2.276,7.646,7.057,13.355,14.208,16.972l0.425,0.215h0.477h533.348h0.396l0.365-0.15
		c0.444-0.183,0.885-0.372,1.326-0.562c0.938-0.404,1.825-0.785,2.73-1.095c7.284-2.496,12.477-7.283,14.62-13.481
		c1.998-5.775,1.052-12.115-2.663-17.852c-13.59-20.985-27.45-42.297-40.854-62.907c-5.833-8.969-11.667-17.938-17.497-26.91
		c-14.045-21.614-28.094-43.227-42.144-64.839c-49.323-75.877-100.327-154.338-150.311-231.606
		c-5.878-9.088-13.335-19.049-27.494-22.222L302.212,79.164L302.212,79.164z"/>
</g>
<path style="fill:#ED1C24;stroke:#000000;stroke-width:2;stroke-miterlimit:10;" d="M17.412,503.079c0-2.626,0-5.253,0-7.878
	c1.417-2.873,2.562-5.897,4.29-8.599c83.338-130.238,166.74-260.44,250.057-390.69c3.255-5.089,7.527-8.934,13.09-11.558
	c2.757-1.3,5.767-2.142,8.661-3.19c2.827,0,5.654,0,8.481,0c12.775,2.862,19.797,11.376,26.252,21.356
	c63.984,98.91,128.262,197.656,192.457,296.448c19.455,29.938,38.945,59.852,58.35,89.814c7.275,11.233,2.344,23.808-10.926,28.354
	c-1.422,0.486-2.781,1.128-4.17,1.699c-177.785,0-355.566,0-533.348,0C23.741,515.365,19.477,510.017,17.412,503.079z"/>
<path style="fill-rule:evenodd;clip-rule:evenodd;fill:#FFFFFF;" d="M298.396,155.66c66.18,103.2,131.87,205.636,198.237,309.128
	c-131.123,0-261.259,0-392.014,0C169.053,361.998,233.519,259.157,298.396,155.66z"/>
<path style="fill:none;stroke:#000000;stroke-width:1.5;stroke-miterlimit:10;" d="M298.396,155.66
	c-64.877,103.497-129.343,206.338-193.777,309.128c130.755,0,260.891,0,392.014,0C430.266,361.296,364.576,258.86,298.396,155.66z"
	/>
<path style="fill:none;stroke:#231F20;stroke-width:11;stroke-miterlimit:10;" d="M198.484,414.626l105.432-0.014L409.35,414.6
	c0,0,0.648-0.13,1.387-0.315c0.743-0.185,1.576-0.427,1.946-0.653c23.077-14.096,18.086-31.804,11.385-43.021
	c-9.136-12.555-24.041-12.953-23.991-14.217c0.89-22.8-10.188-31.98-21.556-35.534c-11.366-3.551-23.022-1.477-23.283-1.764
	c-30.43-33.645-60.864-33.309-83.996-21.915c-23.132,11.395-38.961,33.847-40.183,44.437c-0.064,0.562-3.17,0.777-6.772,0.96
	c-3.603,0.181-7.701,0.33-9.754,0.76c-16.313,3.418-27.526,11.682-34.02,21.506c-6.495,9.822-8.271,21.209-5.716,30.874
	c0.798,3.019,2.766,7.918,5.834,11.972c3.068,4.057,7.237,7.267,12.438,6.91c0.437-0.031,1.79-0.023,3.034-0.011
	C197.349,414.604,198.484,414.626,198.484,414.626z"/>
<rect x="191.225" y="402.334" style="fill:#FFFFFF;" width="199.108" height="21.666"/>
<g>
	<path style="fill-rule:evenodd;clip-rule:evenodd;stroke:#010101;stroke-miterlimit:10;" d="M322.5,461.506
		c-6.479-2.192-11.113-6.115-12.342-13.207c-0.1-0.575-0.074-1.172-0.121-2.029c2.553,0,4.978,0,7.42,0
		c1.89,6.462,6.156,9.036,11.345,6.811c2.896-1.241,4.601-4.155,4.39-7.504c-0.228-3.59-2.232-6.207-5.557-6.91
		c-1.643-0.348-3.365-0.439-5.052-0.441c-33.888-0.023-67.776-0.018-101.663-0.018c-1.18,0-2.359,0-3.729,0c0-2.534,0-4.791,0-7.41
		c0.995-0.061,2.043-0.182,3.092-0.182c34.688-0.01,69.375-0.015,104.062-0.003c8.812,0.003,15.009,5.01,16.361,13.142
		c1.281,7.705-3.218,14.454-11.491,17.262c-0.264,0.09-0.478,0.324-0.716,0.49C326.5,461.506,324.5,461.506,322.5,461.506z"/>
	<path style="fill-rule:evenodd;clip-rule:evenodd;stroke:#010101;stroke-miterlimit:10;" d="M198.7,423.603
		c0-2.668,0-4.936,0-7.603c1.252,0,2.4,0,3.55,0c52.002,0,104.003,0.012,156.004-0.034c2.621-0.003,5.318-0.162,7.849-0.835
		c10.772-2.86,17.309-13.936,15.647-26.169c-1.588-11.688-10.896-20.047-21.779-19.56c-11.048,0.493-19.553,9.616-20.25,21.719
		c-0.023,0.396-0.059,0.788-0.105,1.379c-2.245,0-4.47,0-7.015,0c0.301-9.775,3.696-17.805,10.586-23.903
		c9.281-8.215,21.787-9.146,31.929-2.575c9.971,6.459,15.503,19.171,13.631,31.322c-2.021,13.128-10.79,23.159-22.586,25.69
		c-1.95,0.419-3.979,0.545-5.974,0.545c-52.819,0.029-105.642,0.023-158.463,0.023C200.825,423.603,199.926,423.603,198.7,423.603z"
		/>
	<path style="fill-rule:evenodd;clip-rule:evenodd;stroke:#010101;stroke-miterlimit:10;" d="M279.207,383.959
		c-2.617,0-4.973,0-7.309,0c-1.168-9.646,6.324-19.531,16.776-22.303c12.601-3.344,25.365,3.937,28.535,16.273
		c3.312,12.887-3.891,25.444-16.528,28.622c-2.205,0.555-4.541,0.816-6.818,0.82c-29.791,0.054-59.584,0.037-89.375,0.028
		c-0.775,0-1.551-0.098-2.503-0.162c0-2.49,0-4.846,0-7.631c1.226,0,2.38,0,3.535,0c29.591,0,59.183,0.012,88.775-0.007
		c7.447-0.005,13.383-4.52,15.303-11.521c1.834-6.688-1.014-13.646-7.065-17.27c-9.479-5.674-21.776,0.383-23.106,11.381
		C279.367,382.68,279.306,383.167,279.207,383.959z"/>
</g>
</svg>
