<?xml version="1.0" encoding="iso-8859-1"?>
<!-- Generator: Adobe Illustrator 16.0.0, SVG Export Plug-In . SVG Version: 6.00 Build 0)  -->
<!DOCTYPE svg PUBLIC "-//W3C//DTD SVG 1.1//EN" "http://www.w3.org/Graphics/SVG/1.1/DTD/svg11.dtd">
<svg version="1.1" id="Layer_1" xmlns="http://www.w3.org/2000/svg" xmlns:xlink="http://www.w3.org/1999/xlink" x="0px" y="0px"
	 width="600px" height="600px" viewBox="0 0 600 600" style="enable-background:new 0 0 600 600;" xml:space="preserve">
<g style="opacity:0.3;">
	<path style="fill:#FFFFFF;" d="M302.145,81.164c12.775,2.862,19.796,11.376,26.251,21.356
		c63.985,98.91,128.263,197.656,192.458,296.448c19.454,29.938,38.945,59.852,58.35,89.814c7.275,11.233,2.343,23.808-10.926,28.354
		c-1.422,0.486-2.781,1.128-4.17,1.699c-177.785,0-355.566,0-533.349,0c-6.864-3.471-11.128-8.819-13.193-15.757
		c0-2.626,0-5.253,0-7.878c1.417-2.873,2.562-5.897,4.29-8.599c83.338-130.238,166.74-260.44,250.057-390.69
		c3.255-5.089,7.527-8.934,13.09-11.558c2.757-1.3,5.767-2.142,8.661-3.19C296.49,81.164,299.317,81.164,302.145,81.164
		 M302.366,79.164h-0.222h-8.481h-0.351l-0.331,0.12c-0.879,0.319-1.797,0.627-2.684,0.925c-2.038,0.685-4.146,1.393-6.149,2.337
		c-5.841,2.756-10.395,6.775-13.922,12.289c-47.569,74.365-95.962,149.959-142.763,223.065
		C91.696,373.772,55.927,429.646,20.171,485.524c-1.254,1.962-2.207,4.052-3.127,6.073c-0.41,0.9-0.834,1.832-1.271,2.719
		l-0.207,0.418v0.467v7.878v0.291l0.083,0.279c2.276,7.646,7.057,13.355,14.208,16.972l0.425,0.215h0.477h533.349h0.396l0.365-0.15
		c0.444-0.183,0.886-0.372,1.327-0.562c0.938-0.403,1.824-0.784,2.729-1.094c7.284-2.496,12.477-7.284,14.62-13.482
		c1.998-5.775,1.052-12.115-2.663-17.851c-13.466-20.793-27.198-41.908-40.479-62.329c-5.958-9.162-11.917-18.324-17.872-27.488
		c-14.067-21.648-28.139-43.295-42.21-64.941c-49.302-75.844-100.282-154.27-150.245-231.503
		c-5.878-9.088-13.335-19.049-27.493-22.222L302.366,79.164L302.366,79.164z"/>
</g>
<path style="fill:#F68B1F;stroke:#000000;stroke-width:2;stroke-miterlimit:10;" d="M17.565,503.079c0-2.626,0-5.253,0-7.878
	c1.417-2.873,2.562-5.897,4.29-8.599c83.338-130.238,166.74-260.44,250.057-390.69c3.255-5.089,7.527-8.934,13.09-11.558
	c2.757-1.3,5.767-2.142,8.661-3.19c2.827,0,5.654,0,8.481,0c12.775,2.862,19.796,11.376,26.251,21.356
	c63.985,98.91,128.263,197.656,192.458,296.448c19.454,29.938,38.945,59.852,58.35,89.814c7.275,11.233,2.343,23.808-10.926,28.354
	c-1.422,0.486-2.781,1.128-4.17,1.699c-177.785,0-355.566,0-533.349,0C23.895,515.365,19.631,510.017,17.565,503.079z"/>
<path style="fill-rule:evenodd;clip-rule:evenodd;fill:#FFFFFF;" d="M298.55,155.66c66.18,103.2,131.869,205.636,198.236,309.128
	c-131.123,0-261.259,0-392.014,0C169.207,361.998,233.673,259.157,298.55,155.66z"/>
<path style="fill:none;stroke:#000000;stroke-width:1.5;stroke-miterlimit:10;" d="M298.55,155.66
	c-64.877,103.497-129.343,206.338-193.777,309.128c130.755,0,260.891,0,392.014,0C430.419,361.296,364.729,258.86,298.55,155.66z"/>
<path style="fill:none;stroke:#231F20;stroke-width:11;stroke-miterlimit:10;" d="M212.36,383.419l92.156-0.013l92.157-0.011
	c0,0,0.566-0.113,1.212-0.275c0.649-0.161,1.378-0.373,1.701-0.571c20.171-12.32,15.809-27.799,9.951-37.604
	c-7.985-10.974-21.014-11.322-20.97-12.427c0.777-19.929-8.906-27.953-18.842-31.06c-9.935-3.104-20.123-1.29-20.352-1.542
	c-26.598-29.407-53.2-29.113-73.418-19.154c-20.219,9.96-34.055,29.585-35.123,38.842c-0.056,0.491-2.771,0.679-5.919,0.839
	c-3.149,0.158-6.731,0.288-8.526,0.664c-14.259,2.987-24.06,10.211-29.736,18.798c-5.677,8.585-7.23,18.538-4.997,26.986
	c0.697,2.639,2.418,6.921,5.1,10.464c2.682,3.546,6.326,6.352,10.873,6.04c0.381-0.027,1.564-0.021,2.652-0.01
	C211.368,383.399,212.36,383.419,212.36,383.419z"/>
<rect x="244.278" y="368.805" style="fill:#FFFFFF;" width="107.129" height="21.578"/>
<polygon points="275.162,366.847 317.991,366.847 294.316,390.754 318.684,391.284 243.404,458.334 271.082,400.353 
	242.912,399.861 "/>
<polygon points="325.138,391.994 346.876,391.994 334.859,404.129 347.228,404.398 309.018,438.431 323.066,409.002 
	308.769,408.751 "/>
</svg>
