<?xml version="1.0" encoding="iso-8859-1"?>
<!-- Generator: Adobe Illustrator 16.0.0, SVG Export Plug-In . SVG Version: 6.00 Build 0)  -->
<!DOCTYPE svg PUBLIC "-//W3C//DTD SVG 1.1//EN" "http://www.w3.org/Graphics/SVG/1.1/DTD/svg11.dtd">
<svg version="1.1" id="Layer_1" xmlns="http://www.w3.org/2000/svg" xmlns:xlink="http://www.w3.org/1999/xlink" x="0px" y="0px"
	 width="600px" height="600px" viewBox="0 0 600 600" style="enable-background:new 0 0 600 600;" xml:space="preserve">
<g style="opacity:0.3;">
	<path style="fill:#FFFFFF;" d="M302.076,81.164c12.775,2.862,19.796,11.376,26.251,21.356
		c63.985,98.91,128.263,197.656,192.458,296.448c19.454,29.938,38.945,59.852,58.35,89.814c7.275,11.233,2.343,23.808-10.926,28.354
		c-1.422,0.486-2.781,1.128-4.17,1.699c-177.785,0-355.566,0-533.349,0c-6.864-3.471-11.128-8.819-13.193-15.757
		c0-2.626,0-5.253,0-7.878c1.417-2.873,2.562-5.897,4.29-8.599c83.338-130.238,166.74-260.44,250.057-390.69
		c3.255-5.089,7.527-8.934,13.09-11.558c2.757-1.3,5.767-2.142,8.661-3.19C296.422,81.164,299.249,81.164,302.076,81.164
		 M302.298,79.164h-0.222h-8.481h-0.351l-0.331,0.12c-0.879,0.319-1.797,0.627-2.684,0.925c-2.038,0.685-4.146,1.393-6.149,2.337
		c-5.841,2.756-10.395,6.775-13.922,12.289C222.59,169.2,174.196,244.794,127.396,317.899
		C91.627,373.772,55.859,429.646,20.103,485.524c-1.254,1.962-2.207,4.052-3.127,6.073c-0.41,0.9-0.834,1.832-1.271,2.719
		l-0.207,0.418v0.467v7.878v0.291l0.083,0.279c2.276,7.646,7.057,13.355,14.208,16.972l0.425,0.215h0.477h533.349h0.396l0.365-0.15
		c0.444-0.183,0.886-0.372,1.327-0.562c0.938-0.403,1.824-0.784,2.729-1.094c7.284-2.496,12.477-7.284,14.62-13.482
		c1.998-5.775,1.052-12.115-2.663-17.851c-13.466-20.793-27.198-41.908-40.479-62.329c-5.958-9.162-11.917-18.324-17.872-27.488
		c-14.067-21.648-28.139-43.295-42.21-64.941c-49.302-75.844-100.282-154.27-150.245-231.503
		c-5.878-9.088-13.335-19.049-27.493-22.222L302.298,79.164L302.298,79.164z"/>
</g>
<path style="fill:#ED1C24;stroke:#000000;stroke-width:2;stroke-miterlimit:10;" d="M17.497,503.079c0-2.626,0-5.253,0-7.878
	c1.417-2.873,2.562-5.897,4.29-8.599c83.338-130.238,166.74-260.44,250.057-390.69c3.255-5.089,7.527-8.934,13.09-11.558
	c2.757-1.3,5.767-2.142,8.661-3.19c2.827,0,5.654,0,8.481,0c12.775,2.862,19.796,11.376,26.251,21.356
	c63.985,98.91,128.263,197.656,192.458,296.448c19.454,29.938,38.945,59.852,58.35,89.814c7.275,11.233,2.343,23.808-10.926,28.354
	c-1.422,0.486-2.781,1.128-4.17,1.699c-177.785,0-355.566,0-533.349,0C23.826,515.365,19.562,510.017,17.497,503.079z"/>
<path style="fill-rule:evenodd;clip-rule:evenodd;fill:#FFFFFF;" d="M298.481,155.66c66.18,103.2,131.869,205.636,198.236,309.128
	c-131.123,0-261.259,0-392.014,0C169.139,361.998,233.604,259.157,298.481,155.66z"/>
<g>
	<g>
		<g>
			<path style="fill:#FFFFFF;" d="M296.54,460.621c0.027-0.477,0.411-2.135,0.146-3.668c-0.342-1.972-1.127-3.878-1.852-5.757
				c-8.699-22.667-6.636-28.933,13.872-42.16c9.406-6.067,18.993-11.865,28.129-18.347c9.816-6.968,13.442-16.393,6.694-27.62
				c-5.411-9.007-3.312-16.101,3.137-23.153c6.277-6.866,12.613-13.743,18.174-21.216c3.144-4.22,4.782-9.646,7.71-15.814
				c-50.357,19.027-98.443,21.07-149.618,1.124c4.293,8.843,7.206,16.327,11.318,23.015c9.195,14.961,24.198,21.745,38.971,29.019
				c17.688,8.712,20.363,21.297,9.383,37.948c-4.671,7.082-9.459,14.309-12.701,22.133c-6.336,15.301-2.951,23.188,10.517,31.356
				C286.351,451.077,291.354,456.325,296.54,460.621"/>
			<path style="fill-rule:evenodd;clip-rule:evenodd;" d="M315.916,274.561c12.274,2.509,24.693,4.449,36.767,7.746
				c6.881,1.879,13.198,5.975,20.507,9.421c-24.693,24.219-130.248,24-147.65,0.936c17.893-13.114,39.326-13.274,59.391-18.103
				H315.916z"/>
			<path style="fill-rule:evenodd;clip-rule:evenodd;" d="M296.54,460.621c-5.186-4.296-10.189-9.544-16.121-13.141
				c-13.467-8.169-16.853-16.056-10.517-31.356c3.241-7.824,8.029-15.051,12.701-22.133c10.98-16.651,8.306-29.236-9.383-37.948
				c-14.772-7.273-29.776-14.058-38.971-29.019c-4.113-6.688-7.025-14.172-11.318-23.015c51.175,19.946,99.261,17.903,149.618-1.124
				c-2.928,6.169-4.566,11.595-7.71,15.814c-5.561,7.473-11.896,14.35-18.174,21.216c-6.448,7.053-8.548,14.146-3.137,23.153
				c6.748,11.228,3.122,20.652-6.694,27.62c-9.136,6.481-18.723,12.279-28.129,18.347c-20.507,13.228-22.57,19.493-13.872,42.16
				c0.724,1.879,1.509,3.785,1.852,5.757C296.951,458.486,296.566,460.145,296.54,460.621"/>
		</g>
	</g>
</g>
<path style="fill:none;stroke:#000000;stroke-width:1.5;stroke-miterlimit:10;" d="M298.481,155.66
	c-64.877,103.497-129.343,206.338-193.777,309.128c130.755,0,260.891,0,392.014,0C430.351,361.296,364.661,258.86,298.481,155.66z"
	/>
</svg>
