<?xml version="1.0" encoding="iso-8859-1"?>
<!-- Generator: Adobe Illustrator 16.0.0, SVG Export Plug-In . SVG Version: 6.00 Build 0)  -->
<!DOCTYPE svg PUBLIC "-//W3C//DTD SVG 1.1//EN" "http://www.w3.org/Graphics/SVG/1.1/DTD/svg11.dtd">
<svg version="1.1" id="Layer_1" xmlns="http://www.w3.org/2000/svg" xmlns:xlink="http://www.w3.org/1999/xlink" x="0px" y="0px"
	 width="600px" height="600px" viewBox="0 0 600 600" style="enable-background:new 0 0 600 600;" xml:space="preserve">
<g style="opacity:0.3;">
	<path style="fill:#FFFFFF;" d="M301.99,81.164c12.775,2.862,19.797,11.376,26.252,21.356
		c63.984,98.91,128.262,197.656,192.457,296.448c19.455,29.938,38.945,59.852,58.35,89.814c7.275,11.233,2.344,23.808-10.926,28.354
		c-1.422,0.486-2.781,1.128-4.17,1.699c-177.785,0-355.566,0-533.348,0c-6.864-3.471-11.128-8.819-13.193-15.757
		c0-2.626,0-5.253,0-7.878c1.417-2.873,2.562-5.897,4.29-8.599c83.338-130.238,166.74-260.44,250.057-390.69
		c3.255-5.089,7.527-8.934,13.09-11.558c2.757-1.3,5.767-2.142,8.661-3.19C296.336,81.164,299.164,81.164,301.99,81.164
		 M302.212,79.164h-0.222h-8.481h-0.351l-0.33,0.12c-0.88,0.319-1.797,0.627-2.684,0.925c-2.038,0.685-4.146,1.393-6.149,2.337
		c-5.841,2.756-10.395,6.775-13.922,12.289c-47.56,74.352-95.944,149.932-142.736,223.024
		C91.56,373.744,55.782,429.631,20.017,485.524c-1.254,1.962-2.207,4.052-3.127,6.074c-0.41,0.9-0.834,1.831-1.271,2.718
		l-0.207,0.418v0.467v7.878v0.291l0.083,0.279c2.276,7.646,7.057,13.355,14.208,16.972l0.425,0.215h0.477h533.348h0.396l0.365-0.15
		c0.444-0.183,0.885-0.372,1.326-0.562c0.938-0.404,1.825-0.785,2.73-1.095c7.284-2.496,12.477-7.283,14.62-13.481
		c1.998-5.775,1.052-12.115-2.663-17.852c-13.59-20.985-27.45-42.297-40.854-62.907c-5.833-8.969-11.667-17.938-17.497-26.91
		c-14.045-21.614-28.094-43.227-42.144-64.839c-49.323-75.877-100.327-154.338-150.311-231.606
		c-5.878-9.088-13.335-19.049-27.494-22.222L302.212,79.164L302.212,79.164z"/>
</g>
<path style="fill:#ED1C24;stroke:#000000;stroke-width:2;stroke-miterlimit:10;" d="M17.412,503.079c0-2.626,0-5.253,0-7.878
	c1.417-2.873,2.562-5.897,4.29-8.599c83.338-130.238,166.74-260.44,250.057-390.69c3.255-5.089,7.527-8.934,13.09-11.558
	c2.757-1.3,5.767-2.142,8.661-3.19c2.827,0,5.654,0,8.481,0c12.775,2.862,19.797,11.376,26.252,21.356
	c63.984,98.91,128.262,197.656,192.457,296.448c19.455,29.938,38.945,59.852,58.35,89.814c7.275,11.233,2.344,23.808-10.926,28.354
	c-1.422,0.486-2.781,1.128-4.17,1.699c-177.785,0-355.566,0-533.348,0C23.741,515.365,19.477,510.017,17.412,503.079z"/>
<path style="fill-rule:evenodd;clip-rule:evenodd;fill:#FFFFFF;" d="M298.396,155.66c66.18,103.2,131.87,205.636,198.237,309.128
	c-131.123,0-261.259,0-392.014,0C169.053,361.998,233.519,259.157,298.396,155.66z"/>
<path style="fill:none;stroke:#000000;stroke-width:1.5;stroke-miterlimit:10;" d="M298.396,155.66
	c-64.877,103.497-129.343,206.338-193.777,309.128c130.755,0,260.891,0,392.014,0C430.266,361.296,364.576,258.86,298.396,155.66z"
	/>
<g id="layer1" inkscape:label="ImageIcon" inkscape:groupmode="layer">
	<g id="layer1-0" transform="translate(-768.48479,-309.46092)" inkscape:label="Prohibit">
	</g>
	<g id="layer2" transform="translate(-768.48479,-309.46092)" inkscape:label="Man">
	</g>
	<g id="layer1-3" transform="translate(-2309.8128,499.39656)" inkscape:label="Prohibit" style="display:none;">
		<path id="path6220" inkscape:connector-curvature="0" style="display:inline;fill:#ED2224;stroke:#E31E26;stroke-width:25;" d="
			M1449.59,116.023l157.301,186.514L1449.59,116.023z"/>
		
			<ellipse id="path6217" style="display:inline;opacity:0.98;fill:none;stroke:#E51E25;stroke-width:20;stroke-linecap:square;stroke-linejoin:bevel;enable-background:new    ;" cx="1523.184" cy="210.966" rx="120.785" ry="118.538"/>
	</g>
	<g id="layer1-1" transform="translate(-769.3654,-308.85071)" inkscape:label="Prohibit" style="display:none;">
		<path id="path6220-2" inkscape:connector-curvature="0" style="display:inline;fill:#ED2224;stroke:#E31E26;stroke-width:25;" d="
			M1449.59,116.024l157.301,186.514L1449.59,116.024z"/>
		
			<ellipse id="path6217-1" style="display:inline;opacity:0.98;fill:none;stroke:#E51E25;stroke-width:20;stroke-linecap:square;stroke-linejoin:bevel;enable-background:new    ;" cx="1523.184" cy="210.966" rx="120.785" ry="118.538"/>
	</g>
</g>
<path id="path19849_1_" inkscape:connector-curvature="0" style="fill:#090A07;stroke:#010101;stroke-width:0.0238;stroke-linecap:round;stroke-linejoin:round;" d="
	M288.131,455.722c-2.016-0.175-3.902-0.552-4.19-0.838c-0.288-0.29-2.263-0.789-4.386-1.113c-6.482-0.982-20.29-7.155-23.129-10.336
	l-1.007-1.133l1.159-2.483c4.754-10.177,25.618-48.34,30.326-55.477l0.69-1.041l1.341,1.003c1.089,0.812,1.997,1.045,4.817,1.21
	c3.592,0.203,9.949-0.484,11.856-1.288c1.442-0.6,2.077,0.136,5.679,6.574c5.186,9.267,24.037,45.067,26.128,49.608
	c0.872,1.908,0.882,3.108,0.024,3.694c-1.544,1.051-10.975,5.824-13.662,6.913c-1.709,0.692-5.088,1.665-7.519,2.169
	c-2.425,0.494-4.89,1.2-5.47,1.568C308.813,455.982,297.09,456.486,288.131,455.722L288.131,455.722z"/>
<path id="path19851_1_" inkscape:connector-curvature="0" style="fill:#090A07;stroke:#010101;stroke-width:0.0238;stroke-linecap:round;stroke-linejoin:round;" d="
	M291.3,379.753c-3.873-1.317-9.143-6.168-11.486-10.583c-2.387-4.503-3.384-11.228-2.54-17.139
	c1.15-8.046,5.972-14.649,13.156-18.023c4.945-2.324,8.659-2.002,13.948,1.203c7.862,4.766,12.849,15.64,11.604,25.322
	c-0.489,3.819-1.521,6.273-4.256,10.137c-2.711,3.835-6.482,7.306-9.218,8.482C299.697,380.372,294.014,380.673,291.3,379.753z"/>
<path id="path19853_1_" inkscape:connector-curvature="0" style="fill:#090A07;stroke:#010101;stroke-width:0.0238;stroke-linecap:round;stroke-linejoin:round;" d="
	M222.891,354.423c-6.201-0.164-11.544-0.436-11.871-0.604c-0.891-0.465-1.036-1.859-0.636-6.125
	c0.917-9.788,3.655-22.187,6.427-29.122c5.899-14.761,11.856-24.717,20.398-34.106c6.516-7.158,13.183-12.73,14.504-12.115
	c0.729,0.336,3.019,4.72,7.138,13.652c1.913,4.146,6.548,14.081,10.305,22.078c7.957,16.938,11.009,23.844,11.009,24.898
	c0,0.417-1.121,2.104-2.488,3.75c-3.537,4.25-6.151,9.938-7.194,15.651l-0.455,2.488l-17.93-0.077
	C242.234,354.752,229.093,354.583,222.891,354.423z"/>
<path id="path19855_1_" inkscape:connector-curvature="0" style="fill:#090A07;stroke:#010101;stroke-width:0.0238;stroke-linecap:round;stroke-linejoin:round;" d="
	M326.47,354.157c-3.19-0.155-3.568-0.397-3.598-2.271c-0.038-3.457-3.214-10.709-7.155-16.354l-2.197-3.151l9.934-21.524
	c8.758-18.97,16.155-34.704,17.7-37.65c0.701-1.339,1.51-1.228,4.221,0.576c5.878,3.905,15.173,14.06,21.767,23.773
	c3.747,5.517,8.482,15.864,11.396,24.872c2.74,8.496,4.507,18.217,5.059,27.832l0.242,4.222l-27.169-0.087
	C341.725,354.346,328.135,354.239,326.47,354.157z"/>
</svg>
