<?xml version="1.0" encoding="iso-8859-1"?>
<!-- Generator: Adobe Illustrator 16.0.0, SVG Export Plug-In . SVG Version: 6.00 Build 0)  -->
<!DOCTYPE svg PUBLIC "-//W3C//DTD SVG 1.1//EN" "http://www.w3.org/Graphics/SVG/1.1/DTD/svg11.dtd">
<svg version="1.1" id="Layer_1" xmlns="http://www.w3.org/2000/svg" xmlns:xlink="http://www.w3.org/1999/xlink" x="0px" y="0px"
	 width="600px" height="600px" viewBox="0 0 600 600" style="enable-background:new 0 0 600 600;" xml:space="preserve">
<g style="opacity:0.3;">
	<path style="fill:#FFFFFF;" d="M301.99,81.164c12.775,2.862,19.797,11.376,26.252,21.356
		c63.984,98.91,128.262,197.656,192.457,296.448c19.455,29.938,38.945,59.852,58.35,89.814c7.275,11.233,2.344,23.808-10.926,28.354
		c-1.422,0.486-2.781,1.128-4.17,1.699c-177.785,0-355.566,0-533.348,0c-6.864-3.471-11.128-8.819-13.193-15.757
		c0-2.626,0-5.253,0-7.878c1.417-2.873,2.562-5.897,4.29-8.599c83.338-130.238,166.74-260.44,250.057-390.69
		c3.255-5.089,7.527-8.934,13.09-11.558c2.757-1.3,5.767-2.142,8.661-3.19C296.336,81.164,299.164,81.164,301.99,81.164
		 M302.212,79.164h-0.222h-8.481h-0.351l-0.33,0.12c-0.88,0.319-1.797,0.627-2.684,0.925c-2.038,0.685-4.146,1.393-6.149,2.337
		c-5.841,2.756-10.395,6.775-13.922,12.289c-47.56,74.352-95.944,149.932-142.736,223.024
		C91.56,373.744,55.782,429.631,20.017,485.524c-1.254,1.962-2.207,4.052-3.127,6.074c-0.41,0.9-0.834,1.831-1.271,2.718
		l-0.207,0.418v0.467v7.878v0.291l0.083,0.279c2.276,7.646,7.057,13.355,14.208,16.972l0.425,0.215h0.477h533.348h0.396l0.365-0.15
		c0.444-0.183,0.885-0.372,1.326-0.562c0.938-0.404,1.825-0.785,2.73-1.095c7.284-2.496,12.477-7.283,14.62-13.481
		c1.998-5.775,1.052-12.115-2.663-17.852c-13.59-20.985-27.45-42.297-40.854-62.907c-5.833-8.969-11.667-17.938-17.497-26.91
		c-14.045-21.614-28.094-43.227-42.144-64.839c-49.323-75.877-100.327-154.338-150.311-231.606
		c-5.878-9.088-13.335-19.049-27.494-22.222L302.212,79.164L302.212,79.164z"/>
</g>
<path style="fill:#ED1C24;stroke:#000000;stroke-width:2;stroke-miterlimit:10;" d="M17.412,503.079c0-2.626,0-5.253,0-7.878
	c1.417-2.873,2.562-5.897,4.29-8.599c83.338-130.238,166.74-260.44,250.057-390.69c3.255-5.089,7.527-8.934,13.09-11.558
	c2.757-1.3,5.767-2.142,8.661-3.19c2.827,0,5.654,0,8.481,0c12.775,2.862,19.797,11.376,26.252,21.356
	c63.984,98.91,128.262,197.656,192.457,296.448c19.455,29.938,38.945,59.852,58.35,89.814c7.275,11.233,2.344,23.808-10.926,28.354
	c-1.422,0.486-2.781,1.128-4.17,1.699c-177.785,0-355.566,0-533.348,0C23.741,515.365,19.477,510.017,17.412,503.079z"/>
<path style="fill-rule:evenodd;clip-rule:evenodd;fill:#FFFFFF;" d="M298.396,155.66c66.18,103.2,131.87,205.636,198.237,309.128
	c-131.123,0-261.259,0-392.014,0C169.053,361.998,233.519,259.157,298.396,155.66z"/>
<path style="fill:none;stroke:#000000;stroke-width:1.5;stroke-miterlimit:10;" d="M298.396,155.66
	c-64.877,103.497-129.343,206.338-193.777,309.128c130.755,0,260.891,0,392.014,0C430.266,361.296,364.576,258.86,298.396,155.66z"
	/>
<g>
	<path style="fill-rule:evenodd;clip-rule:evenodd;fill:#FFFFFF;" d="M152.956,460.194c3.811,0,6.287,0,8.763,0
		c72.961,0,145.923,0,218.885,0.009c2.531,0,5.09-0.152,7.586,0.162c4.543,0.57,9.316,1.188,10.578-4.613
		c1.123-5.161-1.756-8.361-6.535-10.666c-4.693-2.27-10.127-4.653-13.074-8.6c-11.076-14.818-22.911-29.458-31.242-45.807
		c-6.035-11.846-14.92-21.203-21.467-32.365c-4.787-8.16-10.046-16.045-14.934-24.15c-3.928-6.515-14.31-16.558-23.461-16.255
		c-10.806,0.356-21.707-0.68-32.421,0.372c-6.478,0.637-14.185,2.484-18.649,6.662c-6.706,6.273-11.22,14.963-16.364,22.822
		c-6.144,9.387-11.958,18.988-17.933,28.486c-4.517,7.185-9.098,14.091-9.542,23.232c-0.443,9.088-3.902,17.424-10.72,24.031
		c-1.425,1.385-2.174,3.449-3.348,5.117c-4.037,5.734-7.847,11.66-12.275,17.078C162.917,450.465,158.323,454.639,152.956,460.194z
		 M274.757,312.078c-1.24-5.863-3.306-11.217-3.176-16.515c0.092-3.835,2.131-8.939,5.053-11.051
		c3.568-2.58,8.082-1.176,12.328,2.274c9.688,7.871,13.581,5.033,17.179-5.558c1.385-4.072,1.623-8.559,2.167-12.883
		c1.641-13.06,4.304-15.808,17.524-15.545c6.84,0.137,9.779-3.385,9.161-9.05c-1.06-9.705-2.825-19.407-5.288-28.852
		c-1.213-4.655-3.841-9.187-10.214-9.768c-7.195-0.658-12.485,2.16-15.208,8.233c-3.637,8.114-6.369,16.663-9.055,25.163
		c-1.861,5.893-2.784,12.078-4.503,18.023c-1.764,6.102-6.1,7.586-11.87,5.625c-1.741-0.593-3.461-1.241-5.188-1.874
		c-9.476-3.476-17.897,0.733-19.683,10.751c-0.898,5.039-0.556,10.62,0.607,15.634c1.947,8.395,5.003,16.532,7.786,25.393
		C265.762,312.078,270.046,312.078,274.757,312.078z"/>
	<path style="fill-rule:evenodd;clip-rule:evenodd;" d="M152.956,460.194c5.367-5.556,9.962-9.729,13.846-14.483
		c4.428-5.418,8.238-11.344,12.275-17.078c1.173-1.668,1.922-3.732,3.348-5.117c6.818-6.607,10.277-14.943,10.72-24.031
		c0.445-9.142,5.025-16.048,9.542-23.232c5.976-9.498,11.789-19.1,17.933-28.486c5.144-7.859,9.658-16.549,16.364-22.822
		c4.465-4.178,12.172-6.025,18.649-6.662c10.714-1.052,21.616-0.016,32.421-0.372c9.152-0.303,19.534,9.74,23.461,16.255
		c4.888,8.105,10.146,15.99,14.934,24.15c6.547,11.162,15.432,20.52,21.467,32.365c8.331,16.349,20.166,30.988,31.242,45.807
		c2.947,3.946,8.381,6.33,13.074,8.6c4.779,2.305,7.658,5.505,6.535,10.666c-1.262,5.801-6.035,5.184-10.578,4.613
		c-2.496-0.314-5.055-0.162-7.586-0.162c-72.962-0.009-145.924-0.009-218.885-0.009
		C159.242,460.194,156.766,460.194,152.956,460.194z"/>
	<path style="fill-rule:evenodd;clip-rule:evenodd;" d="M274.757,312.078c-4.711,0-8.995,0-12.379,0
		c-2.782-8.861-5.839-16.999-7.786-25.393c-1.163-5.014-1.505-10.595-0.607-15.634c1.786-10.019,10.207-14.227,19.683-10.751
		c1.726,0.633,3.447,1.281,5.188,1.874c5.77,1.961,10.106,0.477,11.87-5.625c1.719-5.945,2.642-12.13,4.503-18.023
		c2.686-8.5,5.418-17.048,9.055-25.163c2.723-6.073,8.013-8.891,15.208-8.233c6.373,0.581,9.001,5.112,10.214,9.768
		c2.463,9.444,4.229,19.147,5.288,28.852c0.618,5.665-2.321,9.188-9.161,9.05c-13.221-0.263-15.884,2.485-17.524,15.545
		c-0.544,4.324-0.782,8.811-2.167,12.883c-3.598,10.591-7.491,13.429-17.179,5.558c-4.246-3.45-8.76-4.854-12.328-2.274
		c-2.922,2.112-4.961,7.215-5.053,11.051C271.451,300.861,273.518,306.215,274.757,312.078z"/>
</g>
</svg>
