<?xml version="1.0" encoding="iso-8859-1"?>
<!-- Generator: Adobe Illustrator 16.0.0, SVG Export Plug-In . SVG Version: 6.00 Build 0)  -->
<!DOCTYPE svg PUBLIC "-//W3C//DTD SVG 1.1//EN" "http://www.w3.org/Graphics/SVG/1.1/DTD/svg11.dtd">
<svg version="1.1" id="Layer_1" xmlns="http://www.w3.org/2000/svg" xmlns:xlink="http://www.w3.org/1999/xlink" x="0px" y="0px"
	 width="600px" height="600px" viewBox="0 0 600 600" style="enable-background:new 0 0 600 600;" xml:space="preserve">
<g style="opacity:0.3;">
	<path style="fill:#FFFFFF;" d="M301.99,81.164c12.775,2.862,19.797,11.376,26.252,21.356
		c63.984,98.91,128.262,197.656,192.457,296.448c19.455,29.938,38.945,59.852,58.35,89.814c7.275,11.233,2.344,23.808-10.926,28.354
		c-1.422,0.486-2.781,1.128-4.17,1.699c-177.785,0-355.566,0-533.348,0c-6.864-3.471-11.128-8.819-13.193-15.757
		c0-2.626,0-5.253,0-7.878c1.417-2.873,2.562-5.897,4.29-8.599c83.338-130.238,166.74-260.44,250.057-390.69
		c3.255-5.089,7.527-8.934,13.09-11.558c2.757-1.3,5.767-2.142,8.661-3.19C296.336,81.164,299.164,81.164,301.99,81.164
		 M302.212,79.164h-0.222h-8.481h-0.351l-0.33,0.12c-0.88,0.319-1.797,0.627-2.684,0.925c-2.038,0.685-4.146,1.393-6.149,2.337
		c-5.841,2.756-10.395,6.775-13.922,12.289c-47.56,74.352-95.944,149.932-142.736,223.024
		C91.56,373.744,55.782,429.631,20.017,485.524c-1.254,1.962-2.207,4.052-3.127,6.074c-0.41,0.9-0.834,1.831-1.271,2.718
		l-0.207,0.418v0.467v7.878v0.291l0.083,0.279c2.276,7.646,7.057,13.355,14.208,16.972l0.425,0.215h0.477h533.348h0.396l0.365-0.15
		c0.444-0.183,0.885-0.372,1.326-0.562c0.938-0.404,1.825-0.785,2.73-1.095c7.284-2.496,12.477-7.283,14.62-13.481
		c1.998-5.775,1.052-12.115-2.663-17.852c-13.59-20.985-27.45-42.297-40.854-62.907c-5.833-8.969-11.667-17.938-17.497-26.91
		c-14.045-21.614-28.094-43.227-42.144-64.839c-49.323-75.877-100.327-154.338-150.311-231.606
		c-5.878-9.088-13.335-19.049-27.494-22.222L302.212,79.164L302.212,79.164z"/>
</g>
<path style="fill:#ED1C24;stroke:#000000;stroke-width:2;stroke-miterlimit:10;" d="M17.412,503.079c0-2.626,0-5.253,0-7.878
	c1.417-2.873,2.562-5.897,4.29-8.599c83.338-130.238,166.74-260.44,250.057-390.69c3.255-5.089,7.527-8.934,13.09-11.558
	c2.757-1.3,5.767-2.142,8.661-3.19c2.827,0,5.654,0,8.481,0c12.775,2.862,19.797,11.376,26.252,21.356
	c63.984,98.91,128.262,197.656,192.457,296.448c19.455,29.938,38.945,59.852,58.35,89.814c7.275,11.233,2.344,23.808-10.926,28.354
	c-1.422,0.486-2.781,1.128-4.17,1.699c-177.785,0-355.566,0-533.348,0C23.741,515.365,19.477,510.017,17.412,503.079z"/>
<path style="fill-rule:evenodd;clip-rule:evenodd;fill:#FFFFFF;" d="M298.396,155.66c66.18,103.2,131.87,205.636,198.237,309.128
	c-131.123,0-261.259,0-392.014,0C169.053,361.998,233.519,259.157,298.396,155.66z"/>
<path style="fill:none;stroke:#000000;stroke-width:1.5;stroke-miterlimit:10;" d="M298.396,155.66
	c-64.877,103.497-129.343,206.338-193.777,309.128c130.755,0,260.891,0,392.014,0C430.266,361.296,364.576,258.86,298.396,155.66z"
	/>
<g>
	<path style="fill-rule:evenodd;clip-rule:evenodd;fill:#FFFFFF;" d="M304.381,269.039c-0.999,2.062-1.85,4.68-3.381,6.805
		c-4.348,6.034-4.614,11.828-0.188,17.963c2.641,3.662,2.028,7.299-0.83,10.834c-2.505,3.1-4.924,6.354-6.785,9.856
		c-1.107,2.087-2.011,5.073-1.379,7.161c2.812,9.286,6.167,18.411,9.473,27.541c0.344,0.948,1.657,2.186,2.539,2.201
		c8.995,0.163,17.993,0.101,26.934,0.101c0.244-0.848,0.459-1.246,0.459-1.643c0.023-17.935,0.144-35.87-0.108-53.801
		c-0.032-2.246-1.505-5.036-3.208-6.595C320.429,282.617,312.621,276.131,304.381,269.039z M294.906,351.35
		c-3.445-9.712-6.468-18.897-9.997-27.887c-1.656-4.222-1.337-7.312,1.83-10.715c6.992-7.52,12.186-15.574,3.565-25.409
		c-0.091-0.103-0.187-0.259-0.179-0.383c0.093-1.529-0.176-3.215,0.377-4.56c2.051-4.984,4.504-9.802,6.491-14.81
		c0.416-1.049-0.083-3.07-0.908-3.889c-2.267-2.249-4.245-0.832-6.267,0.955c-8.863,7.839-17.904,15.479-26.696,23.396
		c-1.755,1.58-3.812,4.044-3.844,6.129c-0.296,19.026-0.173,38.06-0.173,57.172C270.887,351.35,282.469,351.35,294.906,351.35z
		 M355.757,263.279c5.753,8.207,9.783,17.049,10.04,27.286c0.216,8.62-2.406,16.593-5.29,24.557
		c-0.56,1.545-0.499,4.634,0.355,5.123c2.556,1.462,4.104-0.521,5.061-2.899c3.35-8.32,5.418-16.883,5.043-25.46
		c0.48-13.49-4.05-24.577-13.18-33.765"/>
	<path style="fill-rule:evenodd;clip-rule:evenodd;" d="M283.917,352.812c2.741,5.569,5.778,12.228,9.092,18.335
		c1.291,2.376,1.356,4.039-0.249,6.206c-5.789,7.811-11.431,15.729-17.113,23.617c-0.573,0.796-1.048,1.662-1.776,2.826
		c7.537,5.596,14.811,11.332,22.435,16.56c6.912,4.739,7.206,4.881,4.659,12.773c-0.729,2.257-1.317,4.558-1.124,7.329
		c2.562-2.809,5.029-5.711,7.71-8.4c2.621-2.628,5.459-5.042,8.602-7.915c-5.982-7.011-11.285-13.537-16.961-19.72
		c-2.151-2.344-2.553-4.002-0.706-6.646c4.341-6.222,8.567-12.533,12.547-18.987c1.2-1.945,1.896-4.454,2.026-6.75
		c0.297-5.149,0.168-10.331,0.047-15.491c-0.105-4.487-1.105-3.737,2.77-3.675l86.625-0.688c1.502-0.024,15.749-0.229,18.168-0.187
		l70.499,109.536c-32.208,0-41.164,0.117-179.667-0.241c-11.316-0.296-185.5,0-199,0l67.609-109.405L283.917,352.812z"/>
	<path style="fill-rule:evenodd;clip-rule:evenodd;" d="M304.381,269.039c8.24,7.092,16.048,13.579,23.525,20.424
		c1.703,1.559,3.176,4.349,3.208,6.595c0.252,17.931,0.132,35.866,0.108,53.801c0,0.396-0.215,0.795-0.459,1.643
		c-8.94,0-17.938,0.062-26.934-0.101c-0.882-0.016-2.195-1.253-2.539-2.201c-3.306-9.13-6.66-18.255-9.473-27.541
		c-0.632-2.088,0.271-5.074,1.379-7.161c1.861-3.503,4.28-6.757,6.785-9.856c2.858-3.535,3.47-7.172,0.83-10.834
		c-4.426-6.135-4.159-11.93,0.188-17.963C302.531,273.718,303.382,271.101,304.381,269.039z"/>
	<path style="fill-rule:evenodd;clip-rule:evenodd;" d="M294.906,351.35c-12.437,0-24.019,0-35.801,0
		c0-19.112-0.123-38.146,0.173-57.172c0.033-2.085,2.089-4.549,3.844-6.129c8.792-7.917,17.833-15.557,26.696-23.396
		c2.021-1.787,4-3.204,6.267-0.955c0.825,0.819,1.324,2.839,0.908,3.889c-1.986,5.008-4.439,9.826-6.491,14.81
		c-0.554,1.344-0.285,3.03-0.377,4.56c-0.008,0.124,0.088,0.28,0.179,0.383c8.621,9.835,3.427,17.89-3.565,25.409
		c-3.167,3.403-3.486,6.493-1.83,10.715C288.438,332.452,291.46,341.638,294.906,351.35z"/>
	<path style="fill-rule:evenodd;clip-rule:evenodd;" d="M225.083,294.667c0.083-12.625,4.775-23.154,12.239-32.592
		c0.53-0.67,1.099-1.517,1.764-1.817c1.336-0.604,2.789-0.93,4.163-0.364c0.704,1.169,0.485,2.861-0.077,3.823
		c-1.358,2.331-3.314,4.301-4.829,6.552c-8.087,12.026-9.839,24.988-5.509,38.785c1.027,3.272,2.077,6.551,3.146,9.784
		c0.52,1.573,0.229,3.954-1.219,5.017c-1.636,0.188-3.518-1.589-4.02-2.875C227.399,312.421,224.94,303.834,225.083,294.667z"/>
	<path style="fill-rule:evenodd;clip-rule:evenodd;" d="M370.966,291.886c0.375,8.577-1.693,17.14-5.043,25.46
		c-0.956,2.379-2.505,4.361-5.061,2.899c-0.854-0.489-0.915-3.578-0.355-5.123c2.884-7.964,5.506-15.938,5.29-24.557
		c-0.257-10.237-4.287-19.079-10.04-27.286c-0.49-0.701-0.959-1.523-1.382-2.154c-0.853-1.271-1.781-2.25-1.068-4.031
		c0.381-1.156,3.52,0.062,4.479,1.027C366.916,267.309,371.446,278.396,370.966,291.886z"/>
	<path style="fill-rule:evenodd;clip-rule:evenodd;" d="M242.542,297.458c0.432-11.381,3.736-21.338,10.992-29.103
		c1.035-1.106,2.544-2.152,4.631-1.893c1.413,1.381,0.469,4.382-0.514,5.542c-10.734,12.679-11.184,26.552-5.734,41.459
		c0.741,2.026,0.429,6.423-0.402,6.699c-3.803,1.266-4.277-2.635-4.931-4.909C244.781,308.98,243.141,303.119,242.542,297.458z"/>
	<path style="fill-rule:evenodd;clip-rule:evenodd;" d="M354.093,290.452c-0.176,0.257,0.835,4.313-5.155,24.408
		c-0.311,1.04-2.625,2.344-4.031,1.859c-1.234-0.547-1.607-2.573-1.342-3.728c0.857-3.713,2.459-7.25,3.368-10.956
		c2.952-12.033,0.162-22.844-7.328-32.576c-0.596-0.772-1.204-1.696-1.337-2.617c-0.126-0.882,0.163-2.503,0.622-2.644
		c0.881-0.269,2.454-0.077,2.964,0.551c2.413,2.978,5.002,5.986,6.67,9.341C350.638,278.342,353.995,285.135,354.093,290.452z"/>
</g>
</svg>
