<?xml version="1.0" encoding="iso-8859-1"?>
<!-- Generator: Adobe Illustrator 16.0.0, SVG Export Plug-In . SVG Version: 6.00 Build 0)  -->
<!DOCTYPE svg PUBLIC "-//W3C//DTD SVG 1.1//EN" "http://www.w3.org/Graphics/SVG/1.1/DTD/svg11.dtd">
<svg version="1.1" id="Layer_1" xmlns="http://www.w3.org/2000/svg" xmlns:xlink="http://www.w3.org/1999/xlink" x="0px" y="0px"
	 width="600px" height="600px" viewBox="0 0 600 600" style="enable-background:new 0 0 600 600;" xml:space="preserve">
<g style="opacity:0.3;">
	<path style="fill:#FFFFFF;" d="M301.99,81.164c12.775,2.862,19.797,11.376,26.252,21.356
		c63.984,98.91,128.262,197.656,192.457,296.448c19.455,29.938,38.945,59.852,58.35,89.814c7.275,11.233,2.344,23.808-10.926,28.354
		c-1.422,0.486-2.781,1.128-4.17,1.699c-177.785,0-355.566,0-533.348,0c-6.864-3.471-11.128-8.819-13.193-15.757
		c0-2.626,0-5.253,0-7.878c1.417-2.873,2.562-5.897,4.29-8.599c83.338-130.238,166.74-260.44,250.057-390.69
		c3.255-5.089,7.527-8.934,13.09-11.558c2.757-1.3,5.767-2.142,8.661-3.19C296.336,81.164,299.164,81.164,301.99,81.164
		 M302.212,79.164h-0.222h-8.481h-0.351l-0.33,0.12c-0.88,0.319-1.797,0.627-2.684,0.925c-2.038,0.685-4.146,1.393-6.149,2.337
		c-5.841,2.756-10.395,6.775-13.922,12.289c-47.56,74.352-95.944,149.932-142.736,223.024
		C91.56,373.744,55.782,429.631,20.017,485.524c-1.254,1.962-2.207,4.052-3.127,6.074c-0.41,0.9-0.834,1.831-1.271,2.718
		l-0.207,0.418v0.467v7.878v0.291l0.083,0.279c2.276,7.646,7.057,13.355,14.208,16.972l0.425,0.215h0.477h533.348h0.396l0.365-0.15
		c0.444-0.183,0.885-0.372,1.326-0.562c0.938-0.404,1.825-0.785,2.73-1.095c7.284-2.496,12.477-7.283,14.62-13.481
		c1.998-5.775,1.052-12.115-2.663-17.852c-13.59-20.985-27.45-42.297-40.854-62.907c-5.833-8.969-11.667-17.938-17.497-26.91
		c-14.045-21.614-28.094-43.227-42.144-64.839c-49.323-75.877-100.327-154.338-150.311-231.606
		c-5.878-9.088-13.335-19.049-27.494-22.222L302.212,79.164L302.212,79.164z"/>
</g>
<path style="fill:#ED1C24;stroke:#000000;stroke-width:2;stroke-miterlimit:10;" d="M17.412,503.079c0-2.626,0-5.253,0-7.878
	c1.417-2.873,2.562-5.897,4.29-8.599c83.338-130.238,166.74-260.44,250.057-390.69c3.255-5.089,7.527-8.934,13.09-11.558
	c2.757-1.3,5.767-2.142,8.661-3.19c2.827,0,5.654,0,8.481,0c12.775,2.862,19.797,11.376,26.252,21.356
	c63.984,98.91,128.262,197.656,192.457,296.448c19.455,29.938,38.945,59.852,58.35,89.814c7.275,11.233,2.344,23.808-10.926,28.354
	c-1.422,0.486-2.781,1.128-4.17,1.699c-177.785,0-355.566,0-533.348,0C23.741,515.365,19.477,510.017,17.412,503.079z"/>
<path style="fill-rule:evenodd;clip-rule:evenodd;fill:#FFFFFF;" d="M298.396,155.66c66.18,103.2,131.87,205.636,198.237,309.128
	c-131.123,0-261.259,0-392.014,0C169.053,361.998,233.519,259.157,298.396,155.66z"/>
<path style="fill:none;stroke:#000000;stroke-width:1.5;stroke-miterlimit:10;" d="M298.396,155.66
	c-64.877,103.497-129.343,206.338-193.777,309.128c130.755,0,260.891,0,392.014,0C430.266,361.296,364.576,258.86,298.396,155.66z"
	/>
<g>
	<path style="fill:none;stroke:#231F20;stroke-width:11;stroke-miterlimit:10;" d="M203.178,405.211l100.555-0.014l100.557-0.012
		c0,0,0.618-0.124,1.322-0.301c0.709-0.176,1.503-0.407,1.856-0.623c22.01-13.443,17.249-30.333,10.858-41.03
		c-8.714-11.975-22.93-12.354-22.882-13.56c0.849-21.745-9.717-30.501-20.559-33.891c-10.841-3.386-21.957-1.408-22.206-1.682
		c-29.022-32.088-58.049-31.768-80.111-20.901c-22.062,10.868-37.159,32.282-38.324,42.381c-0.062,0.536-3.023,0.741-6.459,0.916
		c-3.436,0.172-7.345,0.314-9.303,0.725c-15.559,3.26-26.252,11.141-32.446,20.511c-6.194,9.368-7.889,20.228-5.452,29.446
		c0.761,2.879,2.638,7.551,5.564,11.417c2.926,3.869,6.902,6.931,11.863,6.591c0.416-0.029,1.707-0.022,2.894-0.01
		C202.095,405.19,203.178,405.211,203.178,405.211z"/>
	<rect x="199.116" y="396.349" style="fill:#FFFFFF;" width="189.897" height="20.664"/>
	<g>
		<g>
			<path style="fill:none;stroke:#000000;stroke-width:6;stroke-miterlimit:30;" d="M221.021,429.218
				c0.949-0.059,1.949-0.174,2.949-0.174c1.016,0,2.031-0.001,3.046-0.001"/>
			
				<path style="fill:none;stroke:#000000;stroke-width:6;stroke-miterlimit:30;stroke-dasharray:11.3259,7.5506,11.3259,7.5506;" d="
				M234.566,429.041c11.35-0.002,22.667-0.005,33.979-0.006"/>
			
				<path style="fill:none;stroke:#000000;stroke-width:6;stroke-miterlimit:30;stroke-dasharray:11.3259,7.5506,11.3259,7.5506,11.3259,7.5506;" d="
				M272.315,429.035c16.938-0.001,33.872,0,50.902,0.006c8.405,0.003,14.314,4.778,15.604,12.534
				c1.223,7.349-3.068,13.785-10.96,16.463c-0.251,0.086-0.455,0.31-0.683,0.468c-1.907,0-3.814,0-5.722,0
				c-2.859-0.967-5.342-2.288-7.3-4.098"/>
			<path style="fill:none;stroke:#000000;stroke-width:6;stroke-miterlimit:30;" d="M311.752,451.507
				c-0.986-1.588-1.691-3.438-2.065-5.597"/>
		</g>
	</g>
	
		<path style="fill-rule:evenodd;clip-rule:evenodd;fill:none;stroke:#000000;stroke-width:6;stroke-miterlimit:30;stroke-dasharray:12,8,12,8,12,8;" d="
		M328.229,383.154c0.287-9.323,6.409-16.98,12.98-22.797c6.701-5.933,14.959-10.627,27.567-2.457
		c9.51,6.161,14.786,18.284,13.001,29.874c-1.928,12.521-10.291,22.088-21.541,24.502c-1.86,0.399-3.796,0.52-5.697,0.52
		c-50.377,0.028-100.755,0.022-151.133,0.022c-0.857,0,1.169,0,0,0"/>
	
		<path style="fill-rule:evenodd;clip-rule:evenodd;fill:none;stroke:#000000;stroke-width:6;stroke-miterlimit:30;stroke-dasharray:12,8,12,8,12,8;" d="
		M211.618,393.922c1.101,0,2.137,0,3.173,0c26.566,0,53.133,0.011,79.7-0.005c6.686-0.005,12.014-4.059,13.738-10.344
		c1.646-6.003-0.91-12.251-6.343-15.504c-8.511-5.094-19.55,0.344-20.744,10.218"/>
</g>
</svg>
