<?xml version="1.0" encoding="iso-8859-1"?>
<!-- Generator: Adobe Illustrator 16.0.0, SVG Export Plug-In . SVG Version: 6.00 Build 0)  -->
<!DOCTYPE svg PUBLIC "-//W3C//DTD SVG 1.1//EN" "http://www.w3.org/Graphics/SVG/1.1/DTD/svg11.dtd">
<svg version="1.1" id="Layer_1" xmlns="http://www.w3.org/2000/svg" xmlns:xlink="http://www.w3.org/1999/xlink" x="0px" y="0px"
	 width="600px" height="600px" viewBox="0 0 600 600" style="enable-background:new 0 0 600 600;" xml:space="preserve">
<g style="opacity:0.3;">
	<path style="fill:#FFFFFF;" d="M302.145,81.164c12.775,2.862,19.796,11.376,26.251,21.356
		c63.985,98.91,128.263,197.656,192.458,296.448c19.454,29.938,38.945,59.852,58.35,89.814c7.275,11.233,2.343,23.808-10.926,28.354
		c-1.422,0.486-2.781,1.128-4.17,1.699c-177.785,0-355.566,0-533.349,0c-6.864-3.471-11.128-8.819-13.193-15.757
		c0-2.626,0-5.253,0-7.878c1.417-2.873,2.562-5.897,4.29-8.599c83.338-130.238,166.74-260.44,250.057-390.69
		c3.255-5.089,7.527-8.934,13.09-11.558c2.757-1.3,5.767-2.142,8.661-3.19C296.49,81.164,299.317,81.164,302.145,81.164
		 M302.366,79.164h-0.222h-8.481h-0.351l-0.331,0.12c-0.879,0.319-1.797,0.627-2.684,0.925c-2.038,0.685-4.146,1.393-6.149,2.337
		c-5.841,2.756-10.395,6.775-13.922,12.289c-47.569,74.365-95.962,149.959-142.763,223.065
		C91.696,373.772,55.927,429.646,20.171,485.524c-1.254,1.962-2.207,4.052-3.127,6.073c-0.41,0.9-0.834,1.832-1.271,2.719
		l-0.207,0.418v0.467v7.878v0.291l0.083,0.279c2.276,7.646,7.057,13.355,14.208,16.972l0.425,0.215h0.477h533.349h0.396l0.365-0.15
		c0.444-0.183,0.886-0.372,1.327-0.562c0.938-0.403,1.824-0.784,2.729-1.094c7.284-2.496,12.477-7.284,14.62-13.482
		c1.998-5.775,1.052-12.115-2.663-17.851c-13.466-20.793-27.198-41.908-40.479-62.329c-5.958-9.162-11.917-18.324-17.872-27.488
		c-14.067-21.648-28.139-43.295-42.21-64.941c-49.302-75.844-100.282-154.27-150.245-231.503
		c-5.878-9.088-13.335-19.049-27.493-22.222L302.366,79.164L302.366,79.164z"/>
</g>
<path style="fill:#F68B1F;stroke:#000000;stroke-width:2;stroke-miterlimit:10;" d="M17.565,503.079c0-2.626,0-5.253,0-7.878
	c1.417-2.873,2.562-5.897,4.29-8.599c83.338-130.238,166.74-260.44,250.057-390.69c3.255-5.089,7.527-8.934,13.09-11.558
	c2.757-1.3,5.767-2.142,8.661-3.19c2.827,0,5.654,0,8.481,0c12.775,2.862,19.796,11.376,26.251,21.356
	c63.985,98.91,128.263,197.656,192.458,296.448c19.454,29.938,38.945,59.852,58.35,89.814c7.275,11.233,2.343,23.808-10.926,28.354
	c-1.422,0.486-2.781,1.128-4.17,1.699c-177.785,0-355.566,0-533.349,0C23.895,515.365,19.631,510.017,17.565,503.079z"/>
<path style="fill-rule:evenodd;clip-rule:evenodd;fill:#FFFFFF;" d="M298.55,155.66c66.18,103.2,131.869,205.636,198.236,309.128
	c-131.123,0-261.259,0-392.014,0C169.207,361.998,233.673,259.157,298.55,155.66z"/>
<path style="fill:none;stroke:#000000;stroke-width:1.5;stroke-miterlimit:10;" d="M298.55,155.66
	c-64.877,103.497-129.343,206.338-193.777,309.128c130.755,0,260.891,0,392.014,0C430.419,361.296,364.729,258.86,298.55,155.66z"/>
<g>
	<path style="fill-rule:evenodd;clip-rule:evenodd;fill:#FFFFFF;" d="M225.95,340.172c0.467,1.099,0.87,1.603,0.866,2.104
		c-0.074,10.648-0.289,21.297-0.221,31.944c0.012,1.914,0.527,4.777,1.922,5.486c1.697,0.864,5.293,0.695,6.813-0.396
		c5.319-3.817,9.112-1.543,13.684,1.176c4.937,2.937,10.273,6.366,15.882,7.181c11.261,1.635,22.23,0.016,31.53-7.007
		c4.87-3.679,10.239-5.35,16.368-1.037c3.773,2.655,8.291,4.652,12.775,6.306c9,3.32,18.34,3.484,27.211-0.161
		c5.873-2.414,11.348-5.666,16.74-8.882c1.406-0.839,2.578-2.937,2.609-4.475c0.178-9.639-0.021-19.282-0.031-28.924
		c-0.002-1.18,0.367-2.357,0.717-4.437c2.615,2.329,4.256,4.265,6.396,5.553c1.83,1.104,4.393,2.309,6.352,2.015
		c8.203-1.23,12.002-11.543,6.598-17.23c-7.102-7.478-14.193-14.966-21.367-22.39c-14.838-15.36-29.682-30.713-44.611-46.002
		c-5.957-6.101-12.027-12.124-18.27-17.993c-3.932-3.698-12.326-4.44-15.793-1.402c-3.508,3.072-6.588,6.531-9.783,9.874
		c-5.511,5.766-10.964,11.574-17.268,18.238c-0.197-3.071-0.37-5.246-0.47-7.423c-0.148-3.278-1.827-4.938-5.745-4.796
		c-3.521,0.126-7.059-0.026-10.586-0.105c-5.116-0.116-7.213,1.363-7.252,5.784c-0.08,9.099,0.238,18.203,0.025,27.298
		c-0.052,2.185-0.92,4.809-2.476,6.436c-6.607,6.909-13.631,13.507-20.472,20.243c-4.604,4.533-9.588,8.834-13.611,13.747
		c-4.199,5.124-2.603,10.375,3.331,14.485c4.302,2.979,8.778,2.197,13.839-2.289C222.823,342.057,224.291,341.285,225.95,340.172z
		 M301.021,459.905c0,0.008,0,0.018,0,0.027c49.822,0,99.646,0.008,149.469-0.007c9.961-0.003,19.924-0.07,29.885-0.141
		c4.273-0.029,5.135-1.442,3.092-4.758c-5.215-8.46-10.379-16.945-15.586-25.412c-2.107-3.426-3.76-3.573-7.117-1.393
		c-4.902,3.179-9.818,6.427-15.115,9.024c-15.91,7.798-31.492,7.657-46.42-2.267c-11.238-7.472-20.287-7.873-29.326-1.982
		c-4.422,2.881-9.125,5.778-14.215,7.426c-11.746,3.803-23.316,2.853-34.201-2.989c-4.514-2.424-9.064-4.816-13.76-6.945
		c-5.338-2.419-10.959-2.445-16.222,0.086c-4.045,1.945-7.619,4.652-11.639,6.645c-8.062,3.992-16.354,6.401-26.068,5.143
		c-8.715-1.129-15.437-5.189-22.566-8.954c-4.658-2.462-9.423-5.659-15.188-3.916c-6.785,2.052-13.443,4.56-19.871,7.378
		c-10.14,4.447-20.343,8.818-31.421,3.132c-7.687-3.945-14.908-8.657-22.01-13.409c-2.946-1.971-4.769-2.043-6.557,0.689
		c-6.029,9.214-12.109,18.404-17.937,27.718c-2.007,3.21-0.704,4.769,3.435,4.817c4.812,0.059,9.626,0.083,14.439,0.084
		C191.088,459.906,246.054,459.905,301.021,459.905z M425.461,426.095c0.461-0.062,1.586-0.151,2.676-0.372
		c9.941-2.012,17.564-7.476,24.631-13.507c1.301-1.108,1.543-3.98,1.037-5.763c-0.682-2.4-2.787-4.451-3.883-6.798
		c-2.75-5.885-4.006-6.237-9.432-2.44c-9.928,6.948-21.018,9.007-32.973,5.168c-4.586-1.472-8.936-3.817-12.957-6.313
		c-9.721-6.031-14.895-6.207-24.436-0.312c-2.357,1.457-5.051,2.494-7.395,3.965c-11.719,7.348-33.758,4.087-42.896-3.235
		c-6.521-5.223-14.221-6.631-20.924-3.48c-3.258,1.529-6.593,3.085-9.439,5.125c-11.884,8.514-29.29,7.797-42.182-0.193
		c-6.602-4.092-13.272-8.564-22.066-4.918c-5.079,2.105-10.209,4.197-14.988,6.773c-11.159,6.015-24.916,5.698-35.203-1.428
		c-3.773-2.614-7.3-5.57-10.567-8.678c-2.824-2.686-4.736-2.403-6.63,0.611c-2.652,4.221-5.414,8.388-7.955,12.66
		c-1.595,2.685-2.181,5.833,0.733,7.87c7.133,4.987,14.474,9.774,22.062,14.198c1.74,1.015,5.003,0.772,7.232,0.162
		c3.647-1,7.042-2.738,10.504-4.234c5.744-2.483,11.201-5.762,17.23-7.387c14.051-3.784,26.448-0.352,37.516,8.055
		c7.542,5.73,17.549,5.98,25.874,1.155c3.879-2.247,7.325-5.093,11.271-7.229c11.539-6.248,30.594-4.574,41.495,3.558
		c10.584,7.894,22.273,10.784,35.066,0.719c2.123-1.671,4.658-2.996,7.176-4.199c15.266-7.293,29.158-4.3,42.021,4.777
		C413.027,423.911,418.459,425.954,425.461,426.095z"/>
	<path style="fill-rule:evenodd;clip-rule:evenodd;" d="M225.95,340.172c-1.659,1.113-3.127,1.885-4.296,2.921
		c-5.061,4.486-9.537,5.269-13.839,2.289c-5.934-4.11-7.53-9.361-3.331-14.485c4.022-4.913,9.006-9.214,13.611-13.747
		c6.84-6.736,13.864-13.334,20.472-20.243c1.556-1.627,2.423-4.25,2.476-6.436c0.212-9.095-0.105-18.2-0.025-27.298
		c0.039-4.421,2.136-5.9,7.252-5.784c3.527,0.079,7.065,0.231,10.586,0.105c3.918-0.142,5.597,1.519,5.745,4.796
		c0.1,2.177,0.272,4.352,0.47,7.423c6.304-6.664,11.757-12.472,17.268-18.238c3.195-3.343,6.275-6.802,9.783-9.874
		c3.468-3.038,11.862-2.296,15.793,1.402c6.242,5.87,12.312,11.893,18.27,17.993c14.93,15.289,29.773,30.642,44.611,46.002
		c7.174,7.424,14.266,14.912,21.367,22.39c5.404,5.688,1.605,16-6.598,17.23c-1.959,0.294-4.521-0.91-6.352-2.015
		c-2.141-1.288-3.781-3.224-6.396-5.553c-0.35,2.079-0.719,3.257-0.717,4.437c0.01,9.642,0.209,19.285,0.031,28.924
		c-0.031,1.538-1.203,3.636-2.609,4.475c-5.393,3.216-10.867,6.468-16.74,8.882c-8.871,3.646-18.211,3.481-27.211,0.161
		c-4.484-1.653-9.002-3.65-12.775-6.306c-6.129-4.312-11.498-2.642-16.368,1.037c-9.3,7.022-20.27,8.642-31.53,7.007
		c-5.608-0.814-10.945-4.244-15.882-7.181c-4.571-2.719-8.365-4.993-13.684-1.176c-1.521,1.091-5.116,1.26-6.813,0.396
		c-1.396-0.709-1.91-3.572-1.922-5.486c-0.068-10.647,0.147-21.296,0.221-31.944C226.82,341.774,226.417,341.271,225.95,340.172z
		 M332.297,348.312c0,2.985-0.324,6.014,0.16,8.938c0.191,1.148,2.125,2.867,3.375,2.945c4.951,0.309,9.947,0.021,14.928,0.054
		c3.668,0.023,5.236-1.525,5.146-4.715c-0.098-3.553-0.045-7.109-0.025-10.663c0.045-8.869,0.053-8.869-10.098-8.775
		C332.318,336.22,332.318,336.22,332.297,348.312z"/>
	<path style="fill-rule:evenodd;clip-rule:evenodd;" d="M301.021,459.905c-54.967,0-109.933,0.001-164.899-0.004
		c-4.813-0.001-9.627-0.025-14.439-0.084c-4.138-0.049-5.441-1.607-3.435-4.817c5.828-9.313,11.908-18.504,17.937-27.718
		c1.788-2.732,3.61-2.66,6.557-0.689c7.102,4.752,14.323,9.464,22.01,13.409c11.078,5.687,21.281,1.315,31.421-3.132
		c6.428-2.818,13.086-5.326,19.871-7.378c5.764-1.743,10.53,1.454,15.188,3.916c7.129,3.765,13.851,7.825,22.566,8.954
		c9.715,1.259,18.006-1.15,26.068-5.143c4.02-1.992,7.594-4.699,11.639-6.645c5.263-2.531,10.884-2.505,16.222-0.086
		c4.695,2.129,9.246,4.521,13.76,6.945c10.885,5.842,22.455,6.792,34.201,2.989c5.09-1.647,9.793-4.545,14.215-7.426
		c9.039-5.891,18.088-5.489,29.326,1.982c14.928,9.924,30.51,10.064,46.42,2.267c5.297-2.598,10.213-5.846,15.115-9.024
		c3.357-2.181,5.01-2.033,7.117,1.393c5.207,8.467,10.371,16.952,15.586,25.412c2.043,3.315,1.182,4.729-3.092,4.758
		c-9.961,0.07-19.924,0.138-29.885,0.141c-49.822,0.015-99.646,0.007-149.469,0.007
		C301.021,459.923,301.021,459.913,301.021,459.905z"/>
	<path style="fill-rule:evenodd;clip-rule:evenodd;" d="M425.461,426.095c-7.002-0.141-12.434-2.184-17.4-5.691
		c-12.863-9.077-26.756-12.07-42.021-4.777c-2.518,1.203-5.053,2.528-7.176,4.199c-12.793,10.065-24.482,7.175-35.066-0.719
		c-10.9-8.132-29.956-9.806-41.495-3.558c-3.945,2.137-7.392,4.982-11.271,7.229c-8.325,4.825-18.332,4.575-25.874-1.155
		c-11.068-8.406-23.465-11.839-37.516-8.055c-6.03,1.625-11.487,4.903-17.23,7.387c-3.462,1.496-6.857,3.234-10.504,4.234
		c-2.229,0.61-5.492,0.853-7.232-0.162c-7.588-4.424-14.929-9.211-22.062-14.198c-2.914-2.037-2.328-5.186-0.733-7.87
		c2.541-4.272,5.303-8.439,7.955-12.66c1.894-3.015,3.807-3.297,6.63-0.611c3.267,3.107,6.794,6.063,10.567,8.678
		c10.287,7.126,24.043,7.442,35.203,1.428c4.779-2.576,9.91-4.668,14.988-6.773c8.794-3.646,15.465,0.826,22.066,4.918
		c12.892,7.99,30.298,8.707,42.182,0.193c2.846-2.04,6.181-3.596,9.439-5.125c6.703-3.15,14.402-1.742,20.924,3.48
		c9.139,7.322,31.178,10.583,42.896,3.235c2.344-1.471,5.037-2.508,7.395-3.965c9.541-5.895,14.715-5.719,24.436,0.312
		c4.021,2.496,8.371,4.842,12.957,6.313c11.955,3.839,23.045,1.78,32.973-5.168c5.426-3.797,6.682-3.444,9.432,2.44
		c1.096,2.347,3.201,4.397,3.883,6.798c0.506,1.782,0.264,4.654-1.037,5.763c-7.066,6.031-14.689,11.495-24.631,13.507
		C427.047,425.943,425.922,426.032,425.461,426.095z"/>
	<path style="fill-rule:evenodd;clip-rule:evenodd;fill:#FFFFFF;" d="M332.291,348.312c0.027-12.092,0.027-12.092,13.492-12.217
		c10.15-0.094,10.143-0.094,10.098,8.775c-0.02,3.554-0.072,7.11,0.025,10.663c0.09,3.189-1.479,4.738-5.146,4.715
		c-4.98-0.032-9.977,0.255-14.928-0.054c-1.25-0.078-3.184-1.797-3.375-2.945C331.973,354.325,332.297,351.297,332.291,348.312z"/>
</g>
</svg>
