<?xml version="1.0" encoding="iso-8859-1"?>
<!-- Generator: Adobe Illustrator 16.0.0, SVG Export Plug-In . SVG Version: 6.00 Build 0)  -->
<!DOCTYPE svg PUBLIC "-//W3C//DTD SVG 1.1//EN" "http://www.w3.org/Graphics/SVG/1.1/DTD/svg11.dtd">
<svg version="1.1" id="Layer_1" xmlns="http://www.w3.org/2000/svg" xmlns:xlink="http://www.w3.org/1999/xlink" x="0px" y="0px"
	 width="600px" height="600px" viewBox="0 0 600 600" style="enable-background:new 0 0 600 600;" xml:space="preserve">
<g style="opacity:0.3;">
	<path style="fill:#FFFFFF;" d="M301.99,81.164c12.775,2.862,19.797,11.376,26.252,21.356
		c63.984,98.91,128.262,197.656,192.457,296.448c19.455,29.938,38.945,59.852,58.35,89.814c7.275,11.233,2.344,23.808-10.926,28.354
		c-1.422,0.486-2.781,1.128-4.17,1.699c-177.785,0-355.566,0-533.348,0c-6.864-3.471-11.128-8.819-13.193-15.757
		c0-2.626,0-5.253,0-7.878c1.417-2.873,2.562-5.897,4.29-8.599c83.338-130.238,166.74-260.44,250.057-390.69
		c3.255-5.089,7.527-8.934,13.09-11.558c2.757-1.3,5.767-2.142,8.661-3.19C296.336,81.164,299.164,81.164,301.99,81.164
		 M302.212,79.164h-0.222h-8.481h-0.351l-0.33,0.12c-0.88,0.319-1.797,0.627-2.684,0.925c-2.038,0.685-4.146,1.393-6.149,2.337
		c-5.841,2.756-10.395,6.775-13.922,12.289c-47.56,74.352-95.944,149.932-142.736,223.024
		C91.56,373.744,55.782,429.631,20.017,485.524c-1.254,1.962-2.207,4.052-3.127,6.074c-0.41,0.9-0.834,1.831-1.271,2.718
		l-0.207,0.418v0.467v7.878v0.291l0.083,0.279c2.276,7.646,7.057,13.355,14.208,16.972l0.425,0.215h0.477h533.348h0.396l0.365-0.15
		c0.444-0.183,0.885-0.372,1.326-0.562c0.938-0.404,1.825-0.785,2.73-1.095c7.284-2.496,12.477-7.283,14.62-13.481
		c1.998-5.775,1.052-12.115-2.663-17.852c-13.59-20.985-27.45-42.297-40.854-62.907c-5.833-8.969-11.667-17.938-17.497-26.91
		c-14.045-21.614-28.094-43.227-42.144-64.839c-49.323-75.877-100.327-154.338-150.311-231.606
		c-5.878-9.088-13.335-19.049-27.494-22.222L302.212,79.164L302.212,79.164z"/>
</g>
<path style="fill:#ED1C24;stroke:#000000;stroke-width:2;stroke-miterlimit:10;" d="M17.412,503.079c0-2.626,0-5.253,0-7.878
	c1.417-2.873,2.562-5.897,4.29-8.599c83.338-130.238,166.74-260.44,250.057-390.69c3.255-5.089,7.527-8.934,13.09-11.558
	c2.757-1.3,5.767-2.142,8.661-3.19c2.827,0,5.654,0,8.481,0c12.775,2.862,19.797,11.376,26.252,21.356
	c63.984,98.91,128.262,197.656,192.457,296.448c19.455,29.938,38.945,59.852,58.35,89.814c7.275,11.233,2.344,23.808-10.926,28.354
	c-1.422,0.486-2.781,1.128-4.17,1.699c-177.785,0-355.566,0-533.348,0C23.741,515.365,19.477,510.017,17.412,503.079z"/>
<path style="fill-rule:evenodd;clip-rule:evenodd;fill:#FFFFFF;" d="M298.396,155.66c66.18,103.2,131.87,205.636,198.237,309.128
	c-131.123,0-261.259,0-392.014,0C169.053,361.998,233.519,259.157,298.396,155.66z"/>
<path style="fill:none;stroke:#000000;stroke-width:1.5;stroke-miterlimit:10;" d="M298.396,155.66
	c-64.877,103.497-129.343,206.338-193.777,309.128c130.755,0,260.891,0,392.014,0C430.266,361.296,364.576,258.86,298.396,155.66z"
	/>
<g>
	<path style="fill-rule:evenodd;clip-rule:evenodd;" d="M185.387,345.356c11.899,2.515,20.033,0.483,27.522-8.722
		c15.613-19.191,32.772-37.118,49.059-55.772c3.714-4.254,7.597-5.891,13.284-5.736c17.177,0.462,34.378,0.053,51.552,0.546
		c3.278,0.094,7.371,1.938,9.584,4.351c17.938,19.572,36.035,39.043,52.959,59.478c7.263,8.771,15.088,6.544,24.768,6.42
		c-1.491-2.423-2.079-3.822-3.041-4.878c-23.601-25.884-47.32-51.661-70.783-77.669c-3.061-3.391-6.159-4.379-10.445-4.335
		c-19.864,0.207-39.733,0.316-59.598,0.113c-5.093-0.052-8.717,1.371-12.173,5.212c-22.831,25.369-45.882,50.538-68.831,75.8
		C187.982,341.552,186.989,343.184,185.387,345.356z"/>
	<path style="stroke:#010101;stroke-width:0.7854;stroke-miterlimit:10;" d="M185.387,345.356c1.603-2.173,2.595-3.805,3.857-5.192
		c22.949-25.263,46-50.432,68.831-75.8c3.456-3.841,7.08-5.264,12.173-5.212c19.865,0.203,39.733,0.094,59.598-0.113
		c4.286-0.044,7.385,0.944,10.445,4.335c23.463,26.008,47.183,51.785,70.783,77.669c0.962,1.056,1.55,2.455,3.041,4.878
		c-9.68,0.124-17.505,2.351-24.768-6.42c-16.924-20.435-35.021-39.906-52.959-59.478c-2.213-2.414-6.306-4.257-9.584-4.351
		c-17.174-0.493-34.375-0.083-51.552-0.546c-5.688-0.154-9.57,1.482-13.284,5.736c-16.287,18.655-33.446,36.581-49.059,55.772
		C205.42,345.84,197.286,347.871,185.387,345.356z"/>
</g>
<g>
	<path style="fill:#FFFFFF;" d="M279.408,338.943c3.475-0.969,2.913,1.313,2.913,3.012c0.012,35.087,0.008,70.173,0.013,105.26
		c0,1.268-0.011,2.539,0.087,3.8c0.38,4.877,3.246,7.717,7.843,7.828c4.696,0.114,7.894-2.758,8.416-7.625
		c0.135-1.255,0.14-2.53,0.142-3.796c0.007-19.762,0.001-39.525,0.009-59.286c0.002-3.113,0.027-3.113,2.81-2.625
		c0,1.114,0,2.263,0,3.413c0,19.656,0,39.312,0.003,58.97c0,1.162-0.047,2.331,0.063,3.485c0.424,4.487,3.783,7.483,8.305,7.473
		c4.576-0.013,7.773-2.979,8.108-7.585c0.092-1.262,0.056-2.534,0.056-3.801c0.002-34.981,0.002-69.962,0.002-104.942
		c0-1.225,0-2.449,0-3.527c2.951-0.93,2.949,0.665,2.947,2.426c-0.013,12.469-0.063,24.94,0.061,37.409
		c0.041,4.178,2.585,6.653,6.15,6.583c3.427-0.068,5.929-2.518,5.954-6.506c0.089-15.005,0.236-30.017-0.095-45.016
		c-0.193-8.79-6.94-16.772-14.915-17.2c-11.58-0.621-23.212-0.285-34.822-0.312c-1.037-0.003-2.1,0.243-3.107,0.527
		c-8.327,2.353-13.291,9.388-13.356,19.273c-0.093,13.631-0.032,27.266-0.009,40.898c0.003,1.151,0.153,2.318,0.366,3.453
		c0.566,3.015,2.53,4.525,5.494,4.739c3.053,0.221,5.378-1.408,6.102-4.369c0.346-1.416,0.438-2.921,0.443-4.385
		C279.422,364.056,279.408,351.596,279.408,338.943z"/>
	<path style="fill-rule:evenodd;clip-rule:evenodd;" d="M302.91,283.596c1.951,0.994,4.086,1.745,5.825,3.031
		c5.257,3.891,6.999,10.737,4.503,16.723c-2.43,5.829-8.608,9.454-14.766,8.662c-6.573-0.846-11.476-5.769-12.446-12.496
		c-0.875-6.067,2.744-12.234,8.651-14.759c0.851-0.364,1.681-0.773,2.522-1.161C299.102,283.596,301.006,283.596,302.91,283.596z"/>
	<path style="fill-rule:evenodd;clip-rule:evenodd;" d="M279.408,338.943c0,12.652,0.014,25.112-0.018,37.574
		c-0.004,1.464-0.097,2.969-0.443,4.385c-0.723,2.961-3.049,4.59-6.102,4.369c-2.964-0.214-4.928-1.725-5.494-4.739
		c-0.213-1.135-0.363-2.302-0.366-3.453c-0.023-13.633-0.084-27.268,0.009-40.898c0.066-9.886,5.03-16.921,13.356-19.273
		c1.007-0.284,2.07-0.53,3.107-0.527c11.61,0.027,23.242-0.309,34.822,0.312c7.975,0.428,14.722,8.41,14.915,17.2
		c0.331,14.999,0.184,30.011,0.095,45.016c-0.025,3.988-2.527,6.438-5.954,6.506c-3.565,0.07-6.109-2.405-6.15-6.583
		c-0.124-12.469-0.073-24.94-0.061-37.409c0.002-1.761,0.004-3.355-2.947-2.426c0,1.078,0,2.303,0,3.527
		c0,34.98,0,69.961-0.002,104.942c0,1.267,0.036,2.539-0.056,3.801c-0.335,4.605-3.532,7.572-8.108,7.585
		c-4.521,0.011-7.881-2.985-8.305-7.473c-0.11-1.154-0.063-2.323-0.063-3.485c-0.003-19.657-0.003-39.313-0.003-58.97
		c0-1.15,0-2.299,0-3.413c-2.782-0.488-2.808-0.488-2.81,2.625c-0.008,19.761-0.001,39.524-0.009,59.286
		c-0.002,1.266-0.007,2.541-0.142,3.796c-0.521,4.867-3.719,7.739-8.416,7.625c-4.597-0.111-7.463-2.951-7.843-7.828
		c-0.098-1.261-0.087-2.532-0.087-3.8c-0.004-35.087-0.001-70.173-0.013-105.26C282.321,340.257,282.883,337.975,279.408,338.943z"
		/>
</g>
</svg>
