<?xml version="1.0" encoding="iso-8859-1"?>
<!-- Generator: Adobe Illustrator 16.0.0, SVG Export Plug-In . SVG Version: 6.00 Build 0)  -->
<!DOCTYPE svg PUBLIC "-//W3C//DTD SVG 1.1//EN" "http://www.w3.org/Graphics/SVG/1.1/DTD/svg11.dtd">
<svg version="1.1" id="Layer_1" xmlns="http://www.w3.org/2000/svg" xmlns:xlink="http://www.w3.org/1999/xlink" x="0px" y="0px"
	 width="600px" height="600px" viewBox="0 0 600 600" style="enable-background:new 0 0 600 600;" xml:space="preserve">
<g style="opacity:0.3;">
	<path style="fill:#FFFFFF;" d="M301.99,81.164c12.775,2.862,19.797,11.376,26.252,21.356
		c63.984,98.91,128.262,197.656,192.457,296.448c19.455,29.938,38.945,59.852,58.35,89.814c7.275,11.233,2.344,23.808-10.926,28.354
		c-1.422,0.486-2.781,1.128-4.17,1.699c-177.785,0-355.566,0-533.348,0c-6.864-3.471-11.128-8.819-13.193-15.757
		c0-2.626,0-5.253,0-7.878c1.417-2.873,2.562-5.897,4.29-8.599c83.338-130.238,166.74-260.44,250.057-390.69
		c3.255-5.089,7.527-8.934,13.09-11.558c2.757-1.3,5.767-2.142,8.661-3.19C296.336,81.164,299.164,81.164,301.99,81.164
		 M302.212,79.164h-0.222h-8.481h-0.351l-0.33,0.12c-0.88,0.319-1.797,0.627-2.684,0.925c-2.038,0.685-4.146,1.393-6.149,2.337
		c-5.841,2.756-10.395,6.775-13.922,12.289c-47.56,74.352-95.944,149.932-142.736,223.024
		C91.56,373.744,55.782,429.631,20.017,485.524c-1.254,1.962-2.207,4.052-3.127,6.074c-0.41,0.9-0.834,1.831-1.271,2.718
		l-0.207,0.418v0.467v7.878v0.291l0.083,0.279c2.276,7.646,7.057,13.355,14.208,16.972l0.425,0.215h0.477h533.348h0.396l0.365-0.15
		c0.444-0.183,0.885-0.372,1.326-0.562c0.938-0.404,1.825-0.785,2.73-1.095c7.284-2.496,12.477-7.283,14.62-13.481
		c1.998-5.775,1.052-12.115-2.663-17.852c-13.59-20.985-27.45-42.297-40.854-62.907c-5.833-8.969-11.667-17.938-17.497-26.91
		c-14.045-21.614-28.094-43.227-42.144-64.839c-49.323-75.877-100.327-154.338-150.311-231.606
		c-5.878-9.088-13.335-19.049-27.494-22.222L302.212,79.164L302.212,79.164z"/>
</g>
<path style="fill:#ED1C24;stroke:#000000;stroke-width:2;stroke-miterlimit:10;" d="M17.412,503.079c0-2.626,0-5.253,0-7.878
	c1.417-2.873,2.562-5.897,4.29-8.599c83.338-130.238,166.74-260.44,250.057-390.69c3.255-5.089,7.527-8.934,13.09-11.558
	c2.757-1.3,5.767-2.142,8.661-3.19c2.827,0,5.654,0,8.481,0c12.775,2.862,19.797,11.376,26.252,21.356
	c63.984,98.91,128.262,197.656,192.457,296.448c19.455,29.938,38.945,59.852,58.35,89.814c7.275,11.233,2.344,23.808-10.926,28.354
	c-1.422,0.486-2.781,1.128-4.17,1.699c-177.785,0-355.566,0-533.348,0C23.741,515.365,19.477,510.017,17.412,503.079z"/>
<path style="fill-rule:evenodd;clip-rule:evenodd;fill:#FFFFFF;" d="M298.396,155.66c66.18,103.2,131.87,205.636,198.237,309.128
	c-131.123,0-261.259,0-392.014,0C169.053,361.998,233.519,259.157,298.396,155.66z"/>
<path style="fill:none;stroke:#000000;stroke-width:1.5;stroke-miterlimit:10;" d="M298.396,155.66
	c-64.877,103.497-129.343,206.338-193.777,309.128c130.755,0,260.891,0,392.014,0C430.266,361.296,364.576,258.86,298.396,155.66z"
	/>
<g>
	<title>Layer 1</title>
	<path id="path8248" style="fill:#010101;" d="M303.081,303.813c8.611,0,15.595-7.007,15.595-15.618
		c0-8.611-6.983-15.595-15.595-15.595c-8.635,0-15.618,6.984-15.618,15.595C287.463,296.807,294.446,303.813,303.081,303.813"/>
	<path id="path8256" style="fill:#010101;" d="M249.337,315.397l-24.276,28.052c-1.439,1.77-3.61,2.854-6.063,2.854
		c-4.341,0-7.856-3.515-7.856-7.832c0-2.359,1.015-4.459,2.643-5.898l26.188-30.151c1.438-1.722,3.609-2.831,6.063-2.831
		l37.891-0.023c2.783,0,5.284,1.133,7.124,2.901l24.159,24.159l20.03-19.983c1.416-1.203,3.232-1.911,5.214-1.911
		c4.483,0,8.093,3.634,8.093,8.117c0,1.957-0.662,3.727-1.816,5.143l-24.136,24.323c-7.337,7.314-13.235,1.108-13.235,1.108
		l-14.816-14.886l-23.144,26.777l21.209,21.21c0,0,4.483,4.152,1.911,12.409l-11.891,53.014c-0.944,4.6-5,8.068-9.861,8.068
		c-5.591,0-10.098-4.531-10.098-10.098c0-0.896,0.094-1.746,0.307-2.549l9.792-43.48l-24.112-23.428l-20.738,23.121
		c0,0-3.35,4.128-12.245,3.821l-42.065,0.07c-4.695,0.071-8.965-3.137-10.003-7.903c-1.251-5.426,2.099-10.758,7.549-11.96
		c0.85-0.189,1.699-0.26,2.525-0.237l36.167,0.095l53.484-62.001L249.337,315.397z"/>
</g>
<g>
	<path style="fill-rule:evenodd;clip-rule:evenodd;" d="M314.967,391.792c0-7.717,0-15.188,0-22.897c23.92,0,47.842,0,72.08,0
		c-0.784-2.608-1.477-4.915-2.17-7.22c-0.737-2.454-1.517-4.894-2.198-7.362c-0.558-2.019-0.532-3.96,1.341-5.396
		c1.691-1.298,3.948-1.368,5.922-0.046c15.386,10.294,30.756,20.611,46.129,30.926c0.153,0.103,0.277,0.25,0.532,0.482
		c-0.409,0.331-0.764,0.663-1.162,0.931c-17.673,11.883-32.631,21.934-44.977,30.226c-2.258,1.516-4.398,1.601-6.247,0.293
		c-1.769-1.25-2.241-3.134-1.426-5.878c1.367-4.592,2.757-9.18,4.225-14.058C362.889,391.792,338.982,391.792,314.967,391.792z"/>
</g>
</svg>
