<?xml version="1.0" encoding="iso-8859-1"?>
<!-- Generator: Adobe Illustrator 16.0.0, SVG Export Plug-In . SVG Version: 6.00 Build 0)  -->
<!DOCTYPE svg PUBLIC "-//W3C//DTD SVG 1.1//EN" "http://www.w3.org/Graphics/SVG/1.1/DTD/svg11.dtd">
<svg version="1.1" id="Layer_1" xmlns="http://www.w3.org/2000/svg" xmlns:xlink="http://www.w3.org/1999/xlink" x="0px" y="0px"
	 width="600px" height="600px" viewBox="0 0 600 600" style="enable-background:new 0 0 600 600;" xml:space="preserve">
<g style="opacity:0.3;">
	<path style="fill:#FFFFFF;" d="M301.99,81.164c12.775,2.862,19.797,11.376,26.252,21.356
		c63.984,98.91,128.262,197.656,192.457,296.448c19.455,29.938,38.945,59.852,58.35,89.814c7.275,11.233,2.344,23.808-10.926,28.354
		c-1.422,0.486-2.781,1.128-4.17,1.699c-177.785,0-355.566,0-533.348,0c-6.864-3.471-11.128-8.819-13.193-15.757
		c0-2.626,0-5.253,0-7.878c1.417-2.873,2.562-5.897,4.29-8.599c83.338-130.238,166.74-260.44,250.057-390.69
		c3.255-5.089,7.527-8.934,13.09-11.558c2.757-1.3,5.767-2.142,8.661-3.19C296.336,81.164,299.164,81.164,301.99,81.164
		 M302.212,79.164h-0.222h-8.481h-0.351l-0.33,0.12c-0.88,0.319-1.797,0.627-2.684,0.925c-2.038,0.685-4.146,1.393-6.149,2.337
		c-5.841,2.756-10.395,6.775-13.922,12.289c-47.56,74.352-95.944,149.932-142.736,223.024
		C91.56,373.744,55.782,429.631,20.017,485.524c-1.254,1.962-2.207,4.052-3.127,6.074c-0.41,0.9-0.834,1.831-1.271,2.718
		l-0.207,0.418v0.467v7.878v0.291l0.083,0.279c2.276,7.646,7.057,13.355,14.208,16.972l0.425,0.215h0.477h533.348h0.396l0.365-0.15
		c0.444-0.183,0.885-0.372,1.326-0.562c0.938-0.404,1.825-0.785,2.73-1.095c7.284-2.496,12.477-7.283,14.62-13.481
		c1.998-5.775,1.052-12.115-2.663-17.852c-13.59-20.985-27.45-42.297-40.854-62.907c-5.833-8.969-11.667-17.938-17.497-26.91
		c-14.045-21.614-28.094-43.227-42.144-64.839c-49.323-75.877-100.327-154.338-150.311-231.606
		c-5.878-9.088-13.335-19.049-27.494-22.222L302.212,79.164L302.212,79.164z"/>
</g>
<path style="fill:#ED1C24;stroke:#000000;stroke-width:2;stroke-miterlimit:10;" d="M17.412,503.079c0-2.626,0-5.253,0-7.878
	c1.417-2.873,2.562-5.897,4.29-8.599c83.338-130.238,166.74-260.44,250.057-390.69c3.255-5.089,7.527-8.934,13.09-11.558
	c2.757-1.3,5.767-2.142,8.661-3.19c2.827,0,5.654,0,8.481,0c12.775,2.862,19.797,11.376,26.252,21.356
	c63.984,98.91,128.262,197.656,192.457,296.448c19.455,29.938,38.945,59.852,58.35,89.814c7.275,11.233,2.344,23.808-10.926,28.354
	c-1.422,0.486-2.781,1.128-4.17,1.699c-177.785,0-355.566,0-533.348,0C23.741,515.365,19.477,510.017,17.412,503.079z"/>
<path style="fill-rule:evenodd;clip-rule:evenodd;fill:#FFFFFF;" d="M298.396,155.66c66.18,103.2,131.87,205.636,198.237,309.128
	c-131.123,0-261.259,0-392.014,0C169.053,361.998,233.519,259.157,298.396,155.66z"/>
<path style="fill:none;stroke:#000000;stroke-width:1.5;stroke-miterlimit:10;" d="M298.396,155.66
	c-64.877,103.497-129.343,206.338-193.777,309.128c130.755,0,260.891,0,392.014,0C430.266,361.296,364.576,258.86,298.396,155.66z"
	/>
<path style="fill:none;stroke:#231F20;stroke-width:11;stroke-miterlimit:10;" d="M212.027,383.568l90.741-0.012l90.743-0.011
	c0,0,0.559-0.112,1.193-0.271c0.641-0.159,1.357-0.368,1.676-0.562c19.861-12.132,15.565-27.372,9.799-37.026
	c-7.863-10.806-20.691-11.147-20.649-12.235c0.767-19.624-8.769-27.524-18.552-30.583c-9.782-3.057-19.814-1.271-20.038-1.519
	c-26.19-28.956-52.384-28.667-72.293-18.86c-19.909,9.806-33.532,29.131-34.583,38.245c-0.056,0.484-2.729,0.669-5.829,0.825
	s-6.628,0.285-8.395,0.654c-14.04,2.942-23.691,10.055-29.28,18.51c-5.589,8.453-7.119,18.254-4.919,26.572
	c0.687,2.598,2.38,6.814,5.021,10.303c2.641,3.492,6.229,6.255,10.705,5.948c0.376-0.027,1.541-0.021,2.611-0.009
	C211.05,383.55,212.027,383.568,212.027,383.568z"/>
<rect x="243.455" y="369.178" style="fill:#FFFFFF;" width="105.485" height="21.249"/>
<polygon points="273.866,367.252 316.037,367.252 292.726,390.792 316.719,391.313 242.595,457.334 269.848,400.243 242.11,399.758 
	"/>
<polygon points="323.073,392.013 344.479,392.013 332.646,403.961 344.825,404.226 307.201,437.736 321.034,408.759 
	306.956,408.513 "/>
</svg>
