<?xml version="1.0" encoding="iso-8859-1"?>
<!-- Generator: Adobe Illustrator 16.0.0, SVG Export Plug-In . SVG Version: 6.00 Build 0)  -->
<!DOCTYPE svg PUBLIC "-//W3C//DTD SVG 1.1//EN" "http://www.w3.org/Graphics/SVG/1.1/DTD/svg11.dtd">
<svg version="1.1" id="Layer_1" xmlns="http://www.w3.org/2000/svg" xmlns:xlink="http://www.w3.org/1999/xlink" x="0px" y="0px"
	 width="600px" height="600px" viewBox="0 0 600 600" style="enable-background:new 0 0 600 600;" xml:space="preserve">
<g style="opacity:0.3;">
	<path style="fill:#FFFFFF;" d="M301.99,81.164c12.775,2.862,19.797,11.376,26.252,21.356
		c63.984,98.91,128.262,197.656,192.457,296.448c19.455,29.938,38.945,59.852,58.35,89.814c7.275,11.233,2.344,23.808-10.926,28.354
		c-1.422,0.486-2.781,1.128-4.17,1.699c-177.785,0-355.566,0-533.348,0c-6.864-3.471-11.128-8.819-13.193-15.757
		c0-2.626,0-5.253,0-7.878c1.417-2.873,2.562-5.897,4.29-8.599c83.338-130.238,166.74-260.44,250.057-390.69
		c3.255-5.089,7.527-8.934,13.09-11.558c2.757-1.3,5.767-2.142,8.661-3.19C296.336,81.164,299.164,81.164,301.99,81.164
		 M302.212,79.164h-0.222h-8.481h-0.351l-0.33,0.12c-0.88,0.319-1.797,0.627-2.684,0.925c-2.038,0.685-4.146,1.393-6.149,2.337
		c-5.841,2.756-10.395,6.775-13.922,12.289c-47.56,74.352-95.944,149.932-142.736,223.024
		C91.56,373.744,55.782,429.631,20.017,485.524c-1.254,1.962-2.207,4.052-3.127,6.074c-0.41,0.9-0.834,1.831-1.271,2.718
		l-0.207,0.418v0.467v7.878v0.291l0.083,0.279c2.276,7.646,7.057,13.355,14.208,16.972l0.425,0.215h0.477h533.348h0.396l0.365-0.15
		c0.444-0.183,0.885-0.372,1.326-0.562c0.938-0.404,1.825-0.785,2.73-1.095c7.284-2.496,12.477-7.283,14.62-13.481
		c1.998-5.775,1.052-12.115-2.663-17.852c-13.59-20.985-27.45-42.297-40.854-62.907c-5.833-8.969-11.667-17.938-17.497-26.91
		c-14.045-21.614-28.094-43.227-42.144-64.839c-49.323-75.877-100.327-154.338-150.311-231.606
		c-5.878-9.088-13.335-19.049-27.494-22.222L302.212,79.164L302.212,79.164z"/>
</g>
<path style="fill:#ED1C24;stroke:#000000;stroke-width:2;stroke-miterlimit:10;" d="M17.412,503.079c0-2.626,0-5.253,0-7.878
	c1.417-2.873,2.562-5.897,4.29-8.599c83.338-130.238,166.74-260.44,250.057-390.69c3.255-5.089,7.527-8.934,13.09-11.558
	c2.757-1.3,5.767-2.142,8.661-3.19c2.827,0,5.654,0,8.481,0c12.775,2.862,19.797,11.376,26.252,21.356
	c63.984,98.91,128.262,197.656,192.457,296.448c19.455,29.938,38.945,59.852,58.35,89.814c7.275,11.233,2.344,23.808-10.926,28.354
	c-1.422,0.486-2.781,1.128-4.17,1.699c-177.785,0-355.566,0-533.348,0C23.741,515.365,19.477,510.017,17.412,503.079z"/>
<path style="fill-rule:evenodd;clip-rule:evenodd;fill:#FFFFFF;" d="M298.396,155.66c66.18,103.2,131.87,205.636,198.237,309.128
	c-131.123,0-261.259,0-392.014,0C169.053,361.998,233.519,259.157,298.396,155.66z"/>
<path style="fill:none;stroke:#000000;stroke-width:1.5;stroke-miterlimit:10;" d="M298.396,155.66
	c-64.877,103.497-129.343,206.338-193.777,309.128c130.755,0,260.891,0,392.014,0C430.266,361.296,364.576,258.86,298.396,155.66z"
	/>
<g id="layer1" inkscape:label="ImageIcon" inkscape:groupmode="layer">
	<g id="layer1-0" transform="translate(-768.48479,-309.46092)" inkscape:label="Prohibit">
	</g>
	<g id="layer2" transform="translate(-768.48479,-309.46092)" inkscape:label="Man">
	</g>
	<g id="layer1-3" transform="translate(-2309.8128,499.39656)" inkscape:label="Prohibit" style="display:none;">
		<path id="path6220" inkscape:connector-curvature="0" style="display:inline;fill:#ED2224;stroke:#E31E26;stroke-width:25;" d="
			M1449.59,116.023l157.301,186.514L1449.59,116.023z"/>
		
			<ellipse id="path6217" style="display:inline;opacity:0.98;fill:none;stroke:#E51E25;stroke-width:20;stroke-linecap:square;stroke-linejoin:bevel;enable-background:new    ;" cx="1523.184" cy="210.966" rx="120.785" ry="118.538"/>
	</g>
	<g id="layer1-1" transform="translate(-769.3654,-308.85071)" inkscape:label="Prohibit" style="display:none;">
		<path id="path6220-2" inkscape:connector-curvature="0" style="display:inline;fill:#ED2224;stroke:#E31E26;stroke-width:25;" d="
			M1449.59,116.024l157.301,186.514L1449.59,116.024z"/>
		
			<ellipse id="path6217-1" style="display:inline;opacity:0.98;fill:none;stroke:#E51E25;stroke-width:20;stroke-linecap:square;stroke-linejoin:bevel;enable-background:new    ;" cx="1523.184" cy="210.966" rx="120.785" ry="118.538"/>
	</g>
</g>
<g id="g19845_1_" transform="matrix(0.9815818,0,0,0.9253533,-3.6453588,-0.61782547)">
	
		<path id="path19835_1_" sodipodi:nodetypes="csssscsscsssssc" inkscape:connector-curvature="0" style="fill:#9D9FA2;stroke:#000000;stroke-miterlimit:10;" d="
		M289.131,320.429c-13.196-2.701-21.318-5.691-23.583-8.683c-0.967-1.279-0.588-2.428,2.919-8.838
		c5.378-9.825,9.643-21.009,11.204-29.364c1.894-10.144,3.12-27.863,2.479-35.857l-0.562-7.029l2.938,0.602
		c14.504,2.968,30.117,2.993,45.937,0.071l3.338-0.616l0.561,19.483c0.562,19.725,0.817,21.836,3.635,30.637
		c1.547,4.819,8.159,19.536,11.704,26.03c2.231,4.095,1.488,5.384-4.902,8.473c-8.271,3.999-13.266,6.96-34.017,7.349
		C299.997,322.888,290.254,320.656,289.131,320.429z"/>
	<path id="path19837_1_" inkscape:connector-curvature="0" style="fill:#9D9FA2;stroke:#000000;stroke-miterlimit:10;" d="
		M292.959,233.78c-6.774-1.245-11.672-3.15-10.642-4.139c0.416-0.399,4.188-1.602,8.385-2.675
		c9.987-2.554,21.609-2.639,32.953-0.239c12.325,2.605,12.865,3.485,3.715,6.028C320.523,234.657,300.909,235.242,292.959,233.78z"
		/>
</g>
<g id="g19857_1_" transform="matrix(0.16449659,0,0,0.19002701,10.117409,56.047877)">
	
		<path id="path19849_1_" inkscape:connector-curvature="0" style="fill:#090A07;stroke:#010101;stroke-width:0.1069;stroke-linecap:round;stroke-linejoin:round;" d="
		M1709.204,2123.054c-10.686-0.766-20.674-2.41-22.209-3.664c-1.532-1.264-11.983-3.448-23.254-4.872
		c-34.352-4.327-107.528-31.369-122.559-45.327l-5.343-4.949l6.147-10.895c25.201-44.587,135.762-211.858,160.708-243.119
		l3.651-4.538l7.115,4.379c5.767,3.551,10.591,4.569,25.528,5.283c19.033,0.894,52.718-2.107,62.839-5.612
		c7.646-2.657,11.001,0.576,30.093,28.789c27.481,40.614,127.389,197.489,138.449,217.414c4.654,8.377,4.714,13.634,0.16,16.178
		c-8.222,4.625-58.173,25.536-72.403,30.295c-9.071,3.068-27,7.339-39.835,9.497c-12.865,2.194-25.925,5.283-29.018,6.871
		C1818.801,2124.205,1756.68,2126.42,1709.204,2123.054L1709.204,2123.054z"/>
	
		<path id="path19851_1_" inkscape:connector-curvature="0" style="fill:#090A07;stroke:#010101;stroke-width:0.1069;stroke-linecap:round;stroke-linejoin:round;" d="
		M1725.993,1790.108c-20.532-5.771-48.449-27.006-60.863-46.385c-12.66-19.703-17.941-49.181-13.467-75.097
		c6.085-35.254,31.648-64.208,69.729-78.988c26.213-10.18,45.876-8.757,73.917,5.283c41.675,20.885,68.076,68.53,61.498,110.953
		c-2.624,16.748-8.062,27.504-22.542,44.443c-14.355,16.779-34.367,32.001-48.882,37.197
		C1770.494,1792.822,1740.378,1794.137,1725.993,1790.108z"/>
	
		<path id="path19853_1_" inkscape:connector-curvature="0" style="fill:#090A07;stroke:#010101;stroke-width:0.1069;stroke-linecap:round;stroke-linejoin:round;" d="
		M1363.45,1679.11c-32.865-0.714-61.177-1.891-62.917-2.657c-4.726-2.025-5.483-8.125-3.366-26.821
		c4.868-42.916,19.365-97.241,34.05-127.649c31.268-64.675,62.839-108.326,108.112-149.46c34.525-31.39,69.854-55.805,76.856-53.123
		c3.859,1.506,16.014,20.69,37.846,59.855c10.119,18.146,34.7,61.715,54.602,96.748c42.162,74.224,58.349,104.493,58.349,109.149
		c0,1.804-5.928,9.194-13.185,16.424c-18.73,18.603-32.595,43.543-38.128,68.581l-2.401,10.89l-95.04-0.324
		C1465.964,1680.559,1396.316,1679.819,1363.45,1679.11z"/>
	
		<path id="path19855_1_" inkscape:connector-curvature="0" style="fill:#090A07;stroke:#010101;stroke-width:0.1069;stroke-linecap:round;stroke-linejoin:round;" d="
		M1904.2,1668.271c-16.884-0.689-18.938-1.758-19.068-9.96c-0.214-15.14-17.038-46.94-37.906-71.685l-11.666-13.793l52.64-94.338
		c46.419-83.119,85.613-152.091,93.805-165.01c3.704-5.853,7.997-5.36,22.352,2.549c31.144,17.103,80.436,61.607,115.373,104.195
		c19.852,24.164,44.988,69.511,60.382,108.979c14.515,37.253,23.907,79.861,26.846,121.986l1.264,18.495l-143.982-0.411
		C1985.045,1669.094,1913.021,1668.626,1904.2,1668.271z"/>
</g>
</svg>
