<?xml version="1.0" encoding="iso-8859-1"?>
<!-- Generator: Adobe Illustrator 16.0.0, SVG Export Plug-In . SVG Version: 6.00 Build 0)  -->
<!DOCTYPE svg PUBLIC "-//W3C//DTD SVG 1.1//EN" "http://www.w3.org/Graphics/SVG/1.1/DTD/svg11.dtd">
<svg version="1.1" id="Layer_1" xmlns="http://www.w3.org/2000/svg" xmlns:xlink="http://www.w3.org/1999/xlink" x="0px" y="0px"
	 width="600px" height="600px" viewBox="0 0 600 600" style="enable-background:new 0 0 600 600;" xml:space="preserve">
<g style="opacity:0.3;">
	<path style="fill:#FFFFFF;" d="M302.145,81.164c12.775,2.862,19.796,11.376,26.251,21.356
		c63.985,98.91,128.263,197.656,192.458,296.448c19.454,29.938,38.945,59.852,58.35,89.814c7.275,11.233,2.343,23.808-10.926,28.354
		c-1.422,0.486-2.781,1.128-4.17,1.699c-177.785,0-355.566,0-533.349,0c-6.864-3.471-11.128-8.819-13.193-15.757
		c0-2.626,0-5.253,0-7.878c1.417-2.873,2.562-5.897,4.29-8.599c83.338-130.238,166.74-260.44,250.057-390.69
		c3.255-5.089,7.527-8.934,13.09-11.558c2.757-1.3,5.767-2.142,8.661-3.19C296.49,81.164,299.317,81.164,302.145,81.164
		 M302.366,79.164h-0.222h-8.481h-0.351l-0.331,0.12c-0.879,0.319-1.797,0.627-2.684,0.925c-2.038,0.685-4.146,1.393-6.149,2.337
		c-5.841,2.756-10.395,6.775-13.922,12.289c-47.569,74.365-95.962,149.959-142.763,223.065
		C91.696,373.772,55.927,429.646,20.171,485.524c-1.254,1.962-2.207,4.052-3.127,6.073c-0.41,0.9-0.834,1.832-1.271,2.719
		l-0.207,0.418v0.467v7.878v0.291l0.083,0.279c2.276,7.646,7.057,13.355,14.208,16.972l0.425,0.215h0.477h533.349h0.396l0.365-0.15
		c0.444-0.183,0.886-0.372,1.327-0.562c0.938-0.403,1.824-0.784,2.729-1.094c7.284-2.496,12.477-7.284,14.62-13.482
		c1.998-5.775,1.052-12.115-2.663-17.851c-13.466-20.793-27.198-41.908-40.479-62.329c-5.958-9.162-11.917-18.324-17.872-27.488
		c-14.067-21.648-28.139-43.295-42.21-64.941c-49.302-75.844-100.282-154.27-150.245-231.503
		c-5.878-9.088-13.335-19.049-27.493-22.222L302.366,79.164L302.366,79.164z"/>
</g>
<path style="fill:#F68B1F;stroke:#000000;stroke-width:2;stroke-miterlimit:10;" d="M17.565,503.079c0-2.626,0-5.253,0-7.878
	c1.417-2.873,2.562-5.897,4.29-8.599c83.338-130.238,166.74-260.44,250.057-390.69c3.255-5.089,7.527-8.934,13.09-11.558
	c2.757-1.3,5.767-2.142,8.661-3.19c2.827,0,5.654,0,8.481,0c12.775,2.862,19.796,11.376,26.251,21.356
	c63.985,98.91,128.263,197.656,192.458,296.448c19.454,29.938,38.945,59.852,58.35,89.814c7.275,11.233,2.343,23.808-10.926,28.354
	c-1.422,0.486-2.781,1.128-4.17,1.699c-177.785,0-355.566,0-533.349,0C23.895,515.365,19.631,510.017,17.565,503.079z"/>
<path style="fill-rule:evenodd;clip-rule:evenodd;fill:#FFFFFF;" d="M298.55,155.66c66.18,103.2,131.869,205.636,198.236,309.128
	c-131.123,0-261.259,0-392.014,0C169.207,361.998,233.673,259.157,298.55,155.66z"/>
<path style="fill:none;stroke:#000000;stroke-width:1.5;stroke-miterlimit:10;" d="M298.55,155.66
	c-64.877,103.497-129.343,206.338-193.777,309.128c130.755,0,260.891,0,392.014,0C430.419,361.296,364.729,258.86,298.55,155.66z"/>
<g>
	<path d="M278.183,226.343c4.832-3.429,9.664-6.858,14.497-10.288c1.798-0.908,3.609-1.781,5.389-2.727
		c7.146-3.806,14.279-7.637,21.425-11.445c0.482-0.256,1.027-0.401,1.143-0.445c-5.301,6.358-10.928,12.781-16.178,19.501
		c-4.762,6.1-8.565,12.811-10.533,20.396c-1.88,7.254-1.11,13.955,4.308,19.641c3.243,3.403,7.398,5.109,11.759,6.43
		c13.229,4.009,24.485,11.06,33.165,21.888c6.474,8.075,11.23,17.084,13.31,27.312c2.573,12.644,2.188,25.31-0.231,37.927
		c-4.176,21.803-14.082,40.825-28.242,57.752c-7.312,8.739-15.771,16.281-24.582,23.454c-0.445,0.363-0.749,0.901-1.118,1.359
		c-3.374,2.394-6.748,4.789-10.122,7.183c-0.441,0.134-0.923,0.194-1.318,0.414c-7.207,4.048-14.391,8.136-21.611,12.161
		c-2.359,1.313-4.809,2.466-7.216,3.691c0.011-0.519,0.214-0.751,0.429-0.969c6.996-7.082,13.72-14.395,19.292-22.688
		c3.795-5.649,6.97-11.59,8.339-18.328c1.156-5.687,0.291-10.955-3.289-15.71c-3.355-4.457-8.097-6.672-13.076-8.637
		c-4.352-1.721-8.89-3.17-12.914-5.489c-21.245-12.244-32.864-30.69-34.24-55.226c-1.158-20.641,2.823-40.378,12.071-58.887
		c8.522-17.056,20.471-31.482,34.936-43.861C275.189,229.374,276.651,227.817,278.183,226.343z"/>
	<path style="fill-rule:evenodd;clip-rule:evenodd;fill:#FFFFFF;" d="M276.632,289.571c23.224-10.001,50.768,5.032,58.621,28.78
		c7.49,22.653-3.453,48.984-28.063,58.215c-23.687,8.884-52.411-3.705-60.723-30.711
		C240.693,327.099,250.056,296.371,276.632,289.571z"/>
</g>
</svg>
