<?xml version="1.0" encoding="iso-8859-1"?>
<!-- Generator: Adobe Illustrator 16.0.0, SVG Export Plug-In . SVG Version: 6.00 Build 0)  -->
<!DOCTYPE svg PUBLIC "-//W3C//DTD SVG 1.1//EN" "http://www.w3.org/Graphics/SVG/1.1/DTD/svg11.dtd">
<svg version="1.1" id="Layer_1" xmlns="http://www.w3.org/2000/svg" xmlns:xlink="http://www.w3.org/1999/xlink" x="0px" y="0px"
	 width="600px" height="600px" viewBox="0 0 600 600" style="enable-background:new 0 0 600 600;" xml:space="preserve">
<g style="opacity:0.3;">
	<path style="fill:#FFFFFF;" d="M301.99,81.164c12.775,2.862,19.797,11.376,26.252,21.356
		c63.984,98.91,128.262,197.656,192.457,296.448c19.455,29.938,38.945,59.852,58.35,89.814c7.275,11.233,2.344,23.808-10.926,28.354
		c-1.422,0.486-2.781,1.128-4.17,1.699c-177.785,0-355.566,0-533.348,0c-6.864-3.471-11.128-8.819-13.193-15.757
		c0-2.626,0-5.253,0-7.878c1.417-2.873,2.562-5.897,4.29-8.599c83.338-130.238,166.74-260.44,250.057-390.69
		c3.255-5.089,7.527-8.934,13.09-11.558c2.757-1.3,5.767-2.142,8.661-3.19C296.336,81.164,299.164,81.164,301.99,81.164
		 M302.212,79.164h-0.222h-8.481h-0.351l-0.33,0.12c-0.88,0.319-1.797,0.627-2.684,0.925c-2.038,0.685-4.146,1.393-6.149,2.337
		c-5.841,2.756-10.395,6.775-13.922,12.289c-47.56,74.352-95.944,149.932-142.736,223.024
		C91.56,373.744,55.782,429.631,20.017,485.524c-1.254,1.962-2.207,4.052-3.127,6.074c-0.41,0.9-0.834,1.831-1.271,2.718
		l-0.207,0.418v0.467v7.878v0.291l0.083,0.279c2.276,7.646,7.057,13.355,14.208,16.972l0.425,0.215h0.477h533.348h0.396l0.365-0.15
		c0.444-0.183,0.885-0.372,1.326-0.562c0.938-0.404,1.825-0.785,2.73-1.095c7.284-2.496,12.477-7.283,14.62-13.481
		c1.998-5.775,1.052-12.115-2.663-17.852c-13.59-20.985-27.45-42.297-40.854-62.907c-5.833-8.969-11.667-17.938-17.497-26.91
		c-14.045-21.614-28.094-43.227-42.144-64.839c-49.323-75.877-100.327-154.338-150.311-231.606
		c-5.878-9.088-13.335-19.049-27.494-22.222L302.212,79.164L302.212,79.164z"/>
</g>
<path style="fill:#ED1C24;stroke:#000000;stroke-width:2;stroke-miterlimit:10;" d="M17.412,503.079c0-2.626,0-5.253,0-7.878
	c1.417-2.873,2.562-5.897,4.29-8.599c83.338-130.238,166.74-260.44,250.057-390.69c3.255-5.089,7.527-8.934,13.09-11.558
	c2.757-1.3,5.767-2.142,8.661-3.19c2.827,0,5.654,0,8.481,0c12.775,2.862,19.797,11.376,26.252,21.356
	c63.984,98.91,128.262,197.656,192.457,296.448c19.455,29.938,38.945,59.852,58.35,89.814c7.275,11.233,2.344,23.808-10.926,28.354
	c-1.422,0.486-2.781,1.128-4.17,1.699c-177.785,0-355.566,0-533.348,0C23.741,515.365,19.477,510.017,17.412,503.079z"/>
<path style="fill-rule:evenodd;clip-rule:evenodd;fill:#FFFFFF;" d="M298.396,155.66c66.18,103.2,131.87,205.636,198.237,309.128
	c-131.123,0-261.259,0-392.014,0C169.053,361.998,233.519,259.157,298.396,155.66z"/>
<path style="fill:none;stroke:#000000;stroke-width:1.5;stroke-miterlimit:10;" d="M298.396,155.66
	c-64.877,103.497-129.343,206.338-193.777,309.128c130.755,0,260.891,0,392.014,0C430.266,361.296,364.576,258.86,298.396,155.66z"
	/>
<g>
	<path style="fill:#333333;stroke:#4D4D4D;stroke-width:0.4914;stroke-miterlimit:10;" d="M217.389,318.03
		c2.084-6.587,4.183-13.168,6.248-19.762c1.132-3.613,2.181-7.254,3.314-10.867c2.012-6.418,6.236-10.361,13.066-10.731
		c5.389-0.292,10.819-0.271,16.209,0.01c6.769,0.352,10.99,4.406,12.998,10.582c3.19,9.807,6.059,19.719,9.06,29.587
		c0.095,0.309,0.165,0.623,0.229,0.939c0.663,3.345-0.476,5.838-2.974,6.515c-2.639,0.716-4.757-0.685-5.812-4.094
		c-2-6.466-3.891-12.967-5.826-19.453c-0.714-2.395-1.404-4.796-2.15-7.179c-0.515-1.651-0.55-1.641-2.846-1.276
		c4.833,16.629,9.655,33.229,14.587,50.198c-4.619,0-8.917,0-13.587,0c0,1.236,0,2.165,0,3.097c0,11.141-0.062,22.283,0.038,33.423
		c0.029,3.125-0.818,5.514-3.773,6.879c-0.969,0-1.939,0-2.908,0c-2.842-1.341-3.704-3.639-3.677-6.684
		c0.099-11.22,0.039-22.44,0.039-33.66c0-0.928,0-1.855,0-2.947c-1.273,0.079-2.105,0.131-3.081,0.192c0,1.139,0,2.016,0,2.894
		c0,11.059-0.086,22.12,0.055,33.176c0.041,3.114-0.713,5.5-3.516,7.029c-0.97,0-1.939,0-2.909,0
		c-3.031-1.253-3.953-3.563-3.918-6.753c0.12-11.223,0.048-22.446,0.048-33.669c0-0.865,0-1.731,0-2.913c-4.616,0-8.986,0-13.593,0
		c4.895-17.021,9.687-33.683,14.466-50.301c-2.039-0.794-2.403,0.345-2.771,1.596c-2.578,8.734-5.169,17.464-7.778,26.188
		c-0.654,2.189-1.705,4.065-4.295,4.326c-2.598,0.262-3.949-1.342-4.941-3.434C217.389,319.969,217.389,319,217.389,318.03z"/>
	<path style="fill:#333333;stroke:#4D4D4D;stroke-width:0.4914;stroke-miterlimit:10;" d="M250.211,251.986
		c3.004,1.243,5.812,2.685,7.416,5.783c2.847,5.502,0.763,12.112-4.776,14.861c-5.41,2.685-11.98,0.416-14.589-5.037
		c-2.65-5.538-0.204-12.158,5.415-14.652c0.723-0.32,1.448-0.637,2.171-0.955C247.303,251.986,248.757,251.986,250.211,251.986z"/>
</g>
<g>
	<path style="fill:#333333;stroke:#4D4D4D;stroke-width:0.4914;stroke-miterlimit:10;" d="M216.206,358.563
		c1.131,0.576,2.369,1.011,3.375,1.755c3.045,2.255,4.055,6.22,2.609,9.688c-1.408,3.376-4.987,5.476-8.553,5.018
		c-3.807-0.49-6.646-3.341-7.209-7.238c-0.508-3.515,1.59-7.085,5.012-8.55c0.493-0.209,0.973-0.447,1.461-0.672
		C214.002,358.563,215.104,358.563,216.206,358.563z"/>
	<path style="fill:#333333;stroke:#4D4D4D;stroke-width:0.4914;stroke-miterlimit:10;" d="M202.594,390.621
		c0,7.331,0.008,14.548-0.01,21.765c-0.003,0.85-0.057,1.722-0.257,2.543c-0.419,1.715-1.765,2.657-3.534,2.529
		c-1.717-0.123-2.855-0.998-3.182-2.745c-0.124-0.656-0.212-1.332-0.212-2.001c-0.015-7.896-0.049-15.793,0.003-23.689
		c0.039-5.726,2.915-9.801,7.737-11.163c0.583-0.164,1.199-0.309,1.8-0.307c6.725,0.016,13.462-0.177,20.169,0.181
		c4.62,0.247,8.528,4.873,8.64,9.964c0.191,8.688,0.107,17.384,0.055,26.075c-0.014,2.311-1.463,3.729-3.449,3.769
		c-2.064,0.041-3.538-1.395-3.563-3.813c-0.07-7.223-0.042-14.446-0.035-21.669c0-1.019,0.004-1.942-1.706-1.405
		c0,0.624,0,1.333,0,2.044c0,20.261,0,40.522-0.002,60.785c0,0.734,0.021,1.471-0.031,2.204c-0.195,2.668-2.046,4.386-4.698,4.393
		c-2.619,0.006-4.563-1.729-4.811-4.327c-0.063-0.671-0.036-1.347-0.036-2.021c-0.002-11.386-0.002-22.771-0.002-34.158
		c0-0.666,0-1.331,0-1.977c-1.613-0.282-1.627-0.282-1.627,1.521c-0.005,11.446-0.002,22.894-0.006,34.342
		c0,0.732-0.003,1.471-0.082,2.198c-0.302,2.818-2.154,4.482-4.874,4.415c-2.663-0.063-4.323-1.708-4.543-4.533
		c-0.057-0.729-0.05-1.468-0.05-2.202c-0.002-20.322,0-40.646-0.007-60.969C204.281,391.385,204.607,390.062,202.594,390.621z"/>
</g>
<g>
	<path style="fill:#333333;stroke:#4D4D4D;stroke-width:0.4914;stroke-miterlimit:10;" d="M365.103,276.46
		c1.747,0.888,3.655,1.56,5.209,2.708c4.698,3.478,6.257,9.598,4.026,14.948c-2.173,5.211-7.695,8.451-13.199,7.742
		c-5.876-0.756-10.26-5.155-11.128-11.17c-0.781-5.423,2.455-10.936,7.735-13.192c0.761-0.326,1.504-0.691,2.254-1.037
		C361.701,276.46,363.401,276.46,365.103,276.46z"/>
	<path style="fill:#333333;stroke:#4D4D4D;stroke-width:0.4914;stroke-miterlimit:10;" d="M344.097,324.95
		c0,11.312,0.013,22.449-0.017,33.588c-0.004,1.309-0.087,2.655-0.396,3.92c-0.646,2.647-2.725,4.103-5.453,3.905
		c-2.65-0.191-4.406-1.54-4.912-4.236c-0.189-1.014-0.326-2.057-0.328-3.086c-0.021-12.188-0.074-24.373,0.008-36.56
		c0.061-8.836,4.496-15.125,11.939-17.229c0.901-0.254,1.852-0.474,2.777-0.471c10.379,0.023,20.775-0.276,31.128,0.279
		c7.128,0.382,13.159,7.517,13.331,15.374c0.297,13.408,0.165,26.827,0.085,40.238c-0.021,3.566-2.258,5.755-5.322,5.817
		c-3.187,0.062-5.461-2.15-5.497-5.884c-0.111-11.146-0.066-22.294-0.056-33.441c0.001-1.573,0.005-2.999-2.634-2.168
		c0,0.964,0,2.058,0,3.153c0,31.268,0,62.537-0.002,93.805c0,1.134,0.033,2.272-0.05,3.399c-0.298,4.117-3.157,6.77-7.248,6.779
		c-4.042,0.011-7.044-2.667-7.423-6.679c-0.098-1.031-0.058-2.077-0.058-3.115c-0.003-17.571-0.002-35.142-0.002-52.713
		c0-1.027,0-2.056,0-3.05c-2.486-0.437-2.51-0.437-2.511,2.346c-0.008,17.664-0.002,35.33-0.009,52.994
		c-0.001,1.132-0.006,2.271-0.125,3.395c-0.468,4.35-3.326,6.918-7.523,6.813c-4.11-0.099-6.672-2.636-7.011-6.995
		c-0.088-1.128-0.078-2.267-0.078-3.398c-0.004-31.363-0.001-62.726-0.012-94.089C346.7,326.127,347.203,324.086,344.097,324.95z"/>
</g>
<path style="fill-rule:evenodd;clip-rule:evenodd;" d="M302.52,207.033c19.065-0.024,31.98,14.276,29.502,33.884
	c-3.578,28.266-7.978,56.432-11.933,84.652c-2.76,19.707-5.595,39.413-7.887,59.179c-0.558,4.751-1.981,6.272-6.646,6.368
	c-13.206,0.278-12.87,0.41-14.546-12.226c-5.108-38.478-10.504-76.916-15.765-115.375c-1.133-8.28-2.354-16.553-3.223-24.86
	C270.151,220.691,283.391,207.057,302.52,207.033z"/>
<path style="fill-rule:evenodd;clip-rule:evenodd;" d="M302.11,449.945c-14.112,0.029-25.447-10.975-25.775-25.03
	c-0.323-13.87,11.687-26.073,25.684-26.102c13.714-0.026,25.481,11.52,25.756,25.267
	C328.062,438.277,316.506,449.922,302.11,449.945z"/>
</svg>
