<?xml version="1.0" encoding="iso-8859-1"?>
<!-- Generator: Adobe Illustrator 16.0.0, SVG Export Plug-In . SVG Version: 6.00 Build 0)  -->
<!DOCTYPE svg PUBLIC "-//W3C//DTD SVG 1.1//EN" "http://www.w3.org/Graphics/SVG/1.1/DTD/svg11.dtd">
<svg version="1.1" id="Layer_1" xmlns="http://www.w3.org/2000/svg" xmlns:xlink="http://www.w3.org/1999/xlink" x="0px" y="0px"
	 width="600px" height="600px" viewBox="0 0 600 600" style="enable-background:new 0 0 600 600;" xml:space="preserve">
<g style="opacity:0.3;">
	<path style="fill:#FFFFFF;" d="M301.99,81.164c12.775,2.862,19.797,11.376,26.252,21.356
		c63.984,98.91,128.262,197.656,192.457,296.448c19.455,29.938,38.945,59.852,58.35,89.814c7.275,11.233,2.344,23.808-10.926,28.354
		c-1.422,0.486-2.781,1.128-4.17,1.699c-177.785,0-355.566,0-533.348,0c-6.864-3.471-11.128-8.819-13.193-15.757
		c0-2.626,0-5.253,0-7.878c1.417-2.873,2.562-5.897,4.29-8.599c83.338-130.238,166.74-260.44,250.057-390.69
		c3.255-5.089,7.527-8.934,13.09-11.558c2.757-1.3,5.767-2.142,8.661-3.19C296.336,81.164,299.164,81.164,301.99,81.164
		 M302.212,79.164h-0.222h-8.481h-0.351l-0.33,0.12c-0.88,0.319-1.797,0.627-2.684,0.925c-2.038,0.685-4.146,1.393-6.149,2.337
		c-5.841,2.756-10.395,6.775-13.922,12.289c-47.56,74.352-95.944,149.932-142.736,223.024
		C91.56,373.744,55.782,429.631,20.017,485.524c-1.254,1.962-2.207,4.052-3.127,6.074c-0.41,0.9-0.834,1.831-1.271,2.718
		l-0.207,0.418v0.467v7.878v0.291l0.083,0.279c2.276,7.646,7.057,13.355,14.208,16.972l0.425,0.215h0.477h533.348h0.396l0.365-0.15
		c0.444-0.183,0.885-0.372,1.326-0.562c0.938-0.404,1.825-0.785,2.73-1.095c7.284-2.496,12.477-7.283,14.62-13.481
		c1.998-5.775,1.052-12.115-2.663-17.852c-13.59-20.985-27.45-42.297-40.854-62.907c-5.833-8.969-11.667-17.938-17.497-26.91
		c-14.045-21.614-28.094-43.227-42.144-64.839c-49.323-75.877-100.327-154.338-150.311-231.606
		c-5.878-9.088-13.335-19.049-27.494-22.222L302.212,79.164L302.212,79.164z"/>
</g>
<path style="fill:#ED1C24;stroke:#000000;stroke-width:2;stroke-miterlimit:10;" d="M17.412,503.079c0-2.626,0-5.253,0-7.878
	c1.417-2.873,2.562-5.897,4.29-8.599c83.338-130.238,166.74-260.44,250.057-390.69c3.255-5.089,7.527-8.934,13.09-11.558
	c2.757-1.3,5.767-2.142,8.661-3.19c2.827,0,5.654,0,8.481,0c12.775,2.862,19.797,11.376,26.252,21.356
	c63.984,98.91,128.262,197.656,192.457,296.448c19.455,29.938,38.945,59.852,58.35,89.814c7.275,11.233,2.344,23.808-10.926,28.354
	c-1.422,0.486-2.781,1.128-4.17,1.699c-177.785,0-355.566,0-533.348,0C23.741,515.365,19.477,510.017,17.412,503.079z"/>
<path style="fill-rule:evenodd;clip-rule:evenodd;fill:#FFFFFF;" d="M298.396,155.66c66.18,103.2,131.87,205.636,198.237,309.128
	c-131.123,0-261.259,0-392.014,0C169.053,361.998,233.519,259.157,298.396,155.66z"/>
<path style="fill:none;stroke:#000000;stroke-width:1.5;stroke-miterlimit:10;" d="M298.396,155.66
	c-64.877,103.497-129.343,206.338-193.777,309.128c130.755,0,260.891,0,392.014,0C430.266,361.296,364.576,258.86,298.396,155.66z"
	/>
<g>
	<path style="stroke:#000000;stroke-miterlimit:10;" d="M309.165,428.857c0-0.971,0-1.449,0-1.928c0-4.814,0.002-9.626,0.004-14.44
		c0.007-36.475,0.015-72.949,0.032-109.425c0-2.992-0.151-2.613,2.664-2.617c6.622-0.01,13.247,0.012,19.87,0.029
		c2.127,0.006,4.112-0.416,5.841-1.75c2.763-2.135,3.915-5.793,2.854-9.14c-1.053-3.325-4.129-5.72-7.628-5.749
		c-7.285-0.058-14.57-0.033-21.856-0.042c-0.552,0-1.106,0-1.735,0c0-5.396,0.023-10.559-0.022-15.721
		c-0.007-1.008,0.4-1.397,1.283-1.803c9.632-4.431,14.946-11.921,15.226-22.566c0.401-15.399-13.502-27.427-28.621-24.986
		c-11.162,1.802-19.574,10.61-20.929,21.917c-1.291,10.76,4.927,21.342,15.139,25.618c1.021,0.428,1.263,0.968,1.258,1.951
		c-0.031,4.857-0.013,9.715-0.019,14.572c0,0.292-0.062,0.584-0.109,0.999c-0.646,0-1.211,0-1.777,0
		c-7.374-0.009-14.749-0.032-22.123-0.021c-3.771,0.006-6.719,1.948-8.02,5.203c-2.157,5.392,1.675,11.291,7.496,11.366
		c7.285,0.095,14.573,0.028,21.858,0.065c2.821,0.014,2.674-0.475,2.674,2.727c0,41.066-0.006,82.135-0.012,123.201
		c0,0.48,0,0.96,0,1.555c-0.55-0.123-0.979-0.202-1.397-0.317c-9.249-2.537-17.608-6.967-25.584-12.166
		c-15.908-10.37-29.872-23.092-43.547-36.158c-0.33-0.314-0.597-0.692-0.989-1.151c6.276-1.249,12.334-2.453,18.394-3.656
		c0.006-0.125,0.013-0.249,0.018-0.373c-17.263-5.825-34.528-11.65-52.116-17.583c5.826,17.713,11.523,35.033,17.22,52.354
		c0.107-0.023,0.214-0.048,0.321-0.072c1.291-6.27,2.582-12.538,3.917-19.025c0.572,0.5,0.907,0.778,1.226,1.075
		c4.688,4.361,9.323,8.78,14.07,13.075c11.378,10.292,23.24,19.966,36.379,27.968c9.124,5.554,18.714,10.016,29.163,12.531
		c12.006,2.892,23.478,1.794,34.589-3.778c10.582-5.308,20.008-12.24,29.009-19.815c11.136-9.37,21.37-19.675,31.257-30.333
		c0.312-0.337,0.455-0.831,0.678-1.253c0.179,0.131,0.356,0.261,0.535,0.392c1.963,6.366,3.927,12.734,5.89,19.103
		c0.101-0.018,0.2-0.036,0.302-0.054c4.014-17.825,8.028-35.649,12.108-53.767c-16.967,7.611-33.609,15.077-50.255,22.543
		c0.023,0.108,0.048,0.217,0.07,0.324c5.899,0.597,11.796,1.195,17.958,1.817c-0.754,0.866-1.286,1.563-1.905,2.171
		c-7.85,7.694-15.537,15.563-23.615,23.01c-8.221,7.577-17.051,14.445-27.016,19.662
		C316.051,426.04,312.708,427.295,309.165,428.857z"/>
	<path style="stroke:#000000;stroke-miterlimit:10;" d="M309.165,428.857c3.543-1.562,6.886-2.817,10.025-4.462
		c9.965-5.217,18.795-12.085,27.016-19.662c8.078-7.446,15.766-15.315,23.615-23.01c0.619-0.607,1.151-1.305,1.905-2.171
		c-6.162-0.622-12.059-1.221-17.958-1.817c-0.022-0.107-0.047-0.216-0.07-0.324c16.646-7.466,33.288-14.932,50.255-22.543
		c-4.08,18.117-8.095,35.941-12.108,53.767c-0.102,0.018-0.201,0.036-0.302,0.054c-1.963-6.368-3.927-12.736-5.89-19.103
		c-0.179-0.131-0.356-0.261-0.535-0.392c-0.223,0.422-0.365,0.916-0.678,1.253c-9.887,10.658-20.121,20.963-31.257,30.333
		c-9.001,7.575-18.427,14.508-29.009,19.815c-11.111,5.572-22.583,6.67-34.589,3.778c-10.449-2.516-20.04-6.978-29.163-12.531
		c-13.139-8.002-25.001-17.676-36.379-27.968c-4.748-4.295-9.382-8.714-14.07-13.075c-0.319-0.297-0.653-0.575-1.226-1.075
		c-1.336,6.487-2.627,12.756-3.917,19.025c-0.106,0.024-0.213,0.049-0.321,0.072c-5.697-17.321-11.394-34.642-17.22-52.354
		c17.588,5.933,34.853,11.758,52.116,17.583c-0.005,0.124-0.012,0.248-0.018,0.373c-6.06,1.203-12.118,2.407-18.394,3.656
		c0.392,0.459,0.659,0.837,0.989,1.151c13.675,13.066,27.639,25.788,43.547,36.158c7.976,5.199,16.335,9.629,25.584,12.166
		c0.419,0.115,0.848,0.194,1.397,0.317c0-0.595,0-1.074,0-1.555c0.006-41.066,0.012-82.135,0.012-123.201
		c0-3.201,0.147-2.713-2.674-2.727c-7.285-0.037-14.573,0.029-21.858-0.065c-5.82-0.075-9.652-5.974-7.496-11.366
		c1.301-3.255,4.249-5.197,8.02-5.203c7.374-0.012,14.749,0.011,22.123,0.021c0.566,0,1.132,0,1.777,0
		c0.047-0.414,0.109-0.707,0.109-0.999c0.006-4.857-0.013-9.715,0.019-14.572c0.005-0.983-0.237-1.523-1.258-1.951
		c-10.212-4.276-16.43-14.858-15.139-25.618c1.354-11.306,9.767-20.114,20.929-21.917c15.119-2.441,29.022,9.586,28.621,24.986
		c-0.279,10.645-5.594,18.135-15.226,22.566c-0.883,0.406-1.29,0.795-1.283,1.803c0.046,5.163,0.022,10.325,0.022,15.721
		c0.629,0,1.184,0,1.735,0c7.286,0.009,14.571-0.016,21.856,0.042c3.499,0.028,6.575,2.423,7.628,5.749
		c1.061,3.347-0.092,7.005-2.854,9.14c-1.729,1.334-3.714,1.756-5.841,1.75c-6.623-0.018-13.248-0.039-19.87-0.029
		c-2.815,0.004-2.664-0.375-2.664,2.617c-0.018,36.476-0.025,72.95-0.032,109.425c-0.002,4.814-0.004,9.626-0.004,14.44
		C309.165,427.408,309.165,427.887,309.165,428.857z"/>
</g>
</svg>
