<?xml version="1.0" encoding="iso-8859-1"?>
<!-- Generator: Adobe Illustrator 16.0.0, SVG Export Plug-In . SVG Version: 6.00 Build 0)  -->
<!DOCTYPE svg PUBLIC "-//W3C//DTD SVG 1.1//EN" "http://www.w3.org/Graphics/SVG/1.1/DTD/svg11.dtd">
<svg version="1.1" id="Layer_1" xmlns="http://www.w3.org/2000/svg" xmlns:xlink="http://www.w3.org/1999/xlink" x="0px" y="0px"
	 width="600px" height="600px" viewBox="0 0 600 600" style="enable-background:new 0 0 600 600;" xml:space="preserve">
<g style="opacity:0.3;">
	<path style="fill:#FFFFFF;" d="M302.059,81.164c12.775,2.862,19.797,11.376,26.252,21.356
		c63.984,98.91,128.262,197.656,192.457,296.448c19.455,29.938,38.945,59.852,58.35,89.814c7.275,11.233,2.344,23.808-10.926,28.354
		c-1.422,0.486-2.781,1.128-4.17,1.699c-177.785,0-355.566,0-533.348,0c-6.864-3.471-11.128-8.819-13.193-15.757
		c0-2.626,0-5.253,0-7.878c1.417-2.873,2.562-5.897,4.29-8.599c83.338-130.238,166.74-260.44,250.057-390.69
		c3.255-5.089,7.527-8.934,13.09-11.558c2.757-1.3,5.767-2.142,8.661-3.19C296.405,81.164,299.232,81.164,302.059,81.164
		 M302.28,79.164h-0.222h-8.481h-0.351l-0.33,0.12c-0.88,0.319-1.797,0.627-2.684,0.925c-2.038,0.685-4.146,1.393-6.149,2.337
		c-5.841,2.756-10.395,6.775-13.922,12.289c-47.56,74.352-95.944,149.932-142.736,223.024
		c-35.777,55.886-71.555,111.772-107.32,167.666c-1.254,1.962-2.207,4.052-3.127,6.074c-0.41,0.9-0.834,1.831-1.271,2.718
		l-0.207,0.418v0.467v7.878v0.291l0.083,0.279c2.276,7.646,7.057,13.355,14.208,16.972l0.425,0.215h0.477h533.348h0.396l0.365-0.15
		c0.444-0.183,0.885-0.372,1.326-0.562c0.938-0.404,1.825-0.785,2.73-1.095c7.284-2.496,12.477-7.283,14.62-13.481
		c1.998-5.775,1.052-12.115-2.663-17.852c-13.59-20.985-27.45-42.297-40.854-62.907c-5.833-8.969-11.667-17.938-17.497-26.91
		c-14.045-21.614-28.094-43.227-42.144-64.839c-49.323-75.877-100.327-154.338-150.311-231.606
		c-5.878-9.088-13.335-19.049-27.494-22.222L302.28,79.164L302.28,79.164z"/>
</g>
<path style="fill:#237ABF;stroke:#000000;stroke-width:2;stroke-miterlimit:10;" d="M17.48,503.079c0-2.626,0-5.253,0-7.878
	c1.417-2.873,2.562-5.897,4.29-8.599c83.338-130.238,166.74-260.44,250.057-390.69c3.255-5.089,7.527-8.934,13.09-11.558
	c2.757-1.3,5.767-2.142,8.661-3.19c2.827,0,5.654,0,8.481,0c12.775,2.862,19.797,11.376,26.252,21.356
	c63.984,98.91,128.262,197.656,192.457,296.448c19.455,29.938,38.945,59.852,58.35,89.814c7.275,11.233,2.344,23.808-10.926,28.354
	c-1.422,0.486-2.781,1.128-4.17,1.699c-177.785,0-355.566,0-533.348,0C23.809,515.365,19.545,510.017,17.48,503.079z"/>
<path style="fill-rule:evenodd;clip-rule:evenodd;fill:#FFFFFF;" d="M298.464,155.66c66.18,103.2,131.87,205.636,198.237,309.128
	c-131.123,0-261.259,0-392.014,0C169.122,361.998,233.587,259.157,298.464,155.66z"/>
<path style="fill:none;stroke:#000000;stroke-width:1.5;stroke-miterlimit:10;" d="M298.464,155.66
	c-64.877,103.497-129.343,206.338-193.777,309.128c130.755,0,260.891,0,392.014,0C430.334,361.296,364.645,258.86,298.464,155.66z"
	/>
<g>
	<path d="M291.157,239.614c5.602-1.929,11.205-3.858,16.808-5.788c1.98-0.364,3.965-0.692,5.938-1.099
		c7.929-1.638,15.853-3.305,23.781-4.946c0.536-0.11,1.1-0.096,1.222-0.105c-6.877,4.607-14.085,9.186-21.016,14.155
		c-6.287,4.512-11.827,9.879-15.852,16.603c-3.847,6.431-4.996,13.077-1.399,20.059c2.152,4.179,5.659,6.986,9.472,9.482
		c11.564,7.573,20.378,17.509,25.656,30.344c3.937,9.571,5.963,19.556,5.077,29.954c-1.093,12.856-5.029,24.901-10.905,36.326
		c-10.148,19.743-25.012,35.205-43.367,47.458c-9.478,6.325-19.719,11.179-30.193,15.579c-0.53,0.224-0.973,0.654-1.456,0.989
		c-3.912,1.347-7.824,2.694-11.736,4.041c-0.46,0.004-0.94-0.074-1.381,0.025c-8.055,1.854-16.1,3.753-24.162,5.581
		c-2.634,0.596-5.309,1.012-7.964,1.51c0.157-0.494,0.417-0.66,0.685-0.809c8.708-4.825,17.22-9.947,24.902-16.334
		c5.233-4.352,9.952-9.157,13.165-15.237c2.711-5.131,3.365-10.43,1.27-16c-1.964-5.222-5.89-8.683-10.113-11.971
		c-3.691-2.877-7.637-5.546-10.845-8.904c-16.936-17.733-22.888-38.705-17.296-62.635c4.703-20.131,14.083-37.947,28.17-53.102
		c12.982-13.965,28.51-24.44,45.876-32.244C287.43,241.678,289.271,240.597,291.157,239.614z"/>
	<path style="fill-rule:evenodd;clip-rule:evenodd;fill:#FFFFFF;" d="M260.632,300.571c23.224-10.001,50.768,5.032,58.621,28.78
		c7.49,22.653-3.453,48.984-28.064,58.215c-23.686,8.884-52.411-3.705-60.723-30.711
		C224.693,338.099,234.056,307.371,260.632,300.571z"/>
</g>
</svg>
