<?xml version="1.0" encoding="iso-8859-1"?>
<!-- Generator: Adobe Illustrator 16.0.0, SVG Export Plug-In . SVG Version: 6.00 Build 0)  -->
<!DOCTYPE svg PUBLIC "-//W3C//DTD SVG 1.1//EN" "http://www.w3.org/Graphics/SVG/1.1/DTD/svg11.dtd">
<svg version="1.1" id="Layer_1" xmlns="http://www.w3.org/2000/svg" xmlns:xlink="http://www.w3.org/1999/xlink" x="0px" y="0px"
	 width="600px" height="600px" viewBox="0 0 600 600" style="enable-background:new 0 0 600 600;" xml:space="preserve">
<g style="opacity:0.3;">
	<path style="fill:#FFFFFF;" d="M301.99,81.164c12.775,2.862,19.797,11.376,26.252,21.356
		c63.984,98.91,128.262,197.656,192.457,296.448c19.455,29.938,38.945,59.852,58.35,89.814c7.275,11.233,2.344,23.808-10.926,28.354
		c-1.422,0.486-2.781,1.128-4.17,1.699c-177.785,0-355.566,0-533.348,0c-6.864-3.471-11.128-8.819-13.193-15.757
		c0-2.626,0-5.253,0-7.878c1.417-2.873,2.562-5.897,4.29-8.599c83.338-130.238,166.74-260.44,250.057-390.69
		c3.255-5.089,7.527-8.934,13.09-11.558c2.757-1.3,5.767-2.142,8.661-3.19C296.336,81.164,299.164,81.164,301.99,81.164
		 M302.212,79.164h-0.222h-8.481h-0.351l-0.33,0.12c-0.88,0.319-1.797,0.627-2.684,0.925c-2.038,0.685-4.146,1.393-6.149,2.337
		c-5.841,2.756-10.395,6.775-13.922,12.289c-47.56,74.352-95.944,149.932-142.736,223.024
		C91.56,373.744,55.782,429.631,20.017,485.524c-1.254,1.962-2.207,4.052-3.127,6.074c-0.41,0.9-0.834,1.831-1.271,2.718
		l-0.207,0.418v0.467v7.878v0.291l0.083,0.279c2.276,7.646,7.057,13.355,14.208,16.972l0.425,0.215h0.477h533.348h0.396l0.365-0.15
		c0.444-0.183,0.885-0.372,1.326-0.562c0.938-0.404,1.825-0.785,2.73-1.095c7.284-2.496,12.477-7.283,14.62-13.481
		c1.998-5.775,1.052-12.115-2.663-17.852c-13.59-20.985-27.45-42.297-40.854-62.907c-5.833-8.969-11.667-17.938-17.497-26.91
		c-14.045-21.614-28.094-43.227-42.144-64.839c-49.323-75.877-100.327-154.338-150.311-231.606
		c-5.878-9.088-13.335-19.049-27.494-22.222L302.212,79.164L302.212,79.164z"/>
</g>
<path style="fill:#ED1C24;stroke:#000000;stroke-width:2;stroke-miterlimit:10;" d="M17.412,503.079c0-2.626,0-5.253,0-7.878
	c1.417-2.873,2.562-5.897,4.29-8.599c83.338-130.238,166.74-260.44,250.057-390.69c3.255-5.089,7.527-8.934,13.09-11.558
	c2.757-1.3,5.767-2.142,8.661-3.19c2.827,0,5.654,0,8.481,0c12.775,2.862,19.797,11.376,26.252,21.356
	c63.984,98.91,128.262,197.656,192.457,296.448c19.455,29.938,38.945,59.852,58.35,89.814c7.275,11.233,2.344,23.808-10.926,28.354
	c-1.422,0.486-2.781,1.128-4.17,1.699c-177.785,0-355.566,0-533.348,0C23.741,515.365,19.477,510.017,17.412,503.079z"/>
<path style="fill-rule:evenodd;clip-rule:evenodd;fill:#FFFFFF;" d="M298.396,155.66c66.18,103.2,131.87,205.636,198.237,309.128
	c-131.123,0-261.259,0-392.014,0C169.053,361.998,233.519,259.157,298.396,155.66z"/>
<path style="fill:none;stroke:#000000;stroke-width:1.5;stroke-miterlimit:10;" d="M298.396,155.66
	c-64.877,103.497-129.343,206.338-193.777,309.128c130.755,0,260.891,0,392.014,0C430.266,361.296,364.576,258.86,298.396,155.66z"
	/>
<g>
	<path d="M298.328,247.167c5.865-1.325,11.729-2.648,17.594-3.973c2.036-0.148,4.076-0.259,6.108-0.45
		c8.178-0.772,16.354-1.574,24.531-2.35c0.553-0.052,1.119,0.025,1.243,0.029c-7.445,3.884-15.223,7.701-22.76,11.945
		c-6.842,3.852-13.025,8.65-17.827,14.985c-4.593,6.058-6.488,12.633-3.635,20.072c1.707,4.453,4.932,7.672,8.499,10.613
		c10.821,8.918,18.606,19.914,22.508,33.443c2.909,10.088,3.845,20.38,1.8,30.769c-2.53,12.844-7.833,24.553-15.024,35.423
		c-12.425,18.783-29.125,32.729-48.995,43.048c-10.259,5.329-21.124,9.087-32.175,12.364c-0.559,0.166-1.053,0.552-1.577,0.836
		c-4.095,0.924-8.188,1.849-12.281,2.772c-0.466-0.046-0.942-0.18-1.396-0.126c-8.329,0.975-16.652,1.999-24.984,2.947
		c-2.722,0.31-5.464,0.432-8.197,0.641c0.214-0.479,0.493-0.62,0.78-0.741c9.314-3.898,18.467-8.12,26.922-13.709
		c5.759-3.808,11.051-8.129,14.965-13.905c3.302-4.873,4.549-10.144,3.054-15.994c-1.401-5.484-4.977-9.408-8.87-13.192
		c-3.404-3.311-7.088-6.44-9.949-10.182c-15.111-19.761-18.789-41.568-10.497-65.08c6.975-19.776,18.408-36.704,34.294-50.424
		c14.639-12.643,31.461-21.484,49.838-27.429C294.344,248.836,296.32,247.95,298.328,247.167z"/>
	<path style="fill-rule:evenodd;clip-rule:evenodd;fill:#FFFFFF;" d="M257.86,291.736c32.382-7.35,65.149,13.972,72.001,46.126
		c6.536,30.674-11.357,63.462-44.581,71.929c-31.977,8.148-67.47-12.477-74.459-48.953
		C205.967,335.504,222.414,299.561,257.86,291.736z"/>
</g>
</svg>
