<?xml version="1.0" encoding="iso-8859-1"?>
<!-- Generator: Adobe Illustrator 16.0.0, SVG Export Plug-In . SVG Version: 6.00 Build 0)  -->
<!DOCTYPE svg PUBLIC "-//W3C//DTD SVG 1.1//EN" "http://www.w3.org/Graphics/SVG/1.1/DTD/svg11.dtd">
<svg version="1.1" id="Layer_1" xmlns="http://www.w3.org/2000/svg" xmlns:xlink="http://www.w3.org/1999/xlink" x="0px" y="0px"
	 width="600px" height="600px" viewBox="0 0 600 600" style="enable-background:new 0 0 600 600;" xml:space="preserve">
<g style="opacity:0.3;">
	<path style="fill:#FFFFFF;" d="M301.99,81.164c12.775,2.862,19.797,11.376,26.252,21.356
		c63.984,98.91,128.262,197.656,192.457,296.448c19.455,29.938,38.945,59.852,58.35,89.814c7.275,11.233,2.344,23.808-10.926,28.354
		c-1.422,0.486-2.781,1.128-4.17,1.699c-177.785,0-355.566,0-533.348,0c-6.864-3.471-11.128-8.819-13.193-15.757
		c0-2.626,0-5.253,0-7.878c1.417-2.873,2.562-5.897,4.29-8.599c83.338-130.238,166.74-260.44,250.057-390.69
		c3.255-5.089,7.527-8.934,13.09-11.558c2.757-1.3,5.767-2.142,8.661-3.19C296.336,81.164,299.164,81.164,301.99,81.164
		 M302.212,79.164h-0.222h-8.481h-0.351l-0.33,0.12c-0.88,0.319-1.797,0.627-2.684,0.925c-2.038,0.685-4.146,1.393-6.149,2.337
		c-5.841,2.756-10.395,6.775-13.922,12.289c-47.56,74.352-95.944,149.932-142.736,223.024
		C91.56,373.744,55.782,429.631,20.017,485.524c-1.254,1.962-2.207,4.052-3.127,6.074c-0.41,0.9-0.834,1.831-1.271,2.718
		l-0.207,0.418v0.467v7.878v0.291l0.083,0.279c2.276,7.646,7.057,13.355,14.208,16.972l0.425,0.215h0.477h533.348h0.396l0.365-0.15
		c0.444-0.183,0.885-0.372,1.326-0.562c0.938-0.404,1.825-0.785,2.73-1.095c7.284-2.496,12.477-7.283,14.62-13.481
		c1.998-5.775,1.052-12.115-2.663-17.852c-13.59-20.985-27.45-42.297-40.854-62.907c-5.833-8.969-11.667-17.938-17.497-26.91
		c-14.045-21.614-28.094-43.227-42.144-64.839c-49.323-75.877-100.327-154.338-150.311-231.606
		c-5.878-9.088-13.335-19.049-27.494-22.222L302.212,79.164L302.212,79.164z"/>
</g>
<path style="fill:#ED1C24;stroke:#000000;stroke-width:2;stroke-miterlimit:10;" d="M17.412,503.079c0-2.626,0-5.253,0-7.878
	c1.417-2.873,2.562-5.897,4.29-8.599c83.338-130.238,166.74-260.44,250.057-390.69c3.255-5.089,7.527-8.934,13.09-11.558
	c2.757-1.3,5.767-2.142,8.661-3.19c2.827,0,5.654,0,8.481,0c12.775,2.862,19.797,11.376,26.252,21.356
	c63.984,98.91,128.262,197.656,192.457,296.448c19.455,29.938,38.945,59.852,58.35,89.814c7.275,11.233,2.344,23.808-10.926,28.354
	c-1.422,0.486-2.781,1.128-4.17,1.699c-177.785,0-355.566,0-533.348,0C23.741,515.365,19.477,510.017,17.412,503.079z"/>
<path style="fill-rule:evenodd;clip-rule:evenodd;fill:#FFFFFF;" d="M298.396,155.66c66.18,103.2,131.87,205.636,198.237,309.128
	c-131.123,0-261.259,0-392.014,0C169.053,361.998,233.519,259.157,298.396,155.66z"/>
<path style="fill:none;stroke:#000000;stroke-width:1.5;stroke-miterlimit:10;" d="M298.396,155.66
	c-64.877,103.497-129.343,206.338-193.777,309.128c130.755,0,260.891,0,392.014,0C430.266,361.296,364.576,258.86,298.396,155.66z"
	/>
<g>
	<path style="fill-rule:evenodd;clip-rule:evenodd;fill:#FFFFFF;" d="M225.131,339.919c0.467,1.099,0.87,1.602,0.866,2.104
		c-0.074,10.649-0.289,21.3-0.221,31.948c0.012,1.914,0.527,4.778,1.922,5.487c1.698,0.864,5.294,0.695,6.815-0.396
		c5.32-3.818,9.114-1.543,13.686,1.176c4.937,2.938,10.275,6.367,15.883,7.182c11.263,1.635,22.233,0.016,31.535-7.008
		c4.87-3.679,10.24-5.35,16.37-1.036c3.773,2.655,8.292,4.651,12.776,6.306c9.001,3.321,18.343,3.484,27.215-0.161
		c5.875-2.414,11.349-5.667,16.744-8.883c1.405-0.839,2.577-2.938,2.607-4.475c0.179-9.641-0.021-19.286-0.03-28.929
		c-0.001-1.18,0.368-2.358,0.717-4.438c2.615,2.329,4.257,4.266,6.398,5.555c1.83,1.104,4.392,2.308,6.353,2.015
		c8.204-1.231,12.003-11.545,6.599-17.233c-7.104-7.479-14.196-14.967-21.371-22.394c-14.84-15.362-29.687-30.716-44.618-46.008
		c-5.957-6.102-12.027-12.125-18.272-17.996c-3.932-3.698-12.326-4.44-15.795-1.401c-3.509,3.072-6.589,6.531-9.784,9.875
		c-5.512,5.767-10.966,11.576-17.27,18.241c-0.198-3.072-0.37-5.248-0.47-7.425c-0.149-3.278-1.828-4.939-5.747-4.797
		c-3.521,0.127-7.059-0.025-10.587-0.105c-5.117-0.115-7.214,1.364-7.253,5.785c-0.08,9.1,0.238,18.205,0.025,27.303
		c-0.052,2.185-0.92,4.809-2.476,6.435c-6.609,6.911-13.633,13.509-20.475,20.247c-4.604,4.534-9.589,8.836-13.613,13.749
		c-4.199,5.125-2.603,10.377,3.332,14.487c4.302,2.979,8.779,2.198,13.841-2.289C222.003,341.804,223.472,341.031,225.131,339.919z
		 M300.212,459.668c0,0.009,0,0.019,0,0.028c49.83,0,99.66,0.007,149.49-0.008c9.964-0.002,19.927-0.07,29.89-0.141
		c4.273-0.029,5.135-1.441,3.093-4.758c-5.217-8.462-10.382-16.947-15.589-25.415c-2.108-3.427-3.76-3.575-7.119-1.394
		c-4.902,3.18-9.819,6.428-15.116,9.026c-15.913,7.799-31.498,7.658-46.426-2.268c-11.24-7.473-20.291-7.874-29.331-1.983
		c-4.422,2.882-9.126,5.779-14.218,7.428c-11.747,3.803-23.319,2.853-34.205-2.99c-4.515-2.424-9.066-4.817-13.762-6.946
		c-5.338-2.419-10.961-2.445-16.225,0.087c-4.045,1.945-7.619,4.653-11.641,6.645c-8.063,3.993-16.355,6.402-26.071,5.144
		c-8.717-1.129-15.439-5.189-22.57-8.956c-4.658-2.461-9.424-5.659-15.189-3.916c-6.786,2.052-13.445,4.561-19.874,7.379
		c-10.141,4.448-20.346,8.82-31.426,3.133c-7.688-3.946-14.91-8.659-22.013-13.411c-2.947-1.972-4.77-2.043-6.557,0.689
		c-6.03,9.215-12.111,18.406-17.939,27.722c-2.008,3.21-0.704,4.77,3.435,4.818c4.813,0.058,9.628,0.082,14.441,0.083
		C190.265,459.669,245.238,459.668,300.212,459.668z M424.669,425.854c0.461-0.063,1.587-0.151,2.678-0.372
		c9.941-2.013,17.565-7.477,24.634-13.509c1.3-1.109,1.543-3.98,1.037-5.764c-0.682-2.4-2.787-4.452-3.884-6.799
		c-2.751-5.886-4.006-6.238-9.432-2.441c-9.931,6.95-21.022,9.009-32.979,5.17c-4.587-1.473-8.937-3.818-12.958-6.315
		c-9.722-6.032-14.897-6.208-24.439-0.312c-2.358,1.456-5.051,2.494-7.396,3.965c-11.721,7.349-33.763,4.088-42.903-3.235
		c-6.521-5.224-14.222-6.632-20.926-3.481c-3.259,1.529-6.594,3.086-9.44,5.126c-11.886,8.515-29.294,7.798-42.188-0.193
		c-6.602-4.093-13.274-8.566-22.069-4.919c-5.08,2.105-10.211,4.198-14.99,6.774c-11.161,6.016-24.919,5.698-35.208-1.428
		c-3.773-2.614-7.301-5.571-10.568-8.68c-2.824-2.686-4.737-2.403-6.632,0.612c-2.652,4.221-5.414,8.389-7.956,12.662
		c-1.595,2.685-2.181,5.833,0.733,7.871c7.134,4.988,14.476,9.775,22.065,14.199c1.74,1.015,5.004,0.773,7.233,0.163
		c3.647-1,7.043-2.739,10.506-4.235c5.744-2.483,11.202-5.763,17.233-7.388c14.053-3.785,26.451-0.352,37.521,8.056
		c7.543,5.731,17.551,5.981,25.878,1.156c3.879-2.248,7.325-5.095,11.271-7.231c11.541-6.248,30.598-4.574,41.5,3.559
		c10.585,7.895,22.277,10.786,35.071,0.718c2.124-1.671,4.659-2.996,7.176-4.199c15.27-7.294,29.164-4.3,42.029,4.778
		C412.235,423.669,417.666,425.713,424.669,425.854z"/>
	<path style="fill-rule:evenodd;clip-rule:evenodd;" d="M225.131,339.919c-1.659,1.112-3.128,1.885-4.296,2.921
		c-5.062,4.487-9.539,5.269-13.841,2.289c-5.935-4.11-7.531-9.362-3.332-14.487c4.023-4.913,9.008-9.215,13.613-13.749
		c6.842-6.737,13.866-13.336,20.475-20.247c1.556-1.626,2.423-4.25,2.476-6.435c0.212-9.098-0.105-18.203-0.025-27.303
		c0.039-4.421,2.136-5.9,7.253-5.785c3.528,0.08,7.066,0.232,10.587,0.105c3.919-0.142,5.598,1.519,5.747,4.797
		c0.1,2.177,0.271,4.353,0.47,7.425c6.304-6.665,11.758-12.475,17.27-18.241c3.195-3.344,6.275-6.803,9.784-9.875
		c3.469-3.039,11.863-2.296,15.795,1.401c6.245,5.871,12.315,11.895,18.272,17.996c14.932,15.292,29.778,30.646,44.618,46.008
		c7.175,7.427,14.268,14.915,21.371,22.394c5.404,5.688,1.605,16.002-6.599,17.233c-1.961,0.293-4.522-0.91-6.353-2.015
		c-2.142-1.289-3.783-3.226-6.398-5.555c-0.349,2.079-0.718,3.258-0.717,4.438c0.01,9.643,0.209,19.288,0.03,28.929
		c-0.03,1.537-1.202,3.636-2.607,4.475c-5.396,3.216-10.869,6.469-16.744,8.883c-8.872,3.646-18.214,3.482-27.215,0.161
		c-4.484-1.654-9.003-3.65-12.776-6.306c-6.13-4.313-11.5-2.643-16.37,1.036c-9.302,7.023-20.272,8.643-31.535,7.008
		c-5.608-0.814-10.946-4.244-15.883-7.182c-4.572-2.719-8.366-4.994-13.686-1.176c-1.521,1.091-5.117,1.26-6.815,0.396
		c-1.396-0.709-1.91-3.573-1.922-5.487c-0.068-10.648,0.147-21.299,0.221-31.948C226.001,341.521,225.599,341.018,225.131,339.919z
		 M331.493,348.059c0,2.986-0.325,6.016,0.16,8.939c0.19,1.149,2.126,2.867,3.374,2.945c4.952,0.31,9.95,0.021,14.93,0.055
		c3.67,0.023,5.237-1.525,5.148-4.717c-0.097-3.552-0.046-7.109-0.026-10.664c0.046-8.87,0.054-8.87-10.1-8.776
		C331.514,335.966,331.514,335.966,331.493,348.059z"/>
	<path style="fill-rule:evenodd;clip-rule:evenodd;" d="M300.212,459.668c-54.974,0-109.947,0.001-164.921-0.004
		c-4.813-0.001-9.628-0.025-14.441-0.083c-4.139-0.049-5.442-1.608-3.435-4.818c5.828-9.315,11.91-18.507,17.939-27.722
		c1.788-2.732,3.61-2.661,6.557-0.689c7.103,4.752,14.325,9.465,22.013,13.411c11.08,5.688,21.285,1.315,31.426-3.133
		c6.429-2.818,13.088-5.327,19.874-7.379c5.765-1.743,10.531,1.455,15.189,3.916c7.13,3.767,13.853,7.827,22.57,8.956
		c9.715,1.259,18.007-1.15,26.071-5.144c4.021-1.991,7.596-4.699,11.641-6.645c5.264-2.532,10.887-2.506,16.225-0.087
		c4.695,2.129,9.247,4.522,13.762,6.946c10.886,5.843,22.458,6.793,34.205,2.99c5.092-1.648,9.796-4.546,14.218-7.428
		c9.04-5.891,18.091-5.489,29.331,1.983c14.928,9.926,30.513,10.066,46.426,2.268c5.297-2.599,10.214-5.847,15.116-9.026
		c3.359-2.182,5.011-2.033,7.119,1.394c5.207,8.468,10.372,16.953,15.589,25.415c2.042,3.316,1.181,4.729-3.093,4.758
		c-9.963,0.07-19.926,0.139-29.89,0.141c-49.83,0.015-99.66,0.008-149.49,0.008C300.212,459.687,300.212,459.677,300.212,459.668z"
		/>
	<path style="fill-rule:evenodd;clip-rule:evenodd;" d="M424.669,425.854c-7.003-0.141-12.434-2.185-17.401-5.692
		c-12.865-9.078-26.76-12.072-42.029-4.778c-2.517,1.203-5.052,2.528-7.176,4.199c-12.794,10.068-24.486,7.177-35.071-0.718
		c-10.902-8.133-29.959-9.807-41.5-3.559c-3.946,2.137-7.393,4.983-11.271,7.231c-8.327,4.825-18.335,4.575-25.878-1.156
		c-11.07-8.407-23.468-11.841-37.521-8.056c-6.031,1.625-11.489,4.904-17.233,7.388c-3.463,1.496-6.859,3.235-10.506,4.235
		c-2.229,0.61-5.493,0.852-7.233-0.163c-7.589-4.424-14.931-9.211-22.065-14.199c-2.914-2.038-2.328-5.187-0.733-7.871
		c2.542-4.273,5.304-8.441,7.956-12.662c1.895-3.016,3.808-3.298,6.632-0.612c3.267,3.108,6.795,6.065,10.568,8.68
		c10.289,7.126,24.047,7.443,35.208,1.428c4.779-2.576,9.911-4.669,14.99-6.774c8.795-3.647,15.467,0.826,22.069,4.919
		c12.893,7.991,30.302,8.708,42.188,0.193c2.847-2.04,6.182-3.597,9.44-5.126c6.704-3.15,14.405-1.742,20.926,3.481
		c9.141,7.323,31.183,10.584,42.903,3.235c2.345-1.471,5.037-2.509,7.396-3.965c9.542-5.896,14.718-5.721,24.439,0.312
		c4.021,2.497,8.371,4.843,12.958,6.315c11.956,3.839,23.048,1.78,32.979-5.17c5.426-3.797,6.681-3.444,9.432,2.441
		c1.097,2.347,3.202,4.398,3.884,6.799c0.506,1.783,0.263,4.654-1.037,5.764c-7.068,6.032-14.692,11.496-24.634,13.509
		C426.256,425.702,425.13,425.79,424.669,425.854z"/>
	<path style="fill-rule:evenodd;clip-rule:evenodd;fill:#FFFFFF;" d="M331.486,348.059c0.027-12.093,0.027-12.093,13.493-12.218
		c10.153-0.094,10.146-0.094,10.1,8.776c-0.02,3.555-0.07,7.112,0.026,10.664c0.089,3.191-1.479,4.74-5.148,4.717
		c-4.979-0.033-9.978,0.255-14.93-0.055c-1.248-0.078-3.184-1.796-3.374-2.945C331.168,354.074,331.493,351.045,331.486,348.059z"/>
</g>
</svg>
