<?xml version="1.0" encoding="iso-8859-1"?>
<!-- Generator: Adobe Illustrator 16.0.0, SVG Export Plug-In . SVG Version: 6.00 Build 0)  -->
<!DOCTYPE svg PUBLIC "-//W3C//DTD SVG 1.1//EN" "http://www.w3.org/Graphics/SVG/1.1/DTD/svg11.dtd">
<svg version="1.1" id="Layer_1" xmlns="http://www.w3.org/2000/svg" xmlns:xlink="http://www.w3.org/1999/xlink" x="0px" y="0px"
	 width="600px" height="600px" viewBox="0 0 600 600" style="enable-background:new 0 0 600 600;" xml:space="preserve">
<g style="opacity:0.3;">
	<path style="fill:#FFFFFF;" d="M301.99,81.164c12.775,2.862,19.797,11.376,26.252,21.356
		c63.984,98.91,128.262,197.656,192.457,296.448c19.455,29.938,38.945,59.852,58.35,89.814c7.275,11.233,2.344,23.808-10.926,28.354
		c-1.422,0.486-2.781,1.128-4.17,1.699c-177.785,0-355.566,0-533.348,0c-6.864-3.471-11.128-8.819-13.193-15.757
		c0-2.626,0-5.253,0-7.878c1.417-2.873,2.562-5.897,4.29-8.599c83.338-130.238,166.74-260.44,250.057-390.69
		c3.255-5.089,7.527-8.934,13.09-11.558c2.757-1.3,5.767-2.142,8.661-3.19C296.336,81.164,299.164,81.164,301.99,81.164
		 M302.212,79.164h-0.222h-8.481h-0.351l-0.33,0.12c-0.88,0.319-1.797,0.627-2.684,0.925c-2.038,0.685-4.146,1.393-6.149,2.337
		c-5.841,2.756-10.395,6.775-13.922,12.289c-47.56,74.352-95.944,149.932-142.736,223.024
		C91.56,373.744,55.782,429.631,20.017,485.524c-1.254,1.962-2.207,4.052-3.127,6.074c-0.41,0.9-0.834,1.831-1.271,2.718
		l-0.207,0.418v0.467v7.878v0.291l0.083,0.279c2.276,7.646,7.057,13.355,14.208,16.972l0.425,0.215h0.477h533.348h0.396l0.365-0.15
		c0.444-0.183,0.885-0.372,1.326-0.562c0.938-0.404,1.825-0.785,2.73-1.095c7.284-2.496,12.477-7.283,14.62-13.481
		c1.998-5.775,1.052-12.115-2.663-17.852c-13.59-20.985-27.45-42.297-40.854-62.907c-5.833-8.969-11.667-17.938-17.497-26.91
		c-14.045-21.614-28.094-43.227-42.144-64.839c-49.323-75.877-100.327-154.338-150.311-231.606
		c-5.878-9.088-13.335-19.049-27.494-22.222L302.212,79.164L302.212,79.164z"/>
</g>
<path style="fill:#ED1C24;stroke:#000000;stroke-width:2;stroke-miterlimit:10;" d="M17.412,503.079c0-2.626,0-5.253,0-7.878
	c1.417-2.873,2.562-5.897,4.29-8.599c83.338-130.238,166.74-260.44,250.057-390.69c3.255-5.089,7.527-8.934,13.09-11.558
	c2.757-1.3,5.767-2.142,8.661-3.19c2.827,0,5.654,0,8.481,0c12.775,2.862,19.797,11.376,26.252,21.356
	c63.984,98.91,128.262,197.656,192.457,296.448c19.455,29.938,38.945,59.852,58.35,89.814c7.275,11.233,2.344,23.808-10.926,28.354
	c-1.422,0.486-2.781,1.128-4.17,1.699c-177.785,0-355.566,0-533.348,0C23.741,515.365,19.477,510.017,17.412,503.079z"/>
<path style="fill-rule:evenodd;clip-rule:evenodd;fill:#FFFFFF;" d="M298.396,155.66c66.18,103.2,131.87,205.636,198.237,309.128
	c-131.123,0-261.259,0-392.014,0C169.053,361.998,233.519,259.157,298.396,155.66z"/>
<path style="fill:none;stroke:#000000;stroke-width:1.5;stroke-miterlimit:10;" d="M298.396,155.66
	c-64.877,103.497-129.343,206.338-193.777,309.128c130.755,0,260.891,0,392.014,0C430.266,361.296,364.576,258.86,298.396,155.66z"
	/>
<g>
	<path style="fill:#FFFFFF;" d="M331.199,213.167c-0.114-0.018-0.477-0.17-0.805-0.118c-48.207,7.422-83.832,30.892-100.396,78.705
		c-5.954,17.189-8.921,34.719-4.028,52.581c7.81,28.506,22.187,42.218,51.826,47.723c4.232,0.786,8.619,0.737,12.937,1.055
		c1.122,0.083,2.247,0.088,3.873,0.146c-0.191,1.709-0.062,3.267-0.571,4.579c-1.194,3.079-2.455,6.179-4.107,9.026
		c-8.456,14.588-20.432,25.987-33.618,36.166c-7.198,5.556-14.762,10.633-22.796,16.378c1.905-0.165,3.114-0.221,4.312-0.386
		c20.663-2.845,39.749-9.594,56.82-21.943c14.472-10.469,27.605-22.179,37.858-36.909c19.653-28.229,19.872-58.523,9.266-89.833
		c-1.325-3.909-3.48-7.766-6.076-10.979c-13.297-16.44-31.027-24.223-51.822-25.663c-2.229-0.152-4.465-0.173-7.13-0.272
		c3.566-12.104,8.552-22.906,17.785-30.828C306.404,232.406,318.922,222.959,331.199,213.167z"/>
	<path style="fill-rule:evenodd;clip-rule:evenodd;" d="M331.199,213.167c-12.277,9.792-24.795,19.238-36.675,29.427
		c-9.233,7.921-14.219,18.724-17.785,30.828c2.665,0.099,4.901,0.12,7.13,0.272c20.795,1.44,38.525,9.223,51.822,25.663
		c2.596,3.214,4.751,7.07,6.076,10.979c10.606,31.31,10.388,61.604-9.266,89.833c-10.253,14.73-23.386,26.44-37.858,36.909
		c-17.071,12.35-36.157,19.099-56.82,21.943c-1.197,0.165-2.406,0.221-4.312,0.386c8.035-5.745,15.599-10.822,22.796-16.378
		c13.186-10.179,25.162-21.578,33.618-36.166c1.653-2.848,2.913-5.947,4.107-9.026c0.509-1.312,0.38-2.87,0.571-4.579
		c-1.626-0.059-2.751-0.063-3.873-0.146c-4.318-0.317-8.704-0.269-12.937-1.055c-29.64-5.505-44.017-19.217-51.826-47.723
		c-4.893-17.862-1.926-35.392,4.028-52.581c16.564-47.813,52.19-71.282,100.396-78.705
		C330.723,212.998,331.085,213.149,331.199,213.167z"/>
</g>
</svg>
