<?xml version="1.0" encoding="iso-8859-1"?>
<!-- Generator: Adobe Illustrator 16.0.0, SVG Export Plug-In . SVG Version: 6.00 Build 0)  -->
<!DOCTYPE svg PUBLIC "-//W3C//DTD SVG 1.1//EN" "http://www.w3.org/Graphics/SVG/1.1/DTD/svg11.dtd">
<svg version="1.1" id="Layer_1" xmlns="http://www.w3.org/2000/svg" xmlns:xlink="http://www.w3.org/1999/xlink" x="0px" y="0px"
	 width="600px" height="600px" viewBox="0 0 600 600" style="enable-background:new 0 0 600 600;" xml:space="preserve">
<g style="opacity:0.3;">
	<path style="fill:#FFFFFF;" d="M302.145,81.164c12.775,2.862,19.796,11.376,26.251,21.356
		c63.985,98.91,128.263,197.656,192.458,296.448c19.454,29.938,38.945,59.852,58.35,89.814c7.275,11.233,2.343,23.808-10.926,28.354
		c-1.422,0.486-2.781,1.128-4.17,1.699c-177.785,0-355.566,0-533.349,0c-6.864-3.471-11.128-8.819-13.193-15.757
		c0-2.626,0-5.253,0-7.878c1.417-2.873,2.562-5.897,4.29-8.599c83.338-130.238,166.74-260.44,250.057-390.69
		c3.255-5.089,7.527-8.934,13.09-11.558c2.757-1.3,5.767-2.142,8.661-3.19C296.49,81.164,299.317,81.164,302.145,81.164
		 M302.366,79.164h-0.222h-8.481h-0.351l-0.331,0.12c-0.879,0.319-1.797,0.627-2.684,0.925c-2.038,0.685-4.146,1.393-6.149,2.337
		c-5.841,2.756-10.395,6.775-13.922,12.289c-47.569,74.365-95.962,149.959-142.763,223.065
		C91.696,373.772,55.927,429.646,20.171,485.524c-1.254,1.962-2.207,4.052-3.127,6.073c-0.41,0.9-0.834,1.832-1.271,2.719
		l-0.207,0.418v0.467v7.878v0.291l0.083,0.279c2.276,7.646,7.057,13.355,14.208,16.972l0.425,0.215h0.477h533.349h0.396l0.365-0.15
		c0.444-0.183,0.886-0.372,1.327-0.562c0.938-0.403,1.824-0.784,2.729-1.094c7.284-2.496,12.477-7.284,14.62-13.482
		c1.998-5.775,1.052-12.115-2.663-17.851c-13.466-20.793-27.198-41.908-40.479-62.329c-5.958-9.162-11.917-18.324-17.872-27.488
		c-14.067-21.648-28.139-43.295-42.21-64.941c-49.302-75.844-100.282-154.27-150.245-231.503
		c-5.878-9.088-13.335-19.049-27.493-22.222L302.366,79.164L302.366,79.164z"/>
</g>
<path style="fill:#F68B1F;stroke:#000000;stroke-width:2;stroke-miterlimit:10;" d="M17.565,503.079c0-2.626,0-5.253,0-7.878
	c1.417-2.873,2.562-5.897,4.29-8.599c83.338-130.238,166.74-260.44,250.057-390.69c3.255-5.089,7.527-8.934,13.09-11.558
	c2.757-1.3,5.767-2.142,8.661-3.19c2.827,0,5.654,0,8.481,0c12.775,2.862,19.796,11.376,26.251,21.356
	c63.985,98.91,128.263,197.656,192.458,296.448c19.454,29.938,38.945,59.852,58.35,89.814c7.275,11.233,2.343,23.808-10.926,28.354
	c-1.422,0.486-2.781,1.128-4.17,1.699c-177.785,0-355.566,0-533.349,0C23.895,515.365,19.631,510.017,17.565,503.079z"/>
<path style="fill-rule:evenodd;clip-rule:evenodd;fill:#FFFFFF;" d="M298.55,155.66c66.18,103.2,131.869,205.636,198.236,309.128
	c-131.123,0-261.259,0-392.014,0C169.207,361.998,233.673,259.157,298.55,155.66z"/>
<path style="fill:none;stroke:#000000;stroke-width:1.5;stroke-miterlimit:10;" d="M298.55,155.66
	c-64.877,103.497-129.343,206.338-193.777,309.128c130.755,0,260.891,0,392.014,0C430.419,361.296,364.729,258.86,298.55,155.66z"/>
<path style="fill:none;stroke:#231F20;stroke-width:11;stroke-miterlimit:10;" d="M200.484,419.626l105.432-0.014L411.35,419.6
	c0,0,0.648-0.13,1.387-0.315c0.743-0.185,1.576-0.427,1.946-0.653c23.077-14.096,18.086-31.804,11.385-43.021
	c-9.136-12.555-24.041-12.953-23.991-14.217c0.89-22.8-10.188-31.98-21.556-35.534c-11.366-3.551-23.022-1.477-23.283-1.764
	c-30.43-33.645-60.864-33.309-83.996-21.914s-38.961,33.847-40.183,44.437c-0.064,0.562-3.17,0.777-6.772,0.96
	c-3.603,0.181-7.701,0.33-9.755,0.76c-16.313,3.418-27.525,11.682-34.02,21.506c-6.495,9.822-8.271,21.209-5.716,30.874
	c0.798,3.019,2.766,7.918,5.834,11.972c3.068,4.057,7.237,7.267,12.438,6.91c0.437-0.031,1.79-0.023,3.034-0.011
	C199.349,419.604,200.484,419.626,200.484,419.626z"/>
<rect x="248" y="402.906" style="fill:#FFFFFF;" width="122.563" height="24.688"/>
<rect x="287.675" y="288.5" style="fill:#FFFFFF;" width="32" height="16.057"/>
<path style="fill-rule:evenodd;clip-rule:evenodd;" d="M304.604,245.848c10.104-0.014,16.947,7.564,15.633,17.955
	c-1.896,14.979-4.227,29.903-6.322,44.857c-1.464,10.443-2.965,20.885-4.18,31.359c-0.295,2.517-1.05,3.322-3.521,3.375
	c-6.998,0.146-6.82,0.215-7.709-6.479c-2.707-20.39-5.564-40.757-8.353-61.137c-0.601-4.387-1.248-8.771-1.707-13.173
	C287.452,253.086,294.468,245.861,304.604,245.848z"/>
<path style="fill-rule:evenodd;clip-rule:evenodd;" d="M304.388,380.465c-7.479,0.015-13.485-5.816-13.659-13.265
	c-0.171-7.349,6.193-13.817,13.61-13.831c7.267-0.014,13.502,6.104,13.648,13.391C318.138,374.281,312.016,380.452,304.388,380.465z
	"/>
<g>
	<path style="fill-rule:evenodd;clip-rule:evenodd;" d="M298.307,412.588c-0.452,0.525-0.847,1.121-1.372,1.561
		c-0.712,0.596-1.534,1.059-2.292,1.603c-1.779,1.275-1.747,2.615,0.045,3.869c0.542,0.38,1.051,0.823,1.504,1.303
		c0.162,0.172,0.244,0.622,0.131,0.792c-0.121,0.185-0.541,0.309-0.782,0.254c-0.839-0.194-1.763-0.314-2.468-0.759
		c-2.284-1.442-4.577-1.179-6.906-0.271c-0.709,0.276-1.405,0.641-2.022,1.082c-1.626,1.161-1.681,2.934-0.188,4.227
		c2.245,1.944,6.075,2.391,8.758,1.121c0.914-0.433,1.937-0.65,2.927-0.897c0.223-0.056,0.67,0.12,0.738,0.296
		c0.08,0.206-0.064,0.609-0.246,0.786c-0.5,0.483-1.053,0.92-1.619,1.325c-1.534,1.1-1.592,2.422-0.104,3.59
		c1.023,0.803,2.094,1.543,3.101,2.363c0.306,0.248,0.473,0.666,0.704,1.007c-0.045,0.091-0.091,0.182-0.137,0.272
		c-0.396-0.026-0.83,0.038-1.184-0.1c-1.086-0.424-2.154-0.895-3.205-1.4c-2.074-0.999-3.157-0.428-3.415,1.822
		c-0.071,0.627-0.173,1.257-0.339,1.865c-0.067,0.248-0.34,0.44-0.52,0.658c-0.239-0.204-0.624-0.369-0.691-0.619
		c-0.258-0.962-0.621-1.961-0.568-2.927c0.172-3.144-3.367-6.439-5.439-7.062c-1.565-0.471-2.812,0.242-3.201,1.835
		c-0.541,2.211,0.635,6.917,3.323,8.277c0.835,0.422,1.504,1.202,2.18,1.885c0.212,0.214,0.2,0.646,0.291,0.979
		c-0.341,0.066-0.706,0.24-1.019,0.174c-0.542-0.117-1.067-0.353-1.576-0.592c-1.932-0.904-3.195-0.145-3.32,1.986
		c-0.066,1.131-0.142,2.27-0.33,3.385c-0.074,0.436-0.471,0.816-0.72,1.223c-0.277-0.418-0.712-0.804-0.801-1.258
		c-0.223-1.142-0.275-2.314-0.423-3.472c-0.266-2.09-1.252-2.636-3.164-1.799c-0.607,0.267-1.232,0.509-1.873,0.677
		c-0.24,0.062-0.663-0.043-0.784-0.221c-0.107-0.157-0.001-0.61,0.166-0.778c0.679-0.681,1.32-1.494,2.149-1.909
		c2.889-1.443,3.912-6.104,3.437-8.41c-0.331-1.605-1.663-2.314-3.29-1.81c-2.153,0.668-5.367,4.004-5.305,6.964
		c0.022,1.037-0.349,2.089-0.609,3.116c-0.056,0.215-0.408,0.455-0.648,0.483c-0.145,0.018-0.439-0.327-0.486-0.547
		c-0.163-0.746-0.27-1.506-0.354-2.266c-0.182-1.642-1.027-2.273-2.594-1.781c-0.85,0.266-1.623,0.766-2.458,1.088
		c-0.846,0.324-1.726,0.559-2.59,0.834c-0.099-0.129-0.197-0.258-0.296-0.387c0.29-0.424,0.507-0.932,0.883-1.256
		c0.929-0.805,1.947-1.506,2.9-2.284c1.604-1.311,1.535-2.591-0.176-3.784c-0.756-0.526-1.6-0.975-1.787-2.069
		c1.241-0.579,2.358-0.105,3.312,0.465c2.553,1.526,5.069,1.147,7.59,0.067c0.685-0.293,1.342-1.768,1.86-2.305
		c1.167-1.209,1.04-1.878-0.365-2.811c-2.853-1.891-5.828-2.747-9.095-0.836c-0.737,0.433-1.704,0.492-2.578,0.66
		c-0.201,0.037-0.572-0.139-0.646-0.31c-0.076-0.175,0.047-0.542,0.208-0.691c0.584-0.543,1.204-1.051,1.841-1.532
		c1.219-0.921,1.359-2.078,0.233-3.109c-0.733-0.669-1.645-1.141-2.41-1.779c-0.659-0.55-1.225-1.212-1.831-1.824
		c0.077-0.139,0.154-0.275,0.232-0.414c0.52,0.074,1.074,0.055,1.551,0.238c0.993,0.381,1.947,0.863,2.913,1.313
		c1.94,0.905,3.098,0.259,3.319-1.843c0.065-0.629,0.135-1.265,0.3-1.871c0.074-0.27,0.392-0.472,0.599-0.704
		c0.209,0.194,0.541,0.356,0.604,0.591c0.25,0.929,0.552,1.876,0.589,2.825c0.131,3.323,2.02,5.46,4.725,6.932
		c2.229,1.212,4.036-0.046,3.996-2.699c-0.027-1.923-0.43-3.805-1.594-5.394c-0.479-0.654-1.182-1.148-1.801-1.695
		c-0.744-0.66-1.53-1.273-2.243-1.965c-0.197-0.189-0.198-0.583-0.289-0.884c0.332-0.079,0.7-0.288,0.99-0.21
		c0.633,0.17,1.233,0.472,1.835,0.746c1.639,0.746,2.756,0.159,3.01-1.641c0.167-1.188,0.194-2.399,0.418-3.574
		c0.102-0.527,0.531-0.99,0.812-1.482c0.271,0.498,0.681,0.968,0.784,1.498c0.19,0.977,0.233,1.986,0.28,2.985
		c0.094,1.965,1.326,3.308,3.289,2.109c0.442-0.271,0.969-0.442,1.479-0.55c0.352-0.075,0.743,0.04,1.116,0.07
		c-0.11,0.391-0.107,0.885-0.353,1.148c-0.584,0.633-1.205,1.318-1.955,1.692c-2.814,1.405-3.922,5.853-3.485,8.201
		c0.306,1.645,1.573,2.448,3.177,1.999c2.156-0.604,5.527-3.906,5.49-6.93c-0.014-1.043,0.326-2.098,0.57-3.131
		c0.057-0.233,0.445-0.597,0.584-0.557c0.26,0.074,0.572,0.364,0.641,0.624c0.18,0.673,0.268,1.374,0.339,2.068
		c0.19,1.86,1.343,2.54,3.09,1.772c0.946-0.417,1.855-0.921,2.815-1.299c0.568-0.224,1.202-0.277,1.807-0.408
		C298.1,412.324,298.203,412.456,298.307,412.588z"/>
</g>
<g>
	<path style="fill-rule:evenodd;clip-rule:evenodd;fill:#FFFFFF;" d="M357.076,388.783c-0.139-0.175-0.276-0.351-0.414-0.525
		c-0.807,0.174-1.652,0.246-2.409,0.544c-1.28,0.504-2.493,1.176-3.754,1.731c-2.329,1.023-3.866,0.118-4.12-2.362
		c-0.095-0.927-0.212-1.861-0.451-2.758c-0.092-0.347-0.509-0.733-0.855-0.833c-0.184-0.053-0.703,0.432-0.777,0.742
		c-0.326,1.379-0.779,2.785-0.762,4.176c0.051,4.031-4.444,8.435-7.32,9.239c-2.139,0.599-3.827-0.473-4.235-2.666
		c-0.582-3.132,0.896-9.061,4.647-10.935c1-0.499,1.828-1.413,2.606-2.256c0.327-0.353,0.323-1.012,0.471-1.531
		c-0.498-0.041-1.021-0.194-1.489-0.095c-0.68,0.144-1.381,0.373-1.971,0.733c-2.617,1.598-4.26-0.192-4.385-2.812
		c-0.063-1.332-0.12-2.678-0.374-3.98c-0.139-0.707-0.685-1.334-1.046-1.998c-0.375,0.656-0.948,1.274-1.083,1.977
		c-0.299,1.567-0.335,3.182-0.558,4.766c-0.339,2.4-1.828,3.184-4.012,2.188c-0.803-0.365-1.604-0.768-2.447-0.994
		c-0.388-0.104-0.878,0.175-1.321,0.28c0.121,0.4,0.123,0.925,0.386,1.179c0.951,0.921,2,1.739,2.992,2.619
		c0.824,0.729,1.762,1.389,2.4,2.261c1.551,2.118,2.088,4.628,2.125,7.191c0.053,3.537-2.357,5.214-5.328,3.599
		c-3.607-1.962-6.127-4.812-6.301-9.242c-0.049-1.266-0.451-2.528-0.784-3.767c-0.085-0.312-0.527-0.528-0.806-0.788
		c-0.275,0.31-0.7,0.58-0.799,0.938c-0.221,0.809-0.312,1.657-0.4,2.495c-0.295,2.803-1.838,3.664-4.425,2.457
		c-1.288-0.601-2.561-1.243-3.885-1.752c-0.636-0.244-1.375-0.219-2.067-0.316c-0.104,0.184-0.207,0.367-0.311,0.551
		c0.809,0.817,1.563,1.7,2.442,2.434c1.021,0.852,2.235,1.479,3.213,2.372c1.503,1.374,1.313,2.918-0.312,4.146
		c-0.85,0.642-1.676,1.319-2.454,2.043c-0.214,0.199-0.378,0.689-0.277,0.922c0.1,0.229,0.595,0.463,0.862,0.412
		c1.165-0.223,2.454-0.303,3.438-0.879c4.355-2.549,8.323-1.407,12.126,1.114c1.874,1.243,2.043,3.469,0.487,5.08
		c-0.691,0.716-1.568,1.349-2.48,1.74c-3.36,1.44-6.717,1.944-10.119-0.09c-1.273-0.761-2.763-1.392-4.418-0.62
		c0.252,1.46,1.376,2.058,2.383,2.76c2.282,1.59,2.374,3.298,0.234,5.045c-1.271,1.037-2.628,1.973-3.867,3.046
		c-0.501,0.433-0.79,1.108-1.176,1.674c0.131,0.173,0.262,0.345,0.394,0.517c1.153-0.367,2.326-0.68,3.454-1.113
		c1.113-0.429,2.145-1.096,3.277-1.45c2.088-0.655,3.215,0.187,3.458,2.375c0.112,1.013,0.254,2.026,0.471,3.021
		c0.063,0.294,0.456,0.754,0.649,0.73c0.32-0.038,0.79-0.358,0.863-0.646c0.349-1.369,0.843-2.772,0.814-4.154
		c-0.084-3.947,4.201-8.395,7.07-9.285c2.172-0.673,3.947,0.272,4.388,2.412c0.634,3.076-0.73,9.29-4.581,11.214
		c-1.106,0.554-1.962,1.639-2.866,2.546c-0.223,0.224-0.365,0.828-0.222,1.038c0.161,0.236,0.726,0.376,1.046,0.293
		c0.853-0.223,1.687-0.547,2.497-0.901c2.549-1.116,3.864-0.389,4.219,2.398c0.196,1.543,0.267,3.106,0.564,4.629
		c0.118,0.605,0.697,1.12,1.066,1.677c0.333-0.541,0.861-1.05,0.96-1.631c0.252-1.486,0.352-3.004,0.44-4.512
		c0.166-2.842,1.852-3.855,4.428-2.648c0.678,0.318,1.378,0.633,2.102,0.789c0.416,0.088,0.902-0.145,1.357-0.232
		c-0.121-0.444-0.105-1.021-0.388-1.306c-0.901-0.911-1.794-1.951-2.906-2.514c-3.585-1.813-5.152-8.088-4.432-11.036
		c0.519-2.124,2.181-3.074,4.269-2.447c2.764,0.83,7.482,5.225,7.252,9.416c-0.07,1.287,0.415,2.62,0.759,3.902
		c0.09,0.333,0.603,0.554,0.921,0.826c0.24-0.291,0.604-0.548,0.693-0.879c0.221-0.811,0.356-1.65,0.452-2.486
		c0.344-3,1.788-3.762,4.554-2.43c1.4,0.674,2.825,1.303,4.272,1.867c0.472,0.184,1.05,0.098,1.579,0.133
		c0.061-0.121,0.121-0.242,0.182-0.363c-0.309-0.454-0.531-1.012-0.938-1.343c-1.343-1.093-2.771-2.081-4.134-3.15
		c-1.984-1.558-1.908-3.321,0.137-4.786c0.756-0.541,1.492-1.123,2.159-1.768c0.243-0.236,0.435-0.773,0.328-1.049
		c-0.091-0.234-0.687-0.468-0.983-0.394c-1.32,0.329-2.685,0.619-3.903,1.196c-3.577,1.692-8.684,1.098-11.677-1.495
		c-1.99-1.724-1.918-4.087,0.25-5.636c0.823-0.588,1.752-1.073,2.697-1.441c3.104-1.212,6.162-1.562,9.208,0.36
		c0.939,0.593,2.171,0.752,3.29,1.011c0.322,0.074,0.881-0.092,1.043-0.338c0.15-0.227,0.042-0.827-0.174-1.056
		c-0.605-0.64-1.283-1.23-2.006-1.737c-2.39-1.672-2.432-3.458-0.061-5.159c1.011-0.726,2.107-1.343,3.057-2.137
		C355.946,390.278,356.473,389.484,357.076,388.783z"/>
	<path style="fill-rule:evenodd;clip-rule:evenodd;" d="M357.076,388.783c-0.604,0.701-1.13,1.495-1.83,2.081
		c-0.949,0.794-2.046,1.411-3.057,2.137c-2.371,1.701-2.329,3.487,0.061,5.159c0.723,0.507,1.4,1.098,2.006,1.737
		c0.216,0.229,0.324,0.829,0.174,1.056c-0.162,0.246-0.721,0.412-1.043,0.338c-1.119-0.259-2.351-0.418-3.29-1.011
		c-3.046-1.923-6.104-1.572-9.208-0.36c-0.945,0.368-1.874,0.854-2.697,1.441c-2.168,1.549-2.24,3.912-0.25,5.636
		c2.993,2.593,8.1,3.188,11.677,1.495c1.219-0.577,2.583-0.867,3.903-1.196c0.297-0.074,0.893,0.159,0.983,0.394
		c0.106,0.275-0.085,0.812-0.328,1.049c-0.667,0.645-1.403,1.227-2.159,1.768c-2.045,1.465-2.121,3.229-0.137,4.786
		c1.363,1.069,2.791,2.058,4.134,3.15c0.407,0.331,0.63,0.889,0.938,1.343c-0.061,0.121-0.121,0.242-0.182,0.363
		c-0.529-0.035-1.107,0.051-1.579-0.133c-1.447-0.564-2.872-1.193-4.272-1.867c-2.766-1.332-4.21-0.57-4.554,2.43
		c-0.096,0.836-0.231,1.676-0.452,2.486c-0.09,0.331-0.453,0.588-0.693,0.879c-0.318-0.272-0.831-0.493-0.921-0.826
		c-0.344-1.282-0.829-2.615-0.759-3.902c0.23-4.191-4.488-8.586-7.252-9.416c-2.088-0.627-3.75,0.323-4.269,2.447
		c-0.721,2.948,0.847,9.223,4.432,11.036c1.112,0.562,2.005,1.603,2.906,2.514c0.282,0.284,0.267,0.861,0.388,1.306
		c-0.455,0.088-0.941,0.32-1.357,0.232c-0.724-0.156-1.424-0.471-2.102-0.789c-2.576-1.207-4.262-0.193-4.428,2.648
		c-0.089,1.508-0.188,3.025-0.44,4.512c-0.099,0.581-0.627,1.09-0.96,1.631c-0.369-0.557-0.948-1.071-1.066-1.677
		c-0.298-1.522-0.368-3.086-0.564-4.629c-0.354-2.787-1.67-3.515-4.219-2.398c-0.811,0.354-1.645,0.679-2.497,0.901
		c-0.32,0.083-0.885-0.057-1.046-0.293c-0.144-0.21-0.001-0.814,0.222-1.038c0.904-0.907,1.76-1.992,2.866-2.546
		c3.851-1.924,5.215-8.138,4.581-11.214c-0.44-2.14-2.216-3.085-4.388-2.412c-2.869,0.891-7.154,5.338-7.07,9.285
		c0.028,1.382-0.466,2.785-0.814,4.154c-0.073,0.287-0.543,0.607-0.863,0.646c-0.193,0.023-0.586-0.437-0.649-0.73
		c-0.217-0.994-0.358-2.008-0.471-3.021c-0.243-2.188-1.37-3.03-3.458-2.375c-1.133,0.354-2.164,1.021-3.277,1.45
		c-1.128,0.434-2.301,0.746-3.454,1.113c-0.132-0.172-0.263-0.344-0.394-0.517c0.386-0.565,0.675-1.241,1.176-1.674
		c1.239-1.073,2.597-2.009,3.867-3.046c2.14-1.747,2.048-3.455-0.234-5.045c-1.007-0.702-2.131-1.3-2.383-2.76
		c1.655-0.771,3.145-0.141,4.418,0.62c3.402,2.034,6.759,1.53,10.119,0.09c0.912-0.392,1.789-1.024,2.48-1.74
		c1.556-1.611,1.387-3.837-0.487-5.08c-3.803-2.521-7.771-3.663-12.126-1.114c-0.983,0.576-2.272,0.656-3.438,0.879
		c-0.268,0.051-0.763-0.184-0.862-0.412c-0.101-0.232,0.063-0.723,0.277-0.922c0.778-0.724,1.604-1.401,2.454-2.043
		c1.625-1.228,1.814-2.771,0.312-4.146c-0.978-0.893-2.192-1.521-3.213-2.372c-0.879-0.733-1.634-1.616-2.442-2.434
		c0.104-0.184,0.207-0.367,0.311-0.551c0.692,0.098,1.432,0.072,2.067,0.316c1.324,0.509,2.597,1.151,3.885,1.752
		c2.587,1.207,4.13,0.346,4.425-2.457c0.088-0.838,0.18-1.687,0.4-2.495c0.099-0.358,0.523-0.629,0.799-0.938
		c0.278,0.26,0.721,0.476,0.806,0.788c0.333,1.238,0.735,2.501,0.784,3.767c0.174,4.431,2.693,7.28,6.301,9.242
		c2.971,1.615,5.381-0.062,5.328-3.599c-0.037-2.563-0.574-5.073-2.125-7.191c-0.639-0.872-1.576-1.531-2.4-2.261
		c-0.992-0.88-2.041-1.698-2.992-2.619c-0.263-0.254-0.265-0.778-0.386-1.179c0.443-0.105,0.934-0.385,1.321-0.28
		c0.844,0.227,1.645,0.629,2.447,0.994c2.184,0.996,3.673,0.213,4.012-2.188c0.223-1.584,0.259-3.198,0.558-4.766
		c0.135-0.702,0.708-1.32,1.083-1.977c0.361,0.664,0.907,1.291,1.046,1.998c0.254,1.303,0.311,2.648,0.374,3.98
		c0.125,2.62,1.768,4.41,4.385,2.812c0.59-0.36,1.291-0.59,1.971-0.733c0.469-0.1,0.991,0.054,1.489,0.095
		c-0.147,0.52-0.144,1.179-0.471,1.531c-0.778,0.843-1.606,1.757-2.606,2.256c-3.752,1.874-5.229,7.803-4.647,10.935
		c0.408,2.193,2.097,3.265,4.235,2.666c2.876-0.805,7.371-5.208,7.32-9.239c-0.018-1.391,0.436-2.797,0.762-4.176
		c0.074-0.311,0.594-0.795,0.777-0.742c0.347,0.1,0.764,0.486,0.855,0.833c0.239,0.896,0.356,1.831,0.451,2.758
		c0.254,2.48,1.791,3.386,4.12,2.362c1.261-0.556,2.474-1.228,3.754-1.731c0.757-0.298,1.603-0.37,2.409-0.544
		C356.8,388.433,356.938,388.608,357.076,388.783z"/>
</g>
<g>
	<path style="fill-rule:evenodd;clip-rule:evenodd;" d="M325.486,442.461c-0.226,0.263-0.423,0.561-0.686,0.78
		c-0.355,0.298-0.768,0.529-1.146,0.802c-0.889,0.637-0.873,1.307,0.023,1.934c0.271,0.19,0.525,0.412,0.752,0.652
		c0.08,0.086,0.121,0.311,0.064,0.396c-0.061,0.093-0.27,0.154-0.391,0.127c-0.42-0.097-0.881-0.157-1.234-0.38
		c-1.142-0.721-2.288-0.589-3.453-0.135c-0.354,0.139-0.702,0.32-1.011,0.541c-0.813,0.58-0.841,1.467-0.094,2.113
		c1.122,0.973,3.038,1.195,4.379,0.561c0.457-0.217,0.968-0.325,1.464-0.449c0.111-0.027,0.334,0.061,0.369,0.148
		c0.039,0.104-0.033,0.305-0.123,0.393c-0.25,0.242-0.527,0.461-0.811,0.663c-0.767,0.55-0.795,1.211-0.051,1.795
		c0.512,0.401,1.047,0.771,1.55,1.182c0.153,0.124,0.236,0.333,0.353,0.503c-0.023,0.046-0.046,0.092-0.068,0.137
		c-0.199-0.014-0.416,0.02-0.592-0.05c-0.543-0.212-1.078-0.447-1.604-0.7c-1.037-0.5-1.578-0.214-1.707,0.911
		c-0.035,0.313-0.086,0.628-0.17,0.933c-0.033,0.124-0.17,0.221-0.26,0.329c-0.119-0.103-0.312-0.185-0.346-0.31
		c-0.129-0.48-0.311-0.98-0.283-1.463c0.086-1.572-1.684-3.221-2.721-3.531c-0.782-0.235-1.406,0.121-1.6,0.918
		c-0.271,1.105,0.316,3.458,1.661,4.139c0.417,0.211,0.752,0.601,1.09,0.941c0.106,0.107,0.101,0.324,0.146,0.49
		c-0.17,0.033-0.354,0.12-0.51,0.087c-0.271-0.059-0.533-0.177-0.787-0.296c-0.967-0.452-1.598-0.072-1.66,0.993
		c-0.033,0.565-0.071,1.135-0.166,1.692c-0.037,0.218-0.234,0.408-0.359,0.611c-0.139-0.209-0.355-0.402-0.4-0.629
		c-0.111-0.57-0.138-1.157-0.211-1.736c-0.133-1.045-0.627-1.317-1.582-0.898c-0.305,0.133-0.617,0.254-0.938,0.338
		c-0.119,0.031-0.331-0.021-0.392-0.11c-0.054-0.079-0.001-0.306,0.083-0.39c0.34-0.34,0.66-0.746,1.074-0.954
		c1.445-0.722,1.957-3.052,1.719-4.205c-0.166-0.803-0.832-1.157-1.645-0.905c-1.077,0.334-2.684,2.002-2.652,3.482
		c0.011,0.519-0.175,1.045-0.305,1.559c-0.028,0.107-0.205,0.227-0.324,0.241c-0.072,0.009-0.221-0.163-0.244-0.273
		c-0.081-0.373-0.135-0.753-0.176-1.133c-0.092-0.821-0.514-1.137-1.297-0.891c-0.425,0.133-0.812,0.383-1.229,0.544
		c-0.423,0.162-0.862,0.279-1.295,0.417c-0.05-0.064-0.099-0.129-0.147-0.193c0.145-0.212,0.253-0.466,0.44-0.628
		c0.465-0.402,0.974-0.753,1.45-1.143c0.803-0.654,0.768-1.295-0.088-1.892c-0.377-0.263-0.799-0.487-0.894-1.034
		c0.621-0.29,1.18-0.053,1.657,0.232c1.275,0.763,2.534,0.573,3.795,0.033c0.342-0.146,0.67-0.884,0.93-1.152
		c0.584-0.604,0.52-0.939-0.183-1.405c-1.427-0.945-2.914-1.374-4.547-0.418c-0.369,0.216-0.853,0.246-1.29,0.33
		c-0.1,0.019-0.285-0.069-0.322-0.155c-0.039-0.087,0.023-0.271,0.104-0.346c0.292-0.271,0.602-0.525,0.92-0.766
		c0.609-0.461,0.681-1.039,0.117-1.555c-0.366-0.334-0.822-0.57-1.205-0.89c-0.33-0.274-0.612-0.606-0.916-0.912
		c0.039-0.069,0.078-0.138,0.117-0.207c0.26,0.037,0.536,0.027,0.775,0.119c0.496,0.19,0.974,0.432,1.456,0.657
		c0.971,0.452,1.549,0.129,1.659-0.922c0.033-0.314,0.068-0.633,0.15-0.936c0.037-0.135,0.195-0.236,0.299-0.352
		c0.105,0.097,0.271,0.178,0.303,0.295c0.125,0.465,0.275,0.938,0.295,1.412c0.064,1.662,1.01,2.73,2.361,3.467
		c1.115,0.605,2.019-0.023,1.998-1.35c-0.014-0.962-0.215-1.902-0.797-2.697c-0.238-0.327-0.59-0.574-0.9-0.848
		c-0.371-0.33-0.765-0.637-1.121-0.982c-0.099-0.095-0.1-0.291-0.145-0.441c0.166-0.04,0.35-0.145,0.495-0.105
		c0.316,0.085,0.616,0.236,0.917,0.373c0.82,0.373,1.379,0.08,1.506-0.82c0.083-0.594,0.097-1.199,0.209-1.787
		c0.051-0.264,0.266-0.495,0.406-0.741c0.135,0.249,0.34,0.483,0.392,0.749c0.095,0.488,0.116,0.993,0.14,1.492
		c0.047,0.982,0.664,1.654,1.645,1.055c0.222-0.135,0.484-0.221,0.74-0.274c0.176-0.038,0.371,0.021,0.558,0.035
		c-0.056,0.195-0.054,0.442-0.177,0.574c-0.291,0.316-0.602,0.659-0.977,0.847c-1.408,0.702-1.961,2.926-1.743,4.1
		c0.153,0.822,0.786,1.225,1.589,1c1.078-0.302,2.764-1.953,2.744-3.465c-0.006-0.521,0.164-1.049,0.285-1.565
		c0.029-0.116,0.223-0.298,0.293-0.278c0.129,0.037,0.285,0.182,0.32,0.312c0.09,0.336,0.133,0.687,0.169,1.033
		c0.095,0.931,0.671,1.271,1.545,0.887c0.474-0.209,0.928-0.461,1.407-0.649c0.285-0.112,0.602-0.139,0.904-0.204
		C325.383,442.329,325.436,442.395,325.486,442.461z"/>
</g>
</svg>
