<?xml version="1.0" encoding="iso-8859-1"?>
<!-- Generator: Adobe Illustrator 16.0.0, SVG Export Plug-In . SVG Version: 6.00 Build 0)  -->
<!DOCTYPE svg PUBLIC "-//W3C//DTD SVG 1.1//EN" "http://www.w3.org/Graphics/SVG/1.1/DTD/svg11.dtd">
<svg version="1.1" id="Layer_1" xmlns="http://www.w3.org/2000/svg" xmlns:xlink="http://www.w3.org/1999/xlink" x="0px" y="0px"
	 width="600px" height="600px" viewBox="0 0 600 600" style="enable-background:new 0 0 600 600;" xml:space="preserve">
<g style="opacity:0.3;">
	<path style="fill:#FFFFFF;" d="M302.145,81.164c12.775,2.862,19.796,11.376,26.251,21.356
		c63.985,98.91,128.263,197.656,192.458,296.448c19.454,29.938,38.945,59.852,58.35,89.814c7.275,11.233,2.343,23.808-10.926,28.354
		c-1.422,0.486-2.781,1.128-4.17,1.699c-177.785,0-355.566,0-533.349,0c-6.864-3.471-11.128-8.819-13.193-15.757
		c0-2.626,0-5.253,0-7.878c1.417-2.873,2.562-5.897,4.29-8.599c83.338-130.238,166.74-260.44,250.057-390.69
		c3.255-5.089,7.527-8.934,13.09-11.558c2.757-1.3,5.767-2.142,8.661-3.19C296.49,81.164,299.317,81.164,302.145,81.164
		 M302.366,79.164h-0.222h-8.481h-0.351l-0.331,0.12c-0.879,0.319-1.797,0.627-2.684,0.925c-2.038,0.685-4.146,1.393-6.149,2.337
		c-5.841,2.756-10.395,6.775-13.922,12.289c-47.569,74.365-95.962,149.959-142.763,223.065
		C91.696,373.772,55.927,429.646,20.171,485.524c-1.254,1.962-2.207,4.052-3.127,6.073c-0.41,0.9-0.834,1.832-1.271,2.719
		l-0.207,0.418v0.467v7.878v0.291l0.083,0.279c2.276,7.646,7.057,13.355,14.208,16.972l0.425,0.215h0.477h533.349h0.396l0.365-0.15
		c0.444-0.183,0.886-0.372,1.327-0.562c0.938-0.403,1.824-0.784,2.729-1.094c7.284-2.496,12.477-7.284,14.62-13.482
		c1.998-5.775,1.052-12.115-2.663-17.851c-13.466-20.793-27.198-41.908-40.479-62.329c-5.958-9.162-11.917-18.324-17.872-27.488
		c-14.067-21.648-28.139-43.295-42.21-64.941c-49.302-75.844-100.282-154.27-150.245-231.503
		c-5.878-9.088-13.335-19.049-27.493-22.222L302.366,79.164L302.366,79.164z"/>
</g>
<path style="fill:#F68B1F;stroke:#000000;stroke-width:2;stroke-miterlimit:10;" d="M17.565,503.079c0-2.626,0-5.253,0-7.878
	c1.417-2.873,2.562-5.897,4.29-8.599c83.338-130.238,166.74-260.44,250.057-390.69c3.255-5.089,7.527-8.934,13.09-11.558
	c2.757-1.3,5.767-2.142,8.661-3.19c2.827,0,5.654,0,8.481,0c12.775,2.862,19.796,11.376,26.251,21.356
	c63.985,98.91,128.263,197.656,192.458,296.448c19.454,29.938,38.945,59.852,58.35,89.814c7.275,11.233,2.343,23.808-10.926,28.354
	c-1.422,0.486-2.781,1.128-4.17,1.699c-177.785,0-355.566,0-533.349,0C23.895,515.365,19.631,510.017,17.565,503.079z"/>
<path style="fill-rule:evenodd;clip-rule:evenodd;fill:#FFFFFF;" d="M298.55,155.66c66.18,103.2,131.869,205.636,198.236,309.128
	c-131.123,0-261.259,0-392.014,0C169.207,361.998,233.673,259.157,298.55,155.66z"/>
<path style="fill:none;stroke:#000000;stroke-width:1.5;stroke-miterlimit:10;" d="M298.55,155.66
	c-64.877,103.497-129.343,206.338-193.777,309.128c130.755,0,260.891,0,392.014,0C430.419,361.296,364.729,258.86,298.55,155.66z"/>
<path style="fill-rule:evenodd;clip-rule:evenodd;" d="M328.199,214.167c-12.277,9.792-24.795,19.238-36.675,29.427
	c-9.233,7.921-14.219,18.724-17.785,30.828c2.665,0.099,4.901,0.12,7.13,0.272c20.795,1.44,38.525,9.223,51.822,25.663
	c2.596,3.214,4.751,7.07,6.076,10.979c10.606,31.31,10.388,61.604-9.266,89.833c-10.253,14.73-23.386,26.44-37.858,36.909
	c-17.071,12.35-36.157,19.099-56.82,21.943c-1.197,0.165-2.406,0.221-4.312,0.386c8.035-5.745,15.599-10.822,22.796-16.378
	c13.186-10.179,25.162-21.578,33.618-36.166c1.653-2.848,2.913-5.947,4.107-9.026c0.509-1.312,0.38-2.87,0.571-4.579
	c-1.626-0.059-2.751-0.063-3.873-0.146c-4.318-0.317-8.704-0.269-12.937-1.055c-29.64-5.505-44.017-19.217-51.826-47.723
	c-4.893-17.862-1.926-35.392,4.028-52.581c16.564-47.813,52.19-71.282,100.396-78.705
	C327.723,213.998,328.085,214.149,328.199,214.167z"/>
</svg>
